<svg width="24" height="24" fill="none" xmlns="http://www.w3.org/2000/svg"><mask id="a" style="mask-type:alpha" maskUnits="userSpaceOnUse" x="0" y="0" width="24" height="24"><path fill="#D9D9D9" d="M0 0h24v24H0z"/></mask><g mask="url(#a)"><path d="M10.453 12l4.074 4.073a.724.724 0 01.212.522.707.707 0 01-.213.532.718.718 0 01-.526.217.718.718 0 01-.527-.217l-4.495-4.495A.828.828 0 018.723 12a.83.83 0 01.256-.633l4.494-4.494a.724.724 0 01.522-.213.707.707 0 01.532.213.72.72 0 01.217.527.718.718 0 01-.217.527L10.453 12z" fill="#000"/></g></svg>