<svg width="20" height="20" fill="none" xmlns="http://www.w3.org/2000/svg"><mask id="a" style="mask-type:alpha" maskUnits="userSpaceOnUse" x="0" y="0" width="20" height="20"><path fill="#D9D9D9" d="M0 0h20v20H0z"/></mask><g mask="url(#a)"><path d="M11.452 10L7.747 6.295a.375.375 0 01-.125-.235c-.006-.078.036-.162.125-.25.088-.09.17-.134.242-.134.074 0 .157.047.25.14l3.775 3.775c.059.065.103.13.132.196a.52.52 0 01.044.217.528.528 0 01-.044.217.626.626 0 01-.132.188L8.24 14.184c-.083.082-.16.123-.231.121-.072-.001-.152-.046-.24-.135-.09-.089-.134-.17-.134-.243 0-.073.045-.154.133-.243L11.452 10z" fill="#1C1B1F"/></g></svg>