<svg width="32" height="32" fill="none" xmlns="http://www.w3.org/2000/svg"><mask id="a" style="mask-type:alpha" maskUnits="userSpaceOnUse" x="0" y="0" width="32" height="32"><path fill="#D9D9D9" d="M0 0h32v32H0z"/></mask><g mask="url(#a)"><path d="M16 27.666a.967.967 0 01-.713-.287.968.968 0 01-.287-.712v-5.334c0-.283.096-.52.288-.712a.968.968 0 01.713-.288c.283 0 .52.096.712.288a.968.968 0 01.287.712V23h9.667c.283 0 .52.096.712.288a.965.965 0 01.288.712.967.967 0 01-.288.713.968.968 0 01-.712.287H17v1.667c0 .283-.096.52-.288.712a.968.968 0 01-.712.287zM5.333 25a.967.967 0 01-.712-.288.968.968 0 01-.288-.712c0-.284.096-.521.288-.713A.968.968 0 015.333 23h5.334c.283 0 .52.096.712.288a.965.965 0 01.288.712.967.967 0 01-.288.713.968.968 0 01-.712.287H5.333zm5.333-5.334a.967.967 0 01-.712-.287.968.968 0 01-.287-.712V17H5.333a.967.967 0 01-.712-.288.968.968 0 01-.288-.713c0-.283.096-.52.288-.712A.968.968 0 015.333 15h4.334v-1.667a.97.97 0 01.287-.712.968.968 0 01.713-.288c.284 0 .521.096.713.288a.968.968 0 01.287.712v5.334c0 .283-.096.52-.288.712a.968.968 0 01-.713.287zM16 17a.967.967 0 01-.712-.288A.968.968 0 0115 16c0-.283.096-.52.288-.712A.968.968 0 0116 15h10.667a.97.97 0 01.712.287c.192.192.288.43.288.713a.967.967 0 01-.288.713.968.968 0 01-.712.287H16zm5.333-5.334a.967.967 0 01-.712-.287.968.968 0 01-.287-.712V5.333c0-.283.095-.52.287-.712a.968.968 0 01.713-.288c.283 0 .52.096.712.288a.964.964 0 01.287.712V7h4.334c.283 0 .52.096.712.288a.965.965 0 01.288.712.967.967 0 01-.288.713.968.968 0 01-.712.287h-4.334v1.667c0 .283-.095.52-.287.712a.968.968 0 01-.713.287zM5.333 9a.967.967 0 01-.712-.288A.968.968 0 014.333 8c0-.283.096-.52.288-.712A.968.968 0 015.333 7H16c.284 0 .521.096.713.288A.968.968 0 0117 8a.97.97 0 01-.287.713A.968.968 0 0116 9H5.333z" fill="#1C1B1F"/></g></svg>