<svg width="61" height="61" fill="none" xmlns="http://www.w3.org/2000/svg"><path class="yellow" d="M60.598 26.123c-4.658-.646-8.663-.268-12.038.589-4.382 1.113-7.554 3.007-9.4 4.109l-.21.125c-.597.355-1.138.688-1.636.995-2.807 1.73-4.29 2.643-6.89 2.094-1.13-.239-1.89-.74-3.115-2.451-.626-.875-1.27-1.919-2.115-3.292l-.176-.286c-.907-1.472-1.982-3.203-3.325-5.135-3.48-5.008-8.414-6.61-13.237-6.775-1.389-.047-2.816.024-4.244.168C9.208 6.64 19.264.067 30.855.067c15.23 0 27.811 11.351 29.743 26.056z" fill="#FCCE07"/><path class="black" d="M60.57 34.216C58.55 48.82 46.015 60.067 30.855 60.067c-16.57 0-30-13.431-30-30 0-1.814.16-3.59.47-5.316 2.482-.436 4.748-.732 6.858-.66 3.133.107 5.318 1.01 6.941 3.346 1.21 1.74 2.188 3.313 3.082 4.764l.219.355c.793 1.29 1.581 2.571 2.378 3.684 1.852 2.587 4.134 4.812 7.968 5.622 5.995 1.267 10.4-1.567 13.167-3.347.403-.26.772-.497 1.106-.696l.124-.074c1.788-1.066 4.121-2.457 7.361-3.28 2.618-.664 5.93-.977 10.041-.25z" fill="#000"/><path class="white" d="M60.57 34.216a30.275 30.275 0 00.028-8.093c-4.658-.646-8.663-.268-12.038.589-4.382 1.113-7.554 3.007-9.4 4.109l-.21.125c-.597.355-1.138.688-1.636.995-2.807 1.73-4.29 2.643-6.89 2.094-1.13-.239-1.89-.74-3.115-2.451-.626-.875-1.27-1.919-2.115-3.292l-.176-.286c-.907-1.472-1.982-3.203-3.325-5.135-3.48-5.008-8.414-6.61-13.237-6.775-1.389-.047-2.816.024-4.244.168a29.786 29.786 0 00-2.888 8.487c2.483-.436 4.749-.732 6.86-.66 3.132.107 5.317 1.01 6.94 3.346 1.21 1.74 2.188 3.313 3.082 4.764l.219.355c.793 1.29 1.581 2.571 2.378 3.684 1.852 2.587 4.134 4.812 7.968 5.622 5.995 1.267 10.4-1.567 13.167-3.347.403-.26.772-.497 1.106-.696l.124-.074c1.788-1.066 4.121-2.457 7.361-3.28 2.618-.664 5.93-.977 10.041-.25z" fill="#fff"/></svg>