<svg width="193" height="224" fill="none" xmlns="http://www.w3.org/2000/svg"><g clip-path="url(#clip0_169_2259)"><path d="M51.655 68.256a38.308 38.308 0 01-4.211 1.331c-1.887.46-2.952.673-4.773-.033a7.042 7.042 0 01-.183-.074 19.324 19.324 0 01-11.774-17.529c-.009-.128-.009-.264-.009-.395a18.82 18.82 0 01.091-1.903c.08-.86.218-1.715.413-2.558l-.018-.003c-1.475-1.507-2.042-3.57-1.854-5.644a9.326 9.326 0 014.217-6.976 14.774 14.774 0 017.893-2.265h5.534a23.914 23.914 0 013.474-.547h.009c11.136-.924 19.919 6.455 19.1 15.432-.006.01-.016.02-.022.03-.236.385-.446.751-.63 1.1-.18.327-.331.64-.462.937-1.016 2.294 3.813 37.895 2.081 38.435-.986.307-4.96-26.184-4.247-21.147.898 6.32-9.498-.086-14.629 1.81z" fill="#2F2E41"/><path d="M68.432 132.611l15.438 32.867-59.385-6.011 12.396-31.551 31.551 4.695z" fill="#FFB6B6"/><path d="M99.422 198.507a86.539 86.539 0 01-32.077 4.294l-4.725-7.659s-.198 2.853-.493 7.213a83.501 83.501 0 01-15.25-3.231c-9.428-2.946-18.266-7.511-27.224-11.721-1.814-10.809-2.495-27.477 7.536-37.18l53.994 9.887s8.663 6.476 6.346 8.795c-2.318 2.316-2.677 1.958-1.154 3.479 1.523 1.522 4.813 3.557 4.846 4.887.014.52 3.706 9.941 8.2 21.236z" fill="#2F2E41"/><path d="M59.003 69.1l-13.044.91-8.432 8.142-2.953.527a11.01 11.01 0 00-6.712 4.018 10.997 10.997 0 00-2.345 7.46c.607 10.284 1.967 25.65 4.81 30.635 4.407 7.73 8.047 5.305 4.407 7.73-3.64 2.425-6.084.52-4.407 4.353 1.677 3.833-2.267 8.749-2.267 8.749l-1.57 1.569 1.665.682 53.057 6.899s-4.588-20.613-1.719-25.677c2.87-5.064 9.826-20.37 3.618-26.36L77.04 77.39l-10.442-3.078-7.595-5.21z" fill="#FFC916"/><path d="M137.969 153.705a6.038 6.038 0 01-4.522-2.265 6.014 6.014 0 01-1.206-4.909l-24.888-16.845 2.97-8.025 29.413 20.222a6.021 6.021 0 014.371 6.695 6.02 6.02 0 01-6.138 5.127z" fill="#FFB6B6"/><path d="M67.673 76.38l-3.616 1.432 19.292 37.654 39.938 27.205 5.756-9.724-30.4-26.241L86.47 83.378a14.977 14.977 0 00-8.054-7.107 14.99 14.99 0 00-10.744.11z" fill="#FFC916"/><path d="M51.802 65.79c7.234 0 13.099-5.862 13.099-13.091 0-7.23-5.865-13.09-13.099-13.09s-13.099 5.86-13.099 13.09c0 7.23 5.865 13.09 13.1 13.09z" fill="#FFB6B6"/><path d="M63.193 47.163a27.946 27.946 0 01-1.338.649c-4.384 1.986-7.954 2.207-10.12-.649a12.116 12.116 0 00-.998-4.36 7.002 7.002 0 01-1.156 4.36h-4.363c-4.493 2.98-6.798 5.718-3.68 15.501.204.643 1.596 23.478 1.994 25.233-6.802-2.607-12.669-30.29-12.818-37.584-.009-.118-.009-.242-.009-.364-.001-.584.029-1.168.091-1.749.08-.793.218-1.58.413-2.352l-.018-.004a6.143 6.143 0 01-1.854-5.19 14.976 14.976 0 014.162-3.729 26.567 26.567 0 014.557-1.71l.112-.027c.48-.13.97-.248 1.462-.352a27.477 27.477 0 013.067-.463c.076-.003.15-.01.216-.01.412 0 .816.112 1.17.322.004 0 .004.003.01.003a2.309 2.309 0 011.125 1.964h4.86c.18 0 .358.006.537.016 6.768.27 12.208 3.162 12.557 9.81.015.23.02.455.02.685z" fill="#2F2E41"/><path d="M34.46 47.69c4.766 0 8.63-3.861 8.63-8.624s-3.864-8.624-8.63-8.624c-4.766 0-8.63 3.86-8.63 8.624 0 4.762 3.864 8.624 8.63 8.624z" fill="#2F2E41"/><path d="M46.307 35.077c-.98 4.66-5.817 7.449-10.444 6.308a8.63 8.63 0 01-5.32-3.912 8.62 8.62 0 01-.993-6.526c1.141-4.624 6.757-3.29 10.445-6.308 5.217-4.268 7.635 4.152 6.313 10.438z" fill="#2F2E41"/><path d="M27.134 164.822c7.355-29.974 21.928-55.736 46.062-75.92a6.79 6.79 0 019.316-2.283l57.374 34.765a6.784 6.784 0 012.284 9.31c-9.212 30.756-23.01 57.444-46.063 75.921a6.793 6.793 0 01-9.316 2.281l-57.374-34.764a6.782 6.782 0 01-2.283-9.31z" fill="#F2F2F2"/><path opacity=".2" d="M37.332 174.923a6.785 6.785 0 01-2.284-9.31c7.355-29.973 21.928-55.736 46.063-75.92a6.7 6.7 0 012.53-2.39l-1.129-.684a6.794 6.794 0 00-9.316 2.282c-24.134 20.185-38.707 45.947-46.062 75.921a6.78 6.78 0 002.283 9.31l57.374 34.764a6.766 6.766 0 006.786.108l-56.245-34.081z" fill="#000"/><path d="M104.617 158.177l-38.513-23.19a2.696 2.696 0 012.785-4.618l38.512 23.189a2.694 2.694 0 01-.746 4.921 2.698 2.698 0 01-2.038-.302zm-22.404-30.752l-8.473-5.102a2.696 2.696 0 112.77-4.627l.015.009 8.472 5.101a2.699 2.699 0 01.912 3.697 2.699 2.699 0 01-3.696.922zm16.283 40.904l-38.512-23.19a2.696 2.696 0 012.779-4.622l.005.003 38.512 23.19a2.694 2.694 0 01-.746 4.921 2.7 2.7 0 01-2.038-.302z" fill="#fff"/><path d="M109.507 114.452c6.213 0 11.249-5.033 11.249-11.242 0-6.208-5.036-11.241-11.249-11.241-6.212 0-11.248 5.033-11.248 11.241 0 6.209 5.036 11.242 11.248 11.242z" fill="#3F3D56"/><path d="M90.118 223.665c13.278 0 24.042-10.757 24.042-24.027 0-13.269-10.764-24.026-24.042-24.026-13.278 0-24.042 10.757-24.042 24.026 0 13.27 10.764 24.027 24.042 24.027z" fill="#fff"/><path d="M90.118 224a24.389 24.389 0 01-13.544-4.106 24.348 24.348 0 01-3.694-37.482 24.382 24.382 0 0112.482-6.667 24.383 24.383 0 0125.025 10.358 24.35 24.35 0 014.108 13.535 24.38 24.38 0 01-7.148 17.218A24.408 24.408 0 0190.117 224zm0-48.053a23.7 23.7 0 00-21.902 14.625 23.676 23.676 0 005.139 25.819 23.715 23.715 0 0036.474-3.591 23.68 23.68 0 003.996-13.162 23.706 23.706 0 00-6.952-16.744 23.738 23.738 0 00-16.755-6.947z" fill="#3F3D56"/><path d="M86.838 212.143a2.683 2.683 0 01-2.14-1.069l-6.558-8.74a2.677 2.677 0 01-.164-2.967 2.68 2.68 0 011.639-1.228 2.674 2.674 0 012.804.988l4.29 5.717 11.022-16.521a2.67 2.67 0 012.744-1.139 2.665 2.665 0 011.703 1.134 2.669 2.669 0 01.004 2.97l-13.119 19.665a2.681 2.681 0 01-2.15 1.189l-.075.001z" fill="#FFC916"/><path d="M167.762 77.882c.956-.082 1.684-.686 1.627-1.35-.056-.664-.877-1.137-1.832-1.055-.956.081-1.684.686-1.627 1.35.057.665.877 1.137 1.832 1.055z" fill="#fff"/><path d="M178.512 74.238c.955-.082 1.684-.686 1.627-1.35-.057-.665-.878-1.137-1.833-1.055-.955.081-1.684.686-1.627 1.35.057.664.877 1.137 1.833 1.055z" fill="#3F3D56"/><path d="M162.667 69.686c.956-.081 1.684-.686 1.627-1.35-.057-.664-.877-1.136-1.833-1.055-.955.082-1.683.686-1.627 1.35.057.665.878 1.137 1.833 1.055z" fill="#FF6584"/><path d="M158.158 67.045c.411-.092.636-.647.503-1.237-.134-.591-.575-.995-.986-.902-.412.093-.637.647-.503 1.238.133.59.575.994.986.901z" fill="#E6E6E6"/><path d="M154.948 60.634c.411-.093.636-.647.503-1.237-.134-.591-.576-.995-.987-.902-.411.093-.636.647-.503 1.238.134.59.576.994.987.901z" fill="#3F3D56"/><path d="M170.35 69.638c.411-.093.636-.647.503-1.238-.134-.59-.575-.994-.986-.901-.412.093-.637.647-.503 1.237.133.591.575.995.986.902z" fill="#E6E6E6"/><path d="M165.655 73.533c.411-.093.636-.647.503-1.238-.134-.59-.575-.994-.987-.901-.411.093-.636.647-.502 1.237.133.591.575.995.986.902z" fill="#FF6584"/><path d="M174.202 76.706c.412-.093.637-.648.503-1.238-.133-.59-.575-.995-.986-.902-.411.093-.636.647-.503 1.238.134.59.575.994.986.901z" fill="#3F3D56"/><path d="M123.382 28.219c.164-.646-.457-1.36-1.386-1.596-.93-.236-1.816.097-1.98.743-.164.647.457 1.361 1.387 1.597.929.235 1.815-.098 1.979-.744z" fill="#fff"/><path d="M112.032 28.146c.163-.646-.457-1.361-1.387-1.596-.929-.236-1.816.097-1.979.743-.164.646.456 1.361 1.386 1.597.929.235 1.816-.098 1.98-.744z" fill="#3F3D56"/><path d="M125.512 37.63c.164-.646-.457-1.36-1.386-1.596-.93-.236-1.816.097-1.98.744-.164.646.457 1.36 1.387 1.596.929.235 1.815-.098 1.979-.744z" fill="#FF6584"/><path d="M128.158 41.179c.067-.602-.218-1.128-.637-1.175-.419-.047-.813.403-.88 1.005-.067.602.218 1.128.637 1.175.419.047.813-.403.88-1.005z" fill="#E6E6E6"/><path d="M129.092 48.287c.067-.602-.218-1.128-.637-1.175-.419-.046-.813.404-.881 1.005-.067.602.218 1.128.637 1.175.419.047.813-.403.881-1.005z" fill="#3F3D56"/><path d="M117.487 34.74c.067-.601-.218-1.127-.637-1.174-.419-.047-.813.403-.88 1.005-.067.602.218 1.128.637 1.175.419.046.813-.404.88-1.005z" fill="#E6E6E6"/><path d="M123.199 32.596c.068-.602-.218-1.128-.636-1.174-.419-.047-.814.403-.881 1.005-.067.602.218 1.127.637 1.174.419.047.813-.403.88-1.005z" fill="#FF6584"/><path d="M116.162 26.802c.067-.602-.218-1.128-.637-1.174-.419-.047-.813.403-.88 1.005-.067.602.218 1.128.637 1.174.419.047.813-.403.88-1.005z" fill="#3F3D56"/><path d="M30.711 165.139a6.396 6.396 0 01-3.928-6.658c.108-.92.414-1.805.898-2.594L9.2 129.924l5.93-6.874 21.725 30.996a6.385 6.385 0 011.859 8.273 6.386 6.386 0 01-8.002 2.82z" fill="#FFB6B6"/><path d="M31.136 82.865a4.564 4.564 0 00-5.83 1.025L.336 118.791l23.141 32.847 9.055-9.72-14.086-22.121 18.72-17.813a14.962 14.962 0 00-6.03-19.12z" fill="#FFC916"/></g><defs><clipPath id="clip0_169_2259"><path fill="#fff" d="M0 0h193v224H0z"/></clipPath></defs></svg>