<svg width="20" height="20" fill="#fff" xmlns="http://www.w3.org/2000/svg"><path d="M10 .8C4.924.8.8 4.924.8 10s4.124 9.2 9.2 9.2 9.2-4.124 9.2-9.2S15.076.8 10 .8zm0 .8c4.644 0 8.4 3.756 8.4 8.4s-3.756 8.4-8.4 8.4A8.394 8.394 0 011.6 10c0-4.644 3.756-8.4 8.4-8.4zm3.635 4.014c-.273 0-.58.063-.94.193-.559.201-7.127 2.99-7.874 3.307-.427.182-1.223.52-1.223 1.325 0 .534.313.916.93 1.136.33.118 1.117.357 1.574.482a2.43 2.43 0 001.768-.205 1.28 1.28 0 00.007.204c.049.42.308.815.692 1.057.25.158 2.303 1.533 2.61 1.751.43.308.905.47 1.374.47.896 0 1.197-.925 1.341-1.37.21-.644.997-5.891 1.086-6.816.06-.634-.204-1.156-.707-1.397a1.458 1.458 0 00-.638-.137zm0 .8a.66.66 0 01.292.059c.189.09.285.293.256.599-.097 1.01-.881 6.132-1.049 6.645-.143.44-.294.817-.58.817-.288 0-.602-.1-.911-.322a170.84 170.84 0 00-2.648-1.777c-.25-.157-.514-.55-.142-.93.307-.313 2.634-2.572 2.833-2.77.148-.149.079-.328-.066-.328-.05 0-.11.021-.172.072-.244.199-3.634 2.468-3.928 2.65-.194.12-.495.208-.807.208-.134 0-.269-.016-.398-.052a30.303 30.303 0 01-1.518-.464c-.292-.104-.398-.204-.398-.382 0-.254.358-.429.735-.589.399-.17 7.292-3.097 7.832-3.29.25-.091.478-.146.67-.146z"/></svg>