<svg width="274" height="264" viewBox="0 0 274 264" fill="none" xmlns="http://www.w3.org/2000/svg">
<g clip-path="url(#clip0_146_696)">
<path d="M102.632 249.892L109.805 249.891L113.216 222.813L102.631 222.813L102.632 249.892Z" fill="#FFB7B7"/>
<path d="M112.191 250.524V245.764L110.306 245.877L102.63 246.322L100.854 246.429L99.4955 262.369L99.4227 263.223H104.516L104.679 262.375L105.419 258.517L107.329 262.375L107.747 263.223H121.249C122.053 263.218 122.822 262.903 123.389 262.346C123.957 261.79 124.277 261.036 124.281 260.25C124.851 257.645 113.622 252.013 112.191 250.524Z" fill="#2F2E41"/>
<path d="M54.353 243.281L60.9505 246.034L74.9425 222.437L65.2052 218.373L54.353 243.281Z" fill="#FFB7B7"/>
<path d="M62.8926 247.533L64.8002 243.155L63.0206 242.535L55.7818 239.997L54.105 239.413L46.4669 253.553L46.0575 254.311L50.7421 256.267L51.2328 255.549L53.4592 252.285L53.6699 256.566L53.7146 257.507L66.1344 262.692C66.8754 262.996 67.7091 263.002 68.4543 262.708C69.1995 262.414 69.7961 261.844 70.1145 261.121C71.6829 258.944 63.6117 249.452 62.8926 247.533Z" fill="#2F2E41"/>
<path d="M95.8107 23.3543H68.6398V54.9802H95.8107V23.3543Z" fill="#2F2E41"/>
<path d="M98.0137 115.716L69.0069 115.357C69.0069 115.357 55.9722 127.396 67.3546 147.881L71.3936 198.195L51.5907 225.234L75.4325 242.04L90.4866 201.07L89.9966 176.868L96.9122 190.109L92.3225 239.884L124.634 239.165L115.976 188.98L98.0137 135.482V115.716Z" fill="#2F2E41"/>
<path d="M112.079 86.9656L117.29 93.7936H133.813L136.383 102.419L108.864 101.88L104.439 87.684L112.079 86.9656Z" fill="#FFB7B7"/>
<path d="M48.996 93.2546L42.7539 107.99L41.285 128.115L48.6285 130.83L56.731 95.9247L48.996 93.2546Z" fill="#FFB7B7"/>
<path d="M87.1821 49.7691L76.1668 50.1285L65.127 61.1694C65.127 61.1694 52.8512 69.3556 56.8901 82.2934C58.8172 88.4663 61.0129 89.0585 63.5502 97.7617C64.2899 100.299 64.9963 102.732 65.6347 104.936C66.1139 106.59 67.9524 108.473 66.9426 109.46C62.5662 113.738 67.3243 115.522 68.6397 115.357C69.6643 122.27 79.9858 121.966 98.1973 115.536C101.585 113.255 102.131 111.386 99.6663 109.952L100.686 106.076L106.858 82.6143C106.858 82.6143 108.52 73.257 100.033 68.4571L95.0598 61.1694L87.1821 49.7691Z" fill="#E6E6E6"/>
<path d="M56.3918 72.0509C54.327 79.7277 50.8388 80.7243 48.7206 88.6953C48.2391 88.7063 47.7645 88.8091 47.3232 88.998C46.9865 89.1348 46.7033 89.3735 46.5153 89.6792C46.3272 89.985 46.2441 90.3416 46.2781 90.6969C46.4092 91.356 47.0866 91.9048 46.9496 92.5627C46.8466 93.0577 46.3318 93.3395 45.9577 93.6875C45.5619 94.0733 45.3049 94.5745 45.2253 95.1157C45.1458 95.6569 45.2481 96.2088 45.5168 96.6881C45.7262 97.0344 46.0216 97.3231 46.3757 97.5275C45.8313 99.5799 45.5077 100.802 45.5077 100.802L54.687 104.216L69.1904 74.7067L69.9248 63.7851C69.9248 63.7851 60.2584 57.6756 56.3918 72.0509Z" fill="#E6E6E6"/>
<path d="M117.841 92.3562C117.841 92.3562 115.275 92.6173 112.901 85.1657C111.255 79.9948 110.258 83.6554 109.121 79.2386C106.344 68.4571 99.0234 70.254 99.0234 70.254L95.2599 79.9574L103.663 93.665C103.263 94.0905 102.959 94.5941 102.772 95.1426C102.656 95.4808 102.653 95.8466 102.765 96.1863C102.876 96.5261 103.096 96.8219 103.392 97.0306C103.985 97.3676 104.853 97.2293 105.269 97.7631C105.582 98.1647 105.46 98.7296 105.482 99.2342C105.518 99.7798 105.735 100.299 106.099 100.714C106.463 101.128 106.955 101.416 107.501 101.533C107.823 101.591 108.153 101.583 108.472 101.51L109.029 102.419L117.841 92.3562Z" fill="#E6E6E6"/>
<path d="M137.301 102.778C140.343 102.778 142.809 100.365 142.809 97.3875C142.809 94.4103 140.343 91.9968 137.301 91.9968C134.26 91.9968 131.794 94.4103 131.794 97.3875C131.794 100.365 134.26 102.778 137.301 102.778Z" fill="#FFB7B7"/>
<path d="M43.6718 137.639C46.7136 137.639 49.1794 135.225 49.1794 132.248C49.1794 129.271 46.7136 126.857 43.6718 126.857C40.63 126.857 38.1642 129.271 38.1642 132.248C38.1642 135.225 40.63 137.639 43.6718 137.639Z" fill="#FFB7B7"/>
<path d="M81.6123 47.402C88.7066 47.402 94.4576 41.7729 94.4576 34.8292C94.4576 27.8854 88.7066 22.2564 81.6123 22.2564C74.518 22.2564 68.767 27.8854 68.767 34.8292C68.767 41.7729 74.518 47.402 81.6123 47.402Z" fill="#FFB7B7"/>
<path d="M72.7817 36.1501C72.8971 36.0273 72.9825 35.8806 73.0316 35.7208C73.0807 35.5611 73.0923 35.3925 73.0653 35.2278C73.0384 35.0631 72.9738 34.9065 72.8762 34.7697C72.7787 34.6329 72.6508 34.5196 72.5021 34.4381C72.1843 34.2986 71.829 34.2634 71.4892 34.3378C71.1494 34.4122 70.8433 34.5921 70.6165 34.8508C70.1742 35.3834 69.943 36.0542 69.9653 36.7402C69.92 39.6748 72.5017 42.049 73.0201 44.9397C73.3519 46.7894 72.8088 48.6703 72.271 50.473L70.3286 56.9842L60.9685 56.9198C61.2597 55.2162 62.0821 53.6424 63.3229 52.4143C61.7928 52.1218 60.4096 53.2616 59.2285 54.2577C58.0474 55.2537 56.4562 56.2368 55.0321 55.6157C54.557 55.3635 54.1611 54.9893 53.887 54.5332C53.613 54.0772 53.4712 53.5567 53.477 53.0276C53.4359 51.9736 54.6517 50.8823 54.1452 49.9512C49.3232 41.0865 64.6822 18.8429 72.8874 19.3289C74.5542 16.7226 77.7115 15.2578 80.8467 15.064C83.9819 14.8702 87.0934 15.8099 89.9149 17.1618C93.3042 18.7858 96.4261 21.059 98.6307 24.0567C100.835 27.0543 102.064 30.8172 101.603 34.4831C101.289 36.9753 100.232 39.309 99.4407 41.6975C98.6489 44.0861 98.1207 46.6911 98.8816 49.0892C99.2333 50.1976 99.8546 51.2409 99.9529 52.3976C100.13 54.4842 98.4987 56.3924 96.5513 57.2591C94.6039 58.1258 92.3953 58.1777 90.2564 58.215C91.0656 56.2902 91.7913 53.8428 90.3322 52.3286C89.2919 51.249 91.1293 48.5731 90.2662 47.3529C89.6462 46.4765 91.3563 44.8247 91.7717 43.8393C92.286 42.8244 92.9009 41.8614 93.6075 40.9642C96.4092 36.9586 93.6932 32.3802 92.506 27.667C88.0027 29.0625 81.203 31.1202 77.0465 28.9236C76.8066 31.932 75.4234 34.7431 73.1697 36.8021" fill="#2F2E41"/>
<path d="M166.438 121.305C160.716 121.305 155.122 119.644 150.364 116.532C145.605 113.42 141.897 108.997 139.707 103.822C137.517 98.6474 136.944 92.9531 138.06 87.4596C139.177 81.966 141.932 76.9198 145.979 72.9592C150.025 68.9985 155.181 66.3013 160.794 65.2085C166.406 64.1158 172.224 64.6766 177.511 66.8201C182.798 68.9636 187.317 72.5935 190.496 77.2507C193.676 81.9079 195.372 87.3833 195.372 92.9845C195.364 100.493 192.313 107.691 186.888 113.001C181.464 118.31 174.11 121.296 166.438 121.305Z" fill="white"/>
<path d="M166.438 121.305C160.716 121.305 155.122 119.644 150.364 116.532C145.605 113.42 141.897 108.997 139.707 103.822C137.517 98.6474 136.944 92.9531 138.06 87.4596C139.177 81.966 141.932 76.9198 145.979 72.9592C150.025 68.9985 155.181 66.3013 160.794 65.2085C166.406 64.1158 172.224 64.6766 177.511 66.8201C182.798 68.9636 187.317 72.5935 190.496 77.2507C193.676 81.9079 195.372 87.3833 195.372 92.9845C195.364 100.493 192.313 107.691 186.888 113.001C181.464 118.31 174.11 121.296 166.438 121.305ZM166.438 65.6084C160.907 65.6084 155.499 67.214 150.899 70.2221C146.3 73.2302 142.715 77.5058 140.598 82.5081C138.481 87.5105 137.927 93.0149 139.006 98.3254C140.086 103.636 142.749 108.514 146.661 112.342C150.573 116.171 155.556 118.778 160.982 119.835C166.407 120.891 172.031 120.349 177.142 118.277C182.253 116.205 186.621 112.696 189.694 108.194C192.768 103.692 194.408 98.399 194.408 92.9845C194.4 85.7264 191.45 78.768 186.207 73.6357C180.963 68.5035 173.854 65.6166 166.438 65.6084Z" fill="#E6E6E6"/>
<path d="M157.185 93.821C153.537 93.821 150.009 92.5458 147.237 90.2251C146.312 89.4502 145.326 88.103 144.308 86.2213C143.658 85.0091 143.294 83.6698 143.242 82.3018C143.191 80.9338 143.454 79.5719 144.011 78.3163C143.474 78.8513 142.879 79.3284 142.238 79.7395L141.914 79.9506L141.895 79.5702C141.883 79.3228 141.877 79.0762 141.877 78.8374C141.877 77.4297 142.965 76.0012 142.463 74.7C140.349 69.2158 133.642 63.7656 143.362 55.278C144.261 54.4929 143.06 52.9231 143.06 51.7352C143.06 40.0933 155.983 22.6295 164.635 30.6219C169.685 35.2872 180.206 38.6014 185.119 45.0905L185.184 45.2828L184.992 45.3587C184.01 45.7624 182.977 46.0316 181.92 46.1584C183.046 46.3833 184.196 46.4776 185.345 46.4393L185.524 46.4332L185.567 46.6027C185.994 48.2815 186.21 50.0051 186.21 51.7352L186.209 51.9222C186.205 53.2362 186.484 54.5364 187.028 55.7379C187.572 56.9393 188.368 58.0151 189.366 58.8951C190.941 60.3006 192.199 62.0119 193.061 63.9199C193.923 65.8278 194.369 67.8906 194.371 69.9767C194.371 72.4448 192.657 75.6845 191.22 77.9677C190.855 78.5493 190.361 79.0426 189.774 79.4106C189.187 79.7785 188.523 80.0117 187.831 80.0924C187.175 80.1733 186.509 80.1122 185.881 79.9134C185.252 79.7146 184.675 79.383 184.192 78.9419C184.873 80.2812 185.759 81.51 186.821 82.5855L187.018 82.7833L186.774 82.9222C184.433 84.2581 181.772 84.9615 179.063 84.9605L178.904 84.9601C176.918 84.94 174.947 85.3082 173.107 86.0431C171.268 86.7779 169.597 87.8647 168.192 89.2397C166.761 90.6821 165.051 91.8303 163.161 92.617C161.271 93.4037 159.239 93.813 157.185 93.821Z" fill="#FFC916"/>
<path d="M167.296 111.979C165.889 111.979 164.528 111.487 163.458 110.592C162.991 110.146 162.608 109.623 162.328 109.047C162.077 108.579 161.937 108.063 161.917 107.535C161.897 107.007 161.998 106.482 162.213 105.997C162.006 106.204 161.777 106.388 161.529 106.546L161.404 106.628L161.397 106.481C161.392 106.386 161.39 106.29 161.39 106.198C161.39 105.655 161.81 105.104 161.616 104.602C160.8 102.486 158.213 100.383 161.963 97.1088C162.31 96.8059 161.846 96.2002 161.846 95.7419C161.846 91.2503 166.832 84.5125 170.17 87.5961C172.119 89.3961 176.178 90.6747 178.073 93.1783L178.098 93.2525L178.024 93.2818C177.646 93.4375 177.247 93.5414 176.839 93.5903C177.274 93.6771 177.717 93.7134 178.161 93.6987L178.229 93.6963L178.246 93.7617C178.411 94.4094 178.494 95.0744 178.494 95.7419L178.494 95.814C178.492 96.321 178.6 96.8226 178.81 97.2862C179.02 97.7497 179.327 98.1648 179.712 98.5043C180.319 99.0465 180.805 99.7068 181.137 100.443C181.47 101.179 181.642 101.975 181.643 102.78C181.643 103.732 180.982 104.982 180.427 105.863C180.286 106.087 180.096 106.277 179.869 106.419C179.643 106.561 179.387 106.651 179.12 106.682C178.867 106.714 178.61 106.69 178.367 106.613C178.125 106.537 177.902 106.409 177.716 106.239C177.978 106.755 178.32 107.229 178.73 107.644L178.806 107.721L178.712 107.774C177.809 108.29 176.782 108.561 175.737 108.561L175.676 108.56C174.909 108.553 174.149 108.695 173.439 108.978C172.729 109.262 172.085 109.681 171.543 110.212C170.991 110.768 170.331 111.211 169.602 111.515C168.872 111.818 168.089 111.976 167.296 111.979Z" fill="#FFC916"/>
<path d="M167.573 120.84C167.477 120.278 165.271 107.018 169.611 100.409L170.017 100.664C165.778 107.119 168.025 120.626 168.049 120.761L167.573 120.84Z" fill="#3F3D56"/>
<path d="M155.961 117.964C151.946 112.8 150.837 106.115 151.659 99.7859C152.557 92.878 155.828 86.5509 159.729 80.8195C162.051 77.4092 164.614 74.1656 167.18 70.9306C167.462 70.5749 166.954 70.0703 166.668 70.4299C162.069 76.2283 157.406 82.1038 154.255 88.8108C151.393 94.9005 149.937 101.68 151.063 108.36C151.637 111.972 153.104 115.391 155.336 118.321C155.614 118.679 156.243 118.327 155.961 117.964Z" fill="#3F3D56"/>
<path d="M148.216 61.7252C150.714 63.2515 152.512 65.6641 153.234 68.4583C154.097 71.8407 153.103 75.3214 152.171 78.5815C152.149 78.6708 152.163 78.765 152.211 78.844C152.259 78.9231 152.336 78.9809 152.427 79.0053C152.517 79.0297 152.614 79.0188 152.696 78.9749C152.778 78.9309 152.84 78.8574 152.868 78.7697C153.853 75.3256 154.859 71.6573 153.886 68.0959C153.081 65.1967 151.186 62.7025 148.581 61.1139C148.185 60.8725 147.821 61.4848 148.216 61.7252Z" fill="#3F3D56"/>
<path d="M181.193 73.0609C175.031 73.4361 169.214 75.9722 164.807 80.2045C164.475 80.5248 164.986 81.0254 165.318 80.7051C169.587 76.6014 175.222 74.1392 181.193 73.7689C181.655 73.7414 181.659 73.0332 181.193 73.0609Z" fill="#3F3D56"/>
<path d="M261.935 150.904C260.697 157.464 257.094 163.372 251.782 167.552C246.47 171.732 239.801 173.907 232.989 173.681C226.177 173.455 219.674 170.844 214.662 166.322C209.651 161.799 206.465 155.667 205.683 149.04C206.235 149.04 206.785 149.102 207.322 149.224C210.09 149.851 212.342 151.744 214.705 153.288C217.073 154.831 219.986 156.091 222.696 155.246C225.281 154.444 226.877 151.994 228.521 149.889C230.171 147.779 232.543 145.684 235.22 146.099C239.005 146.684 240.606 151.791 244.353 152.551C248.505 153.396 251.847 148.407 256.086 148.497C257.812 148.535 259.384 149.422 260.87 150.286C261.226 150.493 261.578 150.701 261.935 150.904Z" fill="#E6E6E6"/>
<path d="M233.951 174.169C226.849 174.176 219.993 171.623 214.691 166.998C209.389 162.373 206.011 156 205.203 149.093C205.08 148.016 205.018 146.933 205.017 145.849C205.017 140.247 206.713 134.771 209.893 130.113C213.072 125.454 217.591 121.824 222.879 119.68C228.167 117.536 233.985 116.975 239.599 118.067C245.212 119.16 250.368 121.858 254.415 125.819C258.462 129.78 261.218 134.827 262.335 140.321C263.451 145.816 262.878 151.511 260.688 156.686C258.497 161.862 254.788 166.285 250.029 169.397C245.27 172.509 239.675 174.17 233.951 174.169ZM233.951 118.473C226.536 118.481 219.427 121.368 214.183 126.5C208.94 131.632 205.99 138.591 205.982 145.849C205.982 146.897 206.042 147.945 206.162 148.987C206.78 154.233 208.935 159.192 212.367 163.267C215.799 167.342 220.362 170.358 225.506 171.952C230.65 173.546 236.155 173.65 241.358 172.251C246.561 170.852 251.239 168.011 254.83 164.068C258.42 160.126 260.768 155.252 261.593 150.033C262.417 144.814 261.681 139.473 259.474 134.653C257.268 129.834 253.684 125.743 249.156 122.872C244.627 120.001 239.347 118.473 233.951 118.473Z" fill="#E6E6E6"/>
<path d="M253.441 128.253C258.464 128.253 262.536 124.268 262.536 119.351C262.536 114.434 258.464 110.449 253.441 110.449C248.417 110.449 244.345 114.434 244.345 119.351C244.345 124.268 248.417 128.253 253.441 128.253Z" fill="#E6E6E6"/>
<path d="M273.797 115.136C273.54 114.312 273.043 113.581 272.367 113.03C271.691 112.48 270.865 112.135 269.992 112.038C269.971 112.037 269.951 112.037 269.93 112.038C269.906 112.031 269.881 112.025 269.855 112.022C268.298 111.828 266.717 111.96 265.216 112.408C263.714 112.857 262.327 113.611 261.145 114.622L261.12 114.645C260.543 115.168 259.838 115.537 259.073 115.719C258.309 115.9 257.509 115.887 256.751 115.68C256.335 115.568 255.902 115.521 255.47 115.542C254.548 115.602 253.668 115.938 252.949 116.506C252.229 117.073 251.706 117.844 251.451 118.713C251.423 118.819 251.43 118.931 251.473 119.033C251.515 119.135 251.59 119.22 251.686 119.277C251.96 119.506 252.286 119.668 252.636 119.75C253.389 119.907 254.149 120.05 254.908 120.18C256.393 120.433 257.887 120.639 259.388 120.797C260.379 120.9 261.372 120.982 262.368 121.044C264.426 121.17 266.493 121.2 268.554 121.137C269.559 121.175 270.56 121.002 271.491 120.63C272.171 120.303 272.752 119.808 273.177 119.193C273.577 118.602 273.839 117.933 273.947 117.232C274.054 116.531 274.003 115.815 273.797 115.136Z" fill="#E6E6E6"/>
<path d="M255.085 128.105C255.068 127.732 255.004 127.363 254.895 127.005C254.637 126.182 254.139 125.45 253.463 124.9C252.786 124.35 251.96 124.005 251.086 123.908C251.067 123.906 251.048 123.906 251.028 123.908C251.003 123.901 250.976 123.895 250.95 123.891C249.265 123.689 247.554 123.861 245.946 124.394C244.565 124.836 243.294 125.557 242.217 126.512C241.64 127.036 240.935 127.406 240.17 127.587C239.406 127.769 238.606 127.756 237.848 127.55C237.43 127.437 236.997 127.391 236.565 127.412C235.643 127.471 234.762 127.808 234.043 128.375C233.324 128.943 232.801 129.714 232.545 130.583C232.519 130.689 232.527 130.8 232.569 130.902C232.612 131.003 232.685 131.088 232.78 131.146C233.055 131.375 233.38 131.537 233.731 131.619C234.487 131.776 235.243 131.92 236.006 132.05C237.491 132.303 238.983 132.509 240.482 132.666C243.527 132.986 246.591 133.1 249.652 133.006C250.657 133.044 251.658 132.871 252.588 132.5C253.268 132.172 253.848 131.677 254.271 131.063C254.868 130.192 255.155 129.152 255.085 128.105Z" fill="#E6E6E6"/>
<path d="M253.441 128.253C258.464 128.253 262.536 124.268 262.536 119.351C262.536 114.434 258.464 110.449 253.441 110.449C248.417 110.449 244.345 114.434 244.345 119.351C244.345 124.268 248.417 128.253 253.441 128.253Z" fill="#E6E6E6"/>
<path d="M273.797 115.136C273.54 114.312 273.043 113.581 272.367 113.03C271.691 112.48 270.865 112.135 269.992 112.038C269.971 112.037 269.951 112.037 269.93 112.038C269.906 112.031 269.881 112.025 269.855 112.022C268.298 111.828 266.717 111.96 265.216 112.408C263.714 112.857 262.327 113.611 261.145 114.622L261.12 114.645C260.543 115.168 259.838 115.537 259.073 115.719C258.309 115.9 257.509 115.887 256.751 115.68C256.335 115.568 255.902 115.521 255.47 115.542C254.548 115.602 253.668 115.938 252.949 116.506C252.229 117.073 251.706 117.844 251.451 118.713C251.423 118.819 251.43 118.931 251.473 119.033C251.515 119.135 251.59 119.22 251.686 119.277C251.96 119.506 252.286 119.668 252.636 119.75C253.389 119.907 254.149 120.05 254.908 120.18C256.393 120.433 257.887 120.639 259.388 120.797C260.379 120.9 261.372 120.982 262.368 121.044C264.426 121.17 266.493 121.2 268.554 121.137C269.559 121.175 270.56 121.002 271.491 120.63C272.171 120.303 272.752 119.808 273.177 119.193C273.577 118.602 273.839 117.933 273.947 117.232C274.054 116.531 274.003 115.815 273.797 115.136Z" fill="#E6E6E6"/>
<path d="M255.085 128.105C255.068 127.732 255.004 127.363 254.895 127.005C254.637 126.182 254.139 125.45 253.463 124.9C252.786 124.35 251.96 124.005 251.086 123.908C251.067 123.906 251.048 123.906 251.028 123.908C251.003 123.901 250.976 123.895 250.95 123.891C249.265 123.689 247.554 123.861 245.946 124.394C244.565 124.836 243.294 125.557 242.217 126.512C241.64 127.036 240.935 127.406 240.17 127.587C239.406 127.769 238.606 127.756 237.848 127.55C237.43 127.437 236.997 127.391 236.565 127.412C235.643 127.471 234.762 127.808 234.043 128.375C233.324 128.943 232.801 129.714 232.545 130.583C232.519 130.689 232.527 130.8 232.569 130.902C232.612 131.003 232.685 131.088 232.78 131.146C233.055 131.375 233.38 131.537 233.731 131.619C234.487 131.776 235.243 131.92 236.006 132.05C237.491 132.303 238.983 132.509 240.482 132.666C243.527 132.986 246.591 133.1 249.652 133.006C250.657 133.044 251.658 132.871 252.588 132.5C253.268 132.172 253.848 131.677 254.271 131.063C254.868 130.192 255.155 129.152 255.085 128.105Z" fill="#E6E6E6"/>
<path d="M224.265 136.796C223.527 137.123 222.666 136.973 221.919 137.291C221.545 137.451 221.238 137.732 221.052 138.087L219.854 136.609C219.79 136.546 219.703 136.511 219.612 136.511C219.522 136.511 219.435 136.546 219.37 136.609C219.308 136.672 219.273 136.757 219.273 136.846C219.273 136.934 219.308 137.019 219.37 137.083C219.933 137.777 220.495 138.471 221.058 139.166C221.273 139.431 221.733 139.144 221.63 138.84C221.42 138.217 222.146 137.871 222.647 137.768C223.315 137.71 223.974 137.578 224.611 137.375C225.012 137.197 224.664 136.619 224.265 136.796Z" fill="#E6E6E6"/>
<path d="M241.143 141.044C240.405 141.371 239.544 141.221 238.797 141.54C238.423 141.699 238.117 141.98 237.93 142.335L236.733 140.857C236.668 140.794 236.581 140.76 236.49 140.76C236.4 140.76 236.313 140.794 236.248 140.857C236.186 140.921 236.151 141.005 236.151 141.094C236.151 141.182 236.186 141.267 236.248 141.331C236.811 142.025 237.373 142.72 237.936 143.414C238.151 143.679 238.611 143.392 238.509 143.088C238.298 142.466 239.024 142.119 239.526 142.016C240.193 141.958 240.852 141.826 241.489 141.623C241.89 141.445 241.542 140.867 241.143 141.044Z" fill="#E6E6E6"/>
<path d="M229.57 123.58C228.832 123.907 227.971 123.757 227.223 124.075C226.849 124.235 226.543 124.516 226.357 124.871L225.159 123.393C225.094 123.33 225.007 123.295 224.917 123.295C224.826 123.295 224.739 123.33 224.675 123.393C224.612 123.456 224.578 123.541 224.578 123.63C224.578 123.718 224.612 123.803 224.675 123.867C225.237 124.561 225.8 125.255 226.362 125.95C226.577 126.215 227.038 125.928 226.935 125.624C226.724 125.001 227.451 124.655 227.952 124.552C228.62 124.494 229.278 124.362 229.916 124.159C230.316 123.981 229.969 123.403 229.57 123.58Z" fill="#E6E6E6"/>
<path d="M233.469 56.6403C227.746 56.6403 222.152 54.9794 217.394 51.8675C212.636 48.7557 208.927 44.3327 206.737 39.1578C204.547 33.983 203.974 28.2887 205.091 22.7952C206.207 17.3016 208.963 12.2554 213.009 8.29478C217.056 4.33413 222.212 1.6369 227.824 0.544163C233.437 -0.548577 239.255 0.0122528 244.542 2.15574C249.829 4.29923 254.347 7.92909 257.527 12.5863C260.706 17.2435 262.403 22.719 262.403 28.3202C262.394 35.8285 259.343 43.0269 253.919 48.3362C248.495 53.6454 241.14 56.6318 233.469 56.6403ZM233.469 0.943999C227.937 0.943999 222.529 2.54958 217.93 5.55772C213.33 8.56585 209.745 12.8414 207.628 17.8438C205.511 22.8461 204.958 28.3505 206.037 33.661C207.116 38.9715 209.78 43.8494 213.691 47.678C217.603 51.5067 222.587 54.114 228.012 55.1703C233.438 56.2266 239.062 55.6845 244.172 53.6124C249.283 51.5404 253.651 48.0315 256.725 43.5296C259.798 39.0276 261.439 33.7347 261.439 28.3202C261.43 21.0621 258.481 14.1036 253.237 8.97133C247.994 3.83908 240.884 0.952183 233.469 0.943999Z" fill="#E6E6E6"/>
<path d="M222.576 26.105C222.538 25.4308 222.374 24.7691 222.092 24.1529C221.947 23.8464 221.72 23.5842 221.435 23.3938C221.15 23.2034 220.817 23.092 220.473 23.0713C219.475 23.0864 218.818 24.0699 218.39 24.9524C216.857 28.1206 215.87 31.5157 215.471 34.9995C217.118 33.7117 218.641 32.2784 220.02 30.7175C221.404 29.1458 222.318 27.2309 222.662 25.1836" fill="#F2F2F2"/>
<path d="M225.902 17.4722C227.265 16.6163 229.137 16.8017 230.491 17.6706C231.818 18.6033 232.776 19.9554 233.204 21.4991C233.622 23.0314 233.86 24.6058 233.911 26.1912L234.574 35.503C234.184 35.3788 233.827 35.17 233.53 34.892C233.233 34.614 233.004 34.274 232.86 33.8974C232.578 33.1432 232.396 32.3572 232.316 31.558C231.517 26.4989 229.462 21.7088 226.331 17.608" fill="#F2F2F2"/>
<path d="M241.655 20.5099C241.851 19.1685 243.747 18.6525 244.971 19.2861C246.195 19.9197 246.86 21.2317 247.414 22.4735C247.968 23.7152 248.55 25.0435 249.701 25.7955C250.957 26.6156 252.723 26.6252 253.733 27.7232C254.909 29.0017 254.421 31.0492 253.542 32.5388C252.048 35.047 249.704 36.9632 246.916 37.9538C247.107 35.4397 246.716 32.9156 245.77 30.5707C244.396 27.1749 241.856 24.1195 241.615 20.4747" fill="#F2F2F2"/>
<path d="M220.449 22.0378V22.1322C219.185 21.3912 217.767 20.7681 216.591 20.7681C215.376 20.7681 213.649 24.0627 212.053 27.8812C211.298 29.3078 210.671 30.7954 210.177 32.3275C210.013 32.7853 209.854 33.2479 209.69 33.7057C209.283 33.7476 208.874 33.7681 208.465 33.7671C206.095 33.7671 203.778 33.0792 201.807 31.7904C199.837 30.5015 198.301 28.6697 197.394 26.5264C196.487 24.3832 196.25 22.0248 196.712 19.7496C197.174 17.4743 198.316 15.3843 199.992 13.744C201.667 12.1036 203.803 10.9865 206.127 10.5339C208.452 10.0814 210.861 10.3136 213.051 11.2014C215.241 12.0892 217.112 13.5925 218.429 15.5214C219.746 17.4503 220.449 19.718 220.449 22.0378Z" fill="#E6E6E6"/>
<path d="M208.137 39.4998L207.675 39.3624C207.695 39.2998 209.652 33.0188 211.83 27.7919C214.55 21.2846 215.85 20.5321 216.591 20.5321C217.652 20.5321 218.992 21.0023 220.573 21.9299C221.776 22.6497 222.917 23.4651 223.985 24.3678L223.664 24.7204C222.62 23.8371 221.503 23.0392 220.325 22.3348C218.841 21.4641 217.55 21.0041 216.591 21.0041C216.067 21.0041 214.81 21.9092 212.276 27.9705C210.107 33.1764 208.156 39.4371 208.137 39.4998Z" fill="#E6E6E6"/>
<path d="M247.934 51.6871L234.889 16.6526C234.643 15.9937 234.251 15.3965 233.741 14.9042C233.231 14.412 232.615 14.037 231.938 13.8066C231.261 13.5761 230.541 13.4959 229.829 13.5718C229.116 13.6477 228.43 13.8778 227.82 14.2454L220.575 18.6091L220.322 18.2071L227.567 13.8434C228.238 13.4392 228.993 13.1861 229.776 13.1027C230.56 13.0192 231.352 13.1074 232.096 13.3608C232.841 13.6142 233.518 14.0266 234.079 14.568C234.641 15.1093 235.072 15.7662 235.342 16.4908L248.387 51.5258L247.934 51.6871Z" fill="#E6E6E6"/>
<path d="M260.263 35.6381L248.018 18.4745C247.614 17.9089 247.081 17.4431 246.462 17.1143C245.842 16.7854 245.153 16.6025 244.448 16.58C243.744 16.5575 243.044 16.6962 242.404 16.9849C241.763 17.2736 241.201 17.7044 240.76 18.2431L238.962 20.4436L238.585 20.1486L240.384 17.9481C240.871 17.3521 241.493 16.8755 242.202 16.5561C242.91 16.2367 243.685 16.0834 244.464 16.1082C245.244 16.1331 246.006 16.3355 246.692 16.6994C247.377 17.0633 247.967 17.5786 248.413 18.2044L260.658 35.368L260.263 35.6381Z" fill="#E6E6E6"/>
<path d="M36.0196 260.272C32.5371 260.573 29.0301 260.108 25.7546 258.912C22.4792 257.716 19.518 255.819 17.0874 253.36C13.9093 250.08 11.7283 245.858 9.61904 241.776C9.00505 240.588 8.3704 239.359 7.72473 238.182C7.00488 236.898 6.6942 235.433 6.83272 233.975C6.97125 232.517 7.55263 231.133 8.50196 230.001C9.41171 228.87 10.6468 228.031 12.048 227.593C13.4492 227.155 14.9524 227.137 16.3638 227.543L16.6716 227.63L19.4416 238.209C19.8549 236.631 20.7419 233.076 21.302 229.592L21.3491 229.301L21.6249 229.421C24.5172 230.673 27.2369 232.278 29.7198 234.195C34.1182 237.649 37.6955 241.998 40.2032 246.941C42.7109 251.884 44.0887 257.302 44.2409 262.819L44.2482 263.148L36.0196 260.272Z" fill="#F2F2F2"/>
<path d="M134.997 263.855L0.574183 264C0.421899 264 0.275848 263.941 0.168167 263.835C0.0604855 263.73 0 263.587 0 263.438C0 263.289 0.0604855 263.146 0.168167 263.041C0.275848 262.935 0.421899 262.876 0.574183 262.876L134.997 262.731C135.149 262.731 135.295 262.79 135.403 262.896C135.511 263.001 135.571 263.144 135.571 263.293C135.571 263.442 135.511 263.585 135.403 263.69C135.295 263.796 135.149 263.855 134.997 263.855Z" fill="#CACACA"/>
</g>
<defs>
<clipPath id="clip0_146_696">
<rect width="274" height="264" fill="white"/>
</clipPath>
</defs>
</svg>
