<svg width="473" height="365" viewBox="0 0 473 365" fill="none" xmlns="http://www.w3.org/2000/svg">
<path d="M299.241 364.072C299.241 364.072 291.991 346.335 313.74 333.033L299.241 364.072Z" fill="#E6E6E6"/>
<path d="M290.324 363.749C290.324 363.749 288.113 351.107 270.996 351.216L290.324 363.749Z" fill="#E6E6E6"/>
<path d="M453.844 364.072C453.844 364.072 444.266 340.639 473 323.065L453.844 364.072Z" fill="#E6E6E6"/>
<path d="M442.065 363.645C442.065 363.645 439.143 346.944 416.529 347.087L442.065 363.645Z" fill="#E6E6E6"/>
<path d="M274.703 101.459L265.244 96.4657L265.952 96.0916L275.411 101.086L274.703 101.459Z" fill="#CBCBCB"/>
<path d="M266.452 101.459L265.745 101.086L275.203 96.0916L275.911 96.4657L266.452 101.459Z" fill="#CBCBCB"/>
<path d="M196.05 62.7517L195.594 63.6371L198.266 64.998L198.722 64.1126L196.05 62.7517Z" fill="#CBCBCB"/>
<path d="M251.451 92.0853L246.133 89.3766L246.589 88.4912L251.908 91.1999L251.451 92.0853ZM240.814 86.6679L235.496 83.959L235.952 83.0736L241.271 85.7825L240.814 86.6679ZM230.177 81.2503L224.859 78.5416L225.315 77.6562L230.634 80.3649L230.177 81.2503ZM219.54 75.8328L214.221 73.1242L214.678 72.2387L219.996 74.9474L219.54 75.8328ZM208.903 70.4154L203.584 67.7067L204.041 66.8213L209.359 69.53L208.903 70.4154Z" fill="#CBCBCB"/>
<path d="M257.226 93.9087L256.77 94.794L259.442 96.1549L259.899 95.2696L257.226 93.9087Z" fill="#CBCBCB"/>
<path d="M55.4682 129.344C55.4682 129.654 55.4581 129.962 55.4378 130.268C55.3242 132.03 54.8764 133.755 54.1178 135.351C54.1119 135.365 54.105 135.378 54.0992 135.39C54.0639 135.464 54.0276 135.538 53.9904 135.611C53.7648 136.063 53.5145 136.502 53.2407 136.926C51.9899 138.875 50.2755 140.487 48.2491 141.62C46.2226 142.754 43.9464 143.373 41.6217 143.425L41.7619 151.435L43.5896 150.479L43.9159 151.095L41.7756 152.215L42.0373 167.093L42.0402 167.291L40.627 167.604L40.6299 167.404L41.0749 143.426C39.2037 143.399 37.3565 143.003 35.6405 142.261C33.9245 141.519 32.3739 140.446 31.0788 139.103C30.9897 139.012 30.9014 138.917 30.8152 138.824L30.8054 138.813C29.7263 137.643 28.8536 136.301 28.2241 134.843C28.2378 134.858 28.2525 134.873 28.2662 134.889C26.8434 131.582 26.7469 127.859 27.9965 124.484C29.2461 121.109 31.7471 118.337 34.9871 116.735C35.0361 116.711 35.0861 116.687 35.1351 116.663C38.34 115.129 42.0079 114.847 45.4119 115.874C48.8158 116.901 51.7073 119.162 53.5131 122.208C53.5994 122.352 53.6827 122.499 53.763 122.647C54.8848 124.703 55.471 127.005 55.4682 129.344Z" fill="#E5E5E5"/>
<path d="M53.5606 135.398C63.8192 135.398 72.1355 127.132 72.1355 116.937C72.1355 106.741 63.8192 98.4751 53.5606 98.4751C43.3019 98.4751 34.9856 106.741 34.9856 116.937C34.9856 127.132 43.3019 135.398 53.5606 135.398Z" fill="#E5E5E5"/>
<path d="M39.8454 104.606C38.1128 108.634 37.8777 113.143 39.1823 117.328C40.4868 121.512 43.2459 125.099 46.9666 127.448C50.6873 129.797 55.127 130.754 59.4925 130.149C63.858 129.544 67.8648 127.416 70.7968 124.145C69.7384 126.606 68.1542 128.809 66.1542 130.601C64.1541 132.393 61.7859 133.731 59.2137 134.524C56.6415 135.316 53.9268 135.543 51.2576 135.189C48.5883 134.835 46.0285 133.908 43.7554 132.473C41.4823 131.038 39.5502 129.129 38.0931 126.878C36.636 124.627 35.6887 122.089 35.3168 119.438C34.9448 116.787 35.1572 114.088 35.9392 111.527C36.7211 108.966 38.054 106.604 39.8454 104.606Z" fill="black"/>
<path d="M54.5654 168.367L52.6683 167.838L52.6723 167.635L53.2407 136.926L53.2692 135.395L53.2698 135.351L53.5131 122.209V122.208L53.6109 116.937H53.6632L53.763 122.647L53.9867 135.354V135.393L53.9906 135.61L53.9904 135.611L54.5654 168.367Z" fill="#3F3D56"/>
<path d="M56.5658 144.639L53.4953 146.245L53.9232 147.053L56.9938 145.446L56.5658 144.639Z" fill="#3F3D56"/>
<path d="M294.347 57.1888C270.902 55.8112 247.387 56.1705 223.996 58.2636C212.721 59.2765 201.268 60.3705 190.202 62.8147C181.289 64.7834 170.945 68.1109 165.391 75.8611C164.228 77.4227 163.444 79.2305 163.101 81.1432C162.758 83.0559 162.864 85.0216 163.413 86.8866C164.737 91.3047 168.031 94.9822 171.539 97.8626C179.613 104.492 189.631 108.35 198.579 113.617C214.918 123.233 229.871 136.195 239.468 152.66C243.692 159.905 247.709 169.539 243.007 177.523C238.399 185.344 228.115 188.039 219.727 189.309C209.214 190.902 198.385 190.47 187.829 189.578C176.255 188.505 164.746 186.83 153.349 184.559C131.022 180.298 108.898 174.878 86.26 172.413C74.9093 171.086 63.4629 170.757 52.0541 171.43C41.7506 172.12 31.3588 173.74 21.6794 177.433C14.2206 180.278 6.26994 184.583 2.241 191.763C-1.64273 198.683 -0.127954 206.664 4.10094 213.05C9.18917 220.732 17.1235 225.997 25.3727 229.845C34.765 234.226 44.8111 237.066 54.8699 239.481C59.9715 240.706 65.1007 241.814 70.2303 242.915C71.3004 243.145 71.7577 241.511 70.6837 241.281C60.3393 239.059 49.9651 236.83 39.8776 233.614C30.5427 230.638 20.9897 226.826 13.3453 220.577C7.16093 215.522 1.28088 208.137 1.64591 199.742C2.01389 191.278 9.15872 185.369 16.1616 181.731C24.9133 177.186 34.8564 174.971 44.5995 173.814C55.7556 172.579 67.0062 172.426 78.1919 173.36C100.776 175.068 122.856 180.181 144.999 184.641C166.51 188.973 188.693 192.985 210.738 191.874C219.476 191.434 228.839 190.189 236.554 185.806C240.086 183.799 243.271 180.968 245.067 177.285C246.684 173.781 247.195 169.872 246.534 166.073C245.283 157.727 240.295 149.989 235.319 143.342C229.865 136.132 223.537 129.618 216.48 123.946C208.735 117.751 200.383 112.344 191.552 107.806C186.868 105.355 182.119 102.999 177.655 100.16C173.376 97.4387 169.154 94.164 166.541 89.7457C164.281 85.9244 163.866 81.563 166.221 77.6873C168.602 73.7673 172.704 71.0334 176.75 69.0355C186.497 64.222 197.829 62.9335 208.494 61.6132C231.393 58.7881 254.47 57.6445 277.537 58.1917C283.144 58.3228 288.747 58.5535 294.347 58.8838C295.443 58.9479 295.44 57.2527 294.347 57.1888Z" fill="black"/>
<path d="M279.474 2.85453L283.015 0.0394251C280.264 -0.262248 279.134 1.229 278.671 2.40932C276.522 1.52231 274.182 2.68478 274.182 2.68478L281.268 5.24139C280.91 4.29246 280.288 3.46448 279.474 2.85453Z" fill="#3F3D56"/>
<path d="M262.287 11.7667L265.829 8.95156C263.078 8.64989 261.947 10.1411 261.484 11.3214C259.335 10.4344 256.995 11.5969 256.995 11.5969L264.081 14.1535C263.724 13.2046 263.101 12.3766 262.287 11.7667Z" fill="#3F3D56"/>
<path d="M279.474 25.8775L283.015 23.0624C280.264 22.7608 279.134 24.252 278.671 25.4323C276.522 24.5453 274.182 25.7078 274.182 25.7078L281.268 28.2644C280.91 27.3155 280.288 26.4875 279.474 25.8775Z" fill="#3F3D56"/>
<path d="M226.383 30.0483C232.276 30.0483 237.053 25.3006 237.053 19.4439C237.053 13.5872 232.276 8.83939 226.383 8.83939C220.491 8.83939 215.714 13.5872 215.714 19.4439C215.714 25.3006 220.491 30.0483 226.383 30.0483Z" fill="#FF6583"/>
<path d="M259.842 52.1212H207.499C207.433 52.122 207.368 52.1169 207.303 52.1058L232.06 9.48992C232.211 9.22445 232.43 9.0036 232.695 8.84993C232.96 8.69626 233.261 8.61529 233.568 8.61529C233.875 8.61529 234.176 8.69626 234.441 8.84993C234.706 9.0036 234.925 9.22445 235.076 9.48992L259.842 52.1212Z" fill="#FFC916"/>
<path d="M288.983 52.1217H243.712L264.547 22.0405C264.749 21.788 265.002 21.5806 265.291 21.4318C265.579 21.2831 265.895 21.1962 266.219 21.177C266.543 21.1578 266.868 21.2066 267.172 21.3202C267.475 21.4339 267.752 21.6098 267.983 21.8366C268.042 21.9011 268.097 21.9692 268.147 22.0405L288.983 52.1217Z" fill="#FFC916"/>
<path d="M214.306 149.862C219.268 152.326 222.288 155.581 222.288 159.152C222.288 166.843 208.286 173.077 191.013 173.077C183.503 173.077 176.613 171.898 171.222 169.934C176.948 172.778 185.261 174.569 194.516 174.569C211.788 174.569 225.791 168.335 225.791 160.644C225.791 156.297 221.316 152.416 214.306 149.862Z" fill="#F1F1F1"/>
<path d="M225.342 155.145C230.94 157.926 234.349 161.599 234.349 165.627C234.349 174.306 218.548 181.341 199.058 181.341C190.584 181.341 182.81 180.01 176.726 177.793C183.188 181.003 192.568 183.024 203.011 183.024C222.501 183.024 238.301 175.989 238.301 167.311C238.301 162.406 233.251 158.026 225.342 155.145Z" fill="#F1F1F1"/>
<path d="M210.083 152.189C213.578 153.925 215.706 156.218 215.706 158.734C215.706 164.152 205.841 168.545 193.672 168.545C188.931 168.606 184.215 167.857 179.729 166.33C183.763 168.334 189.62 169.596 196.14 169.596C208.309 169.596 218.174 165.203 218.174 159.785C218.174 156.722 215.021 153.988 210.083 152.189Z" fill="#F1F1F1"/>
<path d="M160.971 151.194C160.971 151.194 161.739 162.352 183.757 162.352C205.775 162.352 212.348 151.194 212.348 151.194H160.971Z" fill="#3F3D56"/>
<path d="M192.223 121.918C189.044 119.518 185.055 118.433 181.09 118.891C184.633 119.74 187.762 121.802 189.929 124.716C192.095 127.629 193.159 131.208 192.935 134.824C192.711 138.44 191.212 141.862 188.703 144.489C186.193 147.117 182.833 148.782 179.212 149.192C182.676 150.023 186.322 149.644 189.538 148.117C192.753 146.591 195.342 144.01 196.869 140.81C198.396 137.61 198.767 133.984 197.921 130.544C197.075 127.103 195.063 124.057 192.223 121.918Z" fill="#3F3D56"/>
<path d="M185.008 116.877H183.507V152.393H185.008V116.877Z" fill="#3F3D56"/>
<path d="M283.667 90.4888L283.659 90.4751L283.639 89.6075L288.342 82.821L283.645 88.9582L283.628 89.1416L283.467 82.2049L287.529 75.1687L283.455 80.9863L283.498 66.6152L283.498 66.5673L283.497 66.6144L283.227 77.9407L279.525 73.34L283.215 78.9165L283.134 85.1213L279.727 79.0657L283.121 86.0334L282.943 99.7563C283.257 99.7587 283.567 99.7535 283.875 99.7408L283.661 90.5596L283.667 90.4888Z" fill="#CBCBCB"/>
<path d="M261.149 93.4729L261.141 93.4592L261.121 92.5916L265.824 85.8051L261.126 91.9423L261.109 92.1257L260.949 85.189L265.011 78.1528L260.937 83.9703L260.98 69.5993L260.979 69.5514L260.978 69.5985L260.708 80.9248L257.006 76.3241L260.696 81.9006L260.616 88.1053L257.209 82.0497L260.603 89.0175L260.424 102.74C260.738 102.743 261.049 102.738 261.356 102.725L261.143 93.5437L261.149 93.4729Z" fill="#CBCBCB"/>
<path d="M272.158 84.0232L272.15 84.0095L272.13 83.142L276.833 76.3554L272.135 82.4927L272.118 82.676L271.958 75.7393L276.02 68.7032L271.946 74.5207L271.989 60.1496L271.988 60.1018L271.987 60.1489L271.717 71.4752L268.015 66.8745L271.705 72.451L271.625 78.6557L268.218 72.6001L271.612 79.5679L271.433 93.2908C271.747 93.2932 272.058 93.288 272.365 93.2752L272.152 84.0941L272.158 84.0232Z" fill="#CBCBCB"/>
<path d="M86.1773 249.172C89.4938 249.172 92.1822 246.5 92.1822 243.204C92.1822 239.908 89.4938 237.235 86.1773 237.235C82.8609 237.235 80.1725 239.908 80.1725 243.204C80.1725 246.5 82.8609 249.172 86.1773 249.172Z" fill="#FFC916"/>
<path d="M406.697 353.371L401.138 355.424L390.526 335.089L398.731 332.06L406.697 353.371Z" fill="#FFB7B7"/>
<path d="M410.117 358.203L392.192 364.823L392.108 364.597C391.42 362.758 391.496 360.723 392.318 358.94C393.14 357.156 394.642 355.77 396.492 355.086L407.441 351.044L410.117 358.203Z" fill="#2F2E41"/>
<path d="M351.988 359.109L346.057 359.109L343.236 336.374L351.989 336.374L351.988 359.109Z" fill="#FFB7B7"/>
<path d="M353.017 364.823L333.894 364.822V364.582C333.894 362.62 334.678 360.738 336.074 359.351C337.47 357.964 339.363 357.184 341.337 357.184L353.017 357.185L353.017 364.823Z" fill="#2F2E41"/>
<path d="M379.14 201.431L377.205 197.584L360.758 205.758L361.241 209.123L358.097 213.21C358.097 213.21 352.776 216.095 353.743 225.71L354.711 234.845L355.92 246.624L347.455 275.712L343.101 314.174L339.957 345.185L355.195 344.464L369.223 293.982L393.894 348.31L410.825 343.983L387.605 290.135L384.703 267.538C384.703 267.538 386.638 255.519 377.447 247.345L378.898 243.018V237.686L383.735 212.248L379.14 201.431Z" fill="#2F2E41"/>
<path d="M379.592 256.404L368.95 293.905L369.497 294.058L380.139 256.557L379.592 256.404Z" fill="black"/>
<path d="M378.656 246.624H354.953V249.028H378.656V246.624Z" fill="#3F3D56"/>
<path d="M354.953 250.471C355.487 250.471 355.92 249.394 355.92 248.067C355.92 246.739 355.487 245.663 354.953 245.663C354.418 245.663 353.985 246.739 353.985 248.067C353.985 249.394 354.418 250.471 354.953 250.471Z" fill="#3F3D56"/>
<path d="M371.827 195.213C378.076 191.818 380.372 184.031 376.956 177.821C373.54 171.61 365.706 169.328 359.457 172.723C353.208 176.118 350.912 183.904 354.328 190.115C357.744 196.325 365.578 198.608 371.827 195.213Z" fill="#FFB7B7"/>
<path d="M385.373 179.393C391.673 179.393 396.781 174.317 396.781 168.055C396.781 161.794 391.673 156.718 385.373 156.718C379.073 156.718 373.966 161.794 373.966 168.055C373.966 174.317 379.073 179.393 385.373 179.393Z" fill="#2F2E41"/>
<path d="M399.849 166.841C400.299 168.343 400.431 169.922 400.236 171.477C400.041 173.032 399.524 174.53 398.717 175.877C397.91 177.224 396.831 178.389 395.548 179.301C394.265 180.212 392.806 180.849 391.263 181.171C389.719 181.494 388.126 181.495 386.582 181.174C385.038 180.853 383.578 180.218 382.294 179.308C381.01 178.399 379.93 177.234 379.121 175.889C378.313 174.543 377.794 173.045 377.597 171.49C378.414 174.218 380.234 176.54 382.694 177.996C385.154 179.452 388.075 179.935 390.877 179.35C393.679 178.764 396.157 177.153 397.82 174.836C399.482 172.518 400.206 169.664 399.849 166.841Z" fill="#2F2E41"/>
<path d="M354.784 180.41C354.449 183.34 355.096 186.299 356.625 188.827C358.154 191.355 360.479 193.311 363.239 194.393C366 195.474 369.043 195.62 371.896 194.809C374.749 193.997 377.253 192.273 379.02 189.904C380.787 187.534 381.719 184.652 381.67 181.703C381.622 178.754 380.596 175.903 378.752 173.592C376.908 171.281 374.349 169.639 371.47 168.921C368.592 168.202 365.556 168.448 362.832 169.618C360.579 167.812 357.787 168.372 355.516 170.278C352.948 172.432 352.186 173.913 350.195 177.456C352.153 177.729 352.826 180.136 354.784 180.41Z" fill="#2F2E41"/>
<path d="M402.181 218.95C402.037 222.748 401.751 230.224 401.751 230.605C401.751 231.007 396.049 242.742 393.585 247.792V247.795C393.41 248.151 393.253 248.473 393.114 248.758C392.923 249.15 392.624 249.479 392.251 249.707C391.877 249.935 391.446 250.051 391.009 250.043L380.243 249.851C379.651 249.841 379.086 249.604 378.666 249.19C378.246 248.776 378.003 248.216 377.988 247.628L376.787 200.554C376.783 200.399 376.811 200.244 376.868 200.1C376.925 199.955 377.01 199.824 377.119 199.712C377.228 199.601 377.359 199.513 377.502 199.452C377.646 199.392 377.801 199.361 377.957 199.361H391.841C392.427 199.361 393.002 199.525 393.499 199.835C393.995 200.145 394.394 200.588 394.65 201.112L401.313 214.814C401.938 216.101 402.236 217.521 402.181 218.95Z" fill="#FFC916"/>
<path d="M377.801 244.398C375.038 242.734 372.556 240.649 370.445 238.219C365.539 232.736 362.556 225.819 361.943 218.507C361.396 212.251 362.644 207.6 365.655 204.685C369.482 200.979 374.691 201.518 374.911 201.542L375.144 201.569L378.673 204.536L377.674 205.709L374.517 203.054C373.55 203.006 369.604 202.995 366.722 205.798C364.068 208.377 362.979 212.608 363.483 218.374C364.067 225.336 366.9 231.923 371.56 237.153C373.571 239.464 375.927 241.454 378.547 243.052L377.801 244.398Z" fill="#FFC916"/>
<path d="M397.834 226.514L379.023 230.353L379.127 230.855L397.938 227.015L397.834 226.514Z" fill="#3F3D56"/>
<path d="M385.436 199.35L384.921 199.371L386.143 229.12L386.658 229.099L385.436 199.35Z" fill="#3F3D56"/>
<path d="M402.181 218.95C402.037 222.748 401.751 230.224 401.751 230.605C401.751 231.007 396.049 242.742 393.585 247.792L398.177 221.293C398.355 220.274 398.802 219.319 399.472 218.528C400.143 217.736 401.013 217.136 401.993 216.788C402.148 217.498 402.211 218.224 402.181 218.95Z" fill="#3F3D56"/>
<path d="M373.97 274.484C374.376 273.964 374.663 273.361 374.81 272.718C374.956 272.075 374.96 271.408 374.819 270.764C374.678 270.12 374.397 269.514 373.996 268.99C373.594 268.466 373.082 268.035 372.494 267.729L373.428 257.468L367.292 255.384L366.179 269.892C365.727 270.906 365.665 272.051 366.004 273.108C366.344 274.165 367.062 275.061 368.022 275.627C368.982 276.193 370.118 276.39 371.214 276.179C372.311 275.968 373.291 275.365 373.97 274.484Z" fill="#FFB7B7"/>
<path d="M374.771 264.556L363.9 264.164L364.36 212.057C364.352 210.583 364.811 209.143 365.671 207.942C366.531 206.74 367.75 205.838 369.154 205.363C370.466 204.929 371.884 204.928 373.198 205.359C374.687 205.86 375.966 206.84 376.833 208.143C377.7 209.447 378.105 211.001 377.985 212.559L374.771 264.556Z" fill="#CBCBCB"/>
<path d="M470.142 365H253.547C253.396 365 253.252 364.94 253.145 364.835C253.038 364.729 252.979 364.585 252.979 364.435C252.979 364.285 253.038 364.141 253.145 364.035C253.252 363.93 253.396 363.87 253.547 363.87H470.142C470.293 363.87 470.437 363.93 470.544 364.035C470.651 364.141 470.71 364.285 470.71 364.435C470.71 364.585 470.651 364.729 470.544 364.835C470.437 364.94 470.293 365 470.142 365Z" fill="#CBCBCB"/>
</svg>
