<svg width="24" height="24" viewBox="0 0 24 24" fill="none" xmlns="http://www.w3.org/2000/svg">
<mask id="mask0_438_1013" style="mask-type:alpha" maskUnits="userSpaceOnUse" x="0" y="0" width="24" height="24">
<rect width="24" height="24" fill="#D9D9D9"/>
</mask>
<g mask="url(#mask0_438_1013)">
<path d="M10.4534 11.9997L14.5265 16.0728C14.6649 16.2112 14.7358 16.3852 14.739 16.5949C14.7422 16.8045 14.6713 16.9817 14.5265 17.1266C14.3816 17.2714 14.206 17.3439 13.9996 17.3439C13.7932 17.3439 13.6175 17.2714 13.4727 17.1266L8.97843 12.6323C8.88483 12.5388 8.81881 12.44 8.78036 12.3362C8.74189 12.2324 8.72266 12.1202 8.72266 11.9997C8.72266 11.8791 8.74189 11.767 8.78036 11.6631C8.81881 11.5593 8.88483 11.4606 8.97843 11.367L13.4727 6.87276C13.6111 6.73429 13.7851 6.66346 13.9948 6.66026C14.2044 6.65704 14.3816 6.72788 14.5265 6.87276C14.6713 7.01763 14.7438 7.19326 14.7438 7.39966C14.7438 7.60606 14.6713 7.78169 14.5265 7.92656L10.4534 11.9997Z" fill="black"/>
</g>
</svg>
