<svg width="20" height="20" viewBox="0 0 20 20" fill="none" xmlns="http://www.w3.org/2000/svg">
<mask id="mask0_428_1915" style="mask-type:alpha" maskUnits="userSpaceOnUse" x="0" y="0" width="20" height="20">
<rect width="20" height="20" fill="#D9D9D9"/>
</mask>
<g mask="url(#mask0_428_1915)">
<path d="M11.4517 10L7.74655 6.29487C7.66856 6.21689 7.6269 6.13863 7.62155 6.0601C7.6162 5.98158 7.65787 5.89797 7.74655 5.80929C7.83523 5.72061 7.91616 5.67627 7.98934 5.67627C8.06252 5.67627 8.1458 5.72296 8.23917 5.81635L12.0142 9.59135C12.0729 9.65566 12.117 9.72088 12.1464 9.78702C12.1758 9.85314 12.1905 9.92553 12.1905 10.0042C12.1905 10.0828 12.1758 10.1552 12.1464 10.2213C12.117 10.2874 12.0729 10.3499 12.0142 10.4086L8.23917 14.1836C8.15649 14.2663 8.07936 14.3069 8.00778 14.3053C7.9362 14.3037 7.85606 14.2586 7.76738 14.1699C7.6787 14.0812 7.63436 14.0003 7.63436 13.9271C7.63436 13.8539 7.6787 13.773 7.76738 13.6843L11.4517 10Z" fill="#1C1B1F"/>
</g>
</svg>
