<svg width="12" height="9" viewBox="0 0 12 9" fill="none" xmlns="http://www.w3.org/2000/svg">
<path d="M3.99944 7.28142L10.2725 0.998715C10.4104 0.860249 10.5651 0.791016 10.7365 0.791016C10.908 0.791016 11.0629 0.860015 11.2013 0.998015C11.3398 1.13601 11.409 1.29082 11.409 1.46244C11.409 1.63404 11.3398 1.78906 11.2013 1.92751L4.55712 8.56214C4.39302 8.72624 4.20296 8.80829 3.98694 8.80829C3.77093 8.80829 3.58087 8.72624 3.41677 8.56214L0.797544 5.95252C0.659077 5.81463 0.589844 5.65997 0.589844 5.48854C0.589844 5.31711 0.658844 5.16217 0.796844 5.02372C0.934844 4.88525 1.08965 4.81602 1.26127 4.81602C1.43287 4.81602 1.58789 4.88525 1.72634 5.02372L3.99944 7.28142Z" fill="#1C1B1F"/>
</svg>
