<svg width="32" height="32" viewBox="0 0 32 32" fill="none" xmlns="http://www.w3.org/2000/svg">
<mask id="mask0_428_2693" style="mask-type:alpha" maskUnits="userSpaceOnUse" x="0" y="0" width="32" height="32">
<rect width="32" height="32" fill="#D9D9D9"/>
</mask>
<g mask="url(#mask0_428_2693)">
<path d="M15.9997 27.6665C15.7162 27.6665 15.4788 27.5707 15.2873 27.379C15.0959 27.1874 15.0002 26.9499 15.0002 26.6666V21.3332C15.0002 21.0499 15.096 20.8124 15.2878 20.6208C15.4795 20.4291 15.7171 20.3333 16.0006 20.3333C16.284 20.3333 16.5215 20.4291 16.7129 20.6208C16.9044 20.8124 17.0001 21.0499 17.0001 21.3332V22.9999H26.6668C26.9501 22.9999 27.1876 23.0958 27.3793 23.2875C27.5709 23.4793 27.6668 23.7169 27.6668 24.0003C27.6668 24.2838 27.5709 24.5212 27.3793 24.7127C27.1876 24.9041 26.9501 24.9999 26.6668 24.9999H17.0001V26.6666C17.0001 26.9499 16.9042 27.1874 16.7125 27.379C16.5207 27.5707 16.2831 27.6665 15.9997 27.6665ZM5.33346 24.9999C5.05013 24.9999 4.81264 24.904 4.621 24.7123C4.42933 24.5205 4.3335 24.2829 4.3335 23.9995C4.3335 23.716 4.42933 23.4785 4.621 23.2871C4.81264 23.0956 5.05013 22.9999 5.33346 22.9999H10.6668C10.9501 22.9999 11.1876 23.0958 11.3793 23.2875C11.5709 23.4793 11.6668 23.7169 11.6668 24.0003C11.6668 24.2838 11.5709 24.5212 11.3793 24.7127C11.1876 24.9041 10.9501 24.9999 10.6668 24.9999H5.33346ZM10.6664 19.6665C10.3829 19.6665 10.1454 19.5707 9.954 19.379C9.76255 19.1874 9.66683 18.9499 9.66683 18.6666V16.9999H5.33346C5.05013 16.9999 4.81264 16.904 4.621 16.7123C4.42933 16.5205 4.3335 16.2829 4.3335 15.9995C4.3335 15.716 4.42933 15.4785 4.621 15.2871C4.81264 15.0956 5.05013 14.9999 5.33346 14.9999H9.66683V13.3332C9.66683 13.0499 9.7627 12.8124 9.95443 12.6207C10.1462 12.4291 10.3838 12.3333 10.6672 12.3333C10.9507 12.3333 11.1882 12.4291 11.3796 12.6207C11.571 12.8124 11.6668 13.0499 11.6668 13.3332V18.6666C11.6668 18.9499 11.5709 19.1874 11.3792 19.379C11.1874 19.5707 10.9498 19.6665 10.6664 19.6665ZM16.0001 16.9999C15.7168 16.9999 15.4793 16.904 15.2877 16.7123C15.096 16.5205 15.0002 16.2829 15.0002 15.9995C15.0002 15.716 15.096 15.4785 15.2877 15.2871C15.4793 15.0956 15.7168 14.9999 16.0001 14.9999H26.6668C26.9501 14.9999 27.1876 15.0958 27.3793 15.2875C27.5709 15.4793 27.6668 15.7169 27.6668 16.0003C27.6668 16.2838 27.5709 16.5212 27.3793 16.7127C27.1876 16.9041 26.9501 16.9999 26.6668 16.9999H16.0001ZM21.333 11.6665C21.0496 11.6665 20.8121 11.5707 20.6207 11.3791C20.4292 11.1874 20.3335 10.9499 20.3335 10.6666V5.33322C20.3335 5.04989 20.4294 4.81239 20.6211 4.62072C20.8129 4.42907 21.0505 4.33325 21.3339 4.33325C21.6174 4.33325 21.8548 4.42907 22.0463 4.62072C22.2377 4.81239 22.3334 5.04989 22.3334 5.33322V6.99992H26.6668C26.9501 6.99992 27.1876 7.09579 27.3793 7.28752C27.5709 7.47928 27.6668 7.71688 27.6668 8.00032C27.6668 8.28379 27.5709 8.52124 27.3793 8.71269C27.1876 8.90413 26.9501 8.99985 26.6668 8.99985H22.3334V10.6666C22.3334 10.9499 22.2376 11.1874 22.0458 11.3791C21.8541 11.5707 21.6165 11.6665 21.333 11.6665ZM5.33346 8.99985C5.05013 8.99985 4.81264 8.90399 4.621 8.71225C4.42933 8.5205 4.3335 8.2829 4.3335 7.99945C4.3335 7.71599 4.42933 7.47853 4.621 7.28709C4.81264 7.09564 5.05013 6.99992 5.33346 6.99992H16.0001C16.2835 6.99992 16.521 7.09579 16.7126 7.28752C16.9043 7.47928 17.0001 7.71688 17.0001 8.00032C17.0001 8.28379 16.9043 8.52124 16.7126 8.71269C16.521 8.90413 16.2835 8.99985 16.0001 8.99985H5.33346Z" fill="#1C1B1F"/>
</g>
</svg>
