<svg width="26" height="26" viewBox="0 0 26 26" fill="none" xmlns="http://www.w3.org/2000/svg">
<path d="M7.19458 1H3.52632C2.13107 1 1 2.13107 1 3.52632C1 15.3859 10.6141 25 22.4737 25C23.8689 25 25 23.8689 25 22.4737V18.8054C25 17.715 24.3361 16.7345 23.3237 16.3295L19.8095 14.9238C18.9001 14.56 17.8644 14.7241 17.112 15.3511L16.2041 16.1077C15.1446 16.9906 13.5866 16.9199 12.6114 15.9447L10.0553 13.3886C9.08006 12.4134 9.00939 10.8554 9.89233 9.79587L10.6489 8.88804C11.2759 8.13558 11.44 7.09993 11.0762 6.19051L9.67052 2.67629C9.26555 1.66387 8.28499 1 7.19458 1Z" stroke="black" stroke-width="2" stroke-linecap="round" stroke-linejoin="round"/>
</svg>
