<svg width="284" height="216" viewBox="0 0 284 216" fill="none" xmlns="http://www.w3.org/2000/svg">
<g clip-path="url(#clip0_169_2158)">
<path d="M170.353 20.8348C173.814 26.8095 167.298 36.8766 173.865 38.967L173.324 38.4248C169.36 33.538 177.645 23.1947 173.681 18.3078C173.065 17.591 172.536 16.8033 172.106 15.9614" fill="#2F2E41"/>
<path d="M137.949 108.488C137.836 107.89 137.854 107.275 138.004 106.685C138.153 106.095 138.43 105.545 138.815 105.074C139.199 104.603 139.682 104.222 140.229 103.959C140.776 103.695 141.375 103.555 141.982 103.548L150.535 78.6409L155.269 84.6893L146.226 107.962C146.17 108.985 145.742 109.952 145.022 110.68C144.302 111.407 143.341 111.845 142.321 111.91C141.301 111.975 140.292 111.662 139.486 111.032C138.681 110.401 138.134 109.496 137.949 108.488Z" fill="#FFB8B8"/>
<path d="M175.545 48.3535C175.545 48.3535 175.811 39.3376 167.768 44.5024C159.724 49.6673 142.211 98.0496 142.211 98.0496L150.926 102.776L170.711 58.5006L175.545 48.3535Z" fill="#FFC916"/>
<path d="M151.814 202.881L155.831 204.601L164.363 189.891L158.434 187.352L151.814 202.881Z" fill="#FFB6B6"/>
<path d="M146.721 208.948L149.601 210.182L151.277 207.676L151.432 210.966L159.072 214.238C159.438 214.395 159.844 214.43 160.232 214.339C160.62 214.248 160.968 214.035 161.227 213.731C161.485 213.428 161.64 213.049 161.668 212.651C161.697 212.253 161.598 211.856 161.385 211.518L157.085 204.682L158.26 201.926L151.679 199.562L146.721 208.948Z" fill="#2F2E41"/>
<path d="M214.778 207.87L219.141 207.657L220.395 190.688L213.955 191.004L214.778 207.87Z" fill="#FFB6B6"/>
<path d="M212.845 215.56L215.974 215.406L216.388 212.418L217.962 215.309L226.26 214.902C226.658 214.883 227.039 214.737 227.348 214.485C227.657 214.233 227.877 213.888 227.977 213.502C228.077 213.116 228.051 212.707 227.903 212.337C227.755 211.966 227.492 211.653 227.154 211.442L220.304 207.18L220.158 204.187L213.208 204.945L212.845 215.56Z" fill="#2F2E41"/>
<path d="M86.2356 205.167C85.9466 205.177 85.6614 205.099 85.4185 204.941C85.1757 204.784 84.987 204.555 84.878 204.287C84.769 204.018 84.745 203.723 84.8091 203.44C84.8733 203.158 85.0226 202.902 85.2368 202.707C85.2737 202.566 85.3002 202.464 85.3371 202.323C85.0674 201.616 84.5933 201.007 83.9756 200.572C83.3579 200.137 82.6248 199.897 81.8702 199.883C81.1156 199.869 80.374 200.081 79.7403 200.491C79.1066 200.902 78.6098 201.494 78.3136 202.189C76.6049 206.095 74.4032 210.133 75.438 214.463C68.4756 199.3 71.0705 180.546 81.6945 167.737C84.6124 166.162 86.9922 163.337 87.6361 160.037C86.1949 160.511 84.4149 159.323 85.5094 157.816C85.9831 157.241 86.4613 156.67 86.935 156.095C81.5333 150.218 74.9443 159.311 80.8762 167.231C78.8878 169.681 77.1605 172.333 75.7223 175.144C76.0767 172.148 75.7166 169.111 74.6714 166.282C73.61 163.645 71.5948 161.413 69.8232 159.125C67.6692 156.337 63.1698 157.571 62.8431 161.08C64.8489 161.762 65.0826 164.677 62.7772 165.054C63.318 171.592 67.5187 177.636 73.3556 180.557C71.1322 186.627 70.225 193.102 70.6945 199.551C69.7309 192.01 61.6833 190.105 56.0747 187.059C55.7181 186.825 55.3012 186.7 54.875 186.699C54.4488 186.698 54.0315 186.822 53.6742 187.055C53.317 187.288 53.035 187.62 52.8629 188.011C52.6907 188.402 52.6357 188.834 52.7046 189.256C53.4797 189.58 54.2206 189.981 54.9165 190.453C55.2426 190.677 55.4915 190.997 55.6291 191.368C55.7667 191.74 55.7862 192.145 55.685 192.528C55.5838 192.912 55.3669 193.254 55.0639 193.509C54.7609 193.764 54.3868 193.918 53.9927 193.952C56.7672 201.027 64.0685 205.831 71.6138 205.876C72.3088 209.041 73.3302 212.125 74.6614 215.079L85.8598 215.186C85.9011 215.061 85.9385 214.933 85.9758 214.809C84.9386 214.864 83.8986 214.792 82.8789 214.594C85.6522 211.366 87.7885 209.725 86.2356 205.167Z" fill="#F2F2F2"/>
<path d="M203.757 97.5697C203.757 97.5697 212.629 121.804 212.772 124.516C212.916 127.228 215.446 161.522 217.568 163.515C219.69 165.507 226.177 196.4 221.129 198.816C216.082 201.233 200.156 197.23 200.156 197.23L194.616 160.738L192.734 132.781C192.734 132.781 187.004 198.615 176.612 198.422C166.22 198.228 153.557 194.261 153.557 194.261L168.102 154.392C168.102 154.392 167.897 107.191 171.268 97.671C174.64 88.1509 203.757 97.5697 203.757 97.5697Z" fill="#2F2E41"/>
<path d="M177.432 35.1331L189.313 36.2239L191.227 42.1132C191.227 42.1132 201.171 47.5866 198.969 50.0732C196.767 52.5598 199.461 69.3171 199.461 69.3171L198.853 82.9193C198.853 82.9193 199.506 92.3432 201.462 94.5145C203.418 96.6858 208.536 102.01 204.92 99.4629C192.242 90.5313 170.081 98.0676 170.081 98.0676L173.247 78.6319C173.247 78.6319 166.056 46.8109 168.894 44.1234C171.731 41.436 174.409 41.0964 174.409 41.0964L177.432 35.1331Z" fill="#FFC916"/>
<path d="M239.863 96.7833C239.266 96.6719 238.701 96.4306 238.207 96.0766C237.713 95.7225 237.303 95.2642 237.005 94.7339C236.707 94.2037 236.528 93.6144 236.482 93.0075C236.436 92.4007 236.523 91.7911 236.737 91.2216L216.698 74.1807L224.041 71.959L242.383 88.8635C243.313 89.2876 244.056 90.0392 244.471 90.9758C244.886 91.9124 244.943 92.9689 244.633 93.9451C244.322 94.9214 243.665 95.7495 242.786 96.2726C241.907 96.7957 240.867 96.9774 239.863 96.7833Z" fill="#FFB8B8"/>
<path d="M188.971 52.2089C188.971 52.2089 185.022 44.1036 194.475 45.4881C203.927 46.8727 239.771 83.726 239.771 83.726L233.773 91.6315L197.546 59.4585L188.971 52.2089Z" fill="#FFC916"/>
<path d="M204.363 38.4605L241.84 86.5842C242.488 87.4195 242.779 88.4782 242.65 89.5286C242.521 90.5789 241.982 91.535 241.151 92.1875C232.448 113.368 206.411 129.074 175.782 143.331C174.949 143.981 173.893 144.274 172.845 144.144C171.797 144.015 170.843 143.474 170.192 142.64L132.716 94.5163C132.067 93.6813 131.775 92.6223 131.904 91.5718C132.033 90.5213 132.573 89.565 133.405 88.913C159.108 74.3655 181.2 57.511 198.773 37.7699C199.606 37.1201 200.663 36.8279 201.711 36.9573C202.759 37.0868 203.712 37.6273 204.363 38.4605Z" fill="#E6E6E6"/>
<path d="M135.346 93.4214L146.754 108.07C153.722 116.964 163.918 122.733 175.116 124.116C186.314 125.499 197.603 122.385 206.517 115.452L238.486 90.4405C238.959 90.0698 239.267 89.526 239.341 88.9284C239.415 88.3307 239.249 87.728 238.881 87.2525L202.667 40.7504C202.297 40.2764 201.754 39.9692 201.157 39.8961C200.561 39.823 199.96 39.99 199.486 40.3605C183.315 61.2913 161.668 77.5795 135.738 90.236C135.265 90.6068 134.958 91.1503 134.885 91.7475C134.812 92.3447 134.977 92.9466 135.346 93.4214Z" fill="white"/>
<path d="M205.111 64.7315L212.54 74.2713C212.737 74.524 213.026 74.6879 213.344 74.727C213.662 74.7661 213.982 74.6771 214.234 74.4798C214.486 74.2824 214.65 73.9927 214.689 73.6744C214.729 73.356 214.64 73.035 214.444 72.782L207.015 63.2422C206.917 63.1167 206.796 63.0118 206.658 62.9333C206.52 62.8549 206.368 62.8044 206.21 62.7849C206.053 62.7654 205.893 62.7772 205.74 62.8196C205.587 62.8619 205.444 62.9341 205.319 63.032C205.194 63.1298 205.09 63.2514 205.011 63.3898C204.933 63.5282 204.883 63.6806 204.864 63.8385C204.844 63.9963 204.856 64.1564 204.899 64.3096C204.941 64.4628 205.013 64.6062 205.111 64.7315Z" fill="#CCCCCC"/>
<path d="M191.176 57.6551L207.491 78.6053C207.589 78.7306 207.71 78.8354 207.848 78.9137C207.986 78.992 208.138 79.0423 208.295 79.0618C208.453 79.0812 208.612 79.0694 208.765 79.027C208.918 78.9846 209.061 78.9124 209.186 78.8146C209.311 78.7168 209.415 78.5954 209.494 78.4571C209.572 78.3188 209.622 78.1664 209.641 78.0087C209.661 77.8509 209.649 77.6909 209.607 77.5378C209.564 77.3846 209.492 77.2413 209.395 77.116L193.08 56.1658C192.982 56.0402 192.861 55.9351 192.723 55.8565C192.585 55.7779 192.433 55.7274 192.275 55.7078C192.118 55.6882 191.958 55.7 191.805 55.7423C191.652 55.7847 191.509 55.8569 191.384 55.9548C191.259 56.0527 191.154 56.1744 191.076 56.3129C190.998 56.4513 190.948 56.6039 190.928 56.7618C190.909 56.9197 190.921 57.0799 190.964 57.2332C191.006 57.3864 191.078 57.5298 191.176 57.6551Z" fill="#CCCCCC"/>
<path d="M219.002 92.5998C214.61 92.5998 211.049 89.0311 211.049 84.6288C211.049 80.2265 214.61 76.6578 219.002 76.6578C223.394 76.6578 226.954 80.2265 226.954 84.6288C226.954 89.0311 223.394 92.5998 219.002 92.5998Z" fill="#FFC916"/>
<path d="M190.31 74.2128L210.348 99.9439C210.557 100.157 210.837 100.286 211.135 100.306C211.433 100.326 211.728 100.235 211.963 100.051C212.198 99.8666 212.358 99.6021 212.411 99.3078C212.464 99.0134 212.407 98.7098 212.252 98.4546L192.214 72.7235C192.004 72.5101 191.724 72.3812 191.427 72.3615C191.129 72.3418 190.834 72.4327 190.599 72.6168C190.364 72.8008 190.204 73.0652 190.151 73.3596C190.098 73.6539 190.154 73.9576 190.31 74.2128Z" fill="#CCCCCC"/>
<path d="M177.311 68.3379L205.279 104.252C205.488 104.466 205.768 104.595 206.066 104.614C206.364 104.634 206.659 104.543 206.894 104.359C207.129 104.175 207.289 103.911 207.342 103.616C207.395 103.322 207.338 103.018 207.183 102.763L179.215 66.8486C179.005 66.6352 178.725 66.5063 178.427 66.4867C178.13 66.467 177.835 66.5578 177.6 66.7419C177.364 66.926 177.205 67.1904 177.152 67.4847C177.098 67.7791 177.155 68.0828 177.311 68.3379Z" fill="#CCCCCC"/>
<path d="M177.408 84.307L197.446 110.038C197.655 110.252 197.935 110.38 198.233 110.4C198.531 110.42 198.826 110.329 199.061 110.145C199.296 109.961 199.456 109.696 199.509 109.402C199.562 109.108 199.505 108.804 199.35 108.549L179.312 82.8178C179.103 82.6043 178.822 82.4755 178.525 82.4558C178.227 82.4361 177.932 82.527 177.697 82.711C177.462 82.8951 177.302 83.1595 177.249 83.4539C177.196 83.7482 177.252 84.0519 177.408 84.307Z" fill="#CCCCCC"/>
<path d="M150.895 87.4802L170.932 113.211C171.142 113.425 171.422 113.554 171.72 113.573C172.017 113.593 172.312 113.502 172.547 113.318C172.783 113.134 172.942 112.87 172.995 112.575C173.048 112.281 172.992 111.977 172.836 111.722L152.798 85.991C152.589 85.7775 152.309 85.6487 152.011 85.629C151.713 85.6093 151.419 85.7001 151.183 85.8842C150.948 86.0683 150.789 86.3327 150.735 86.627C150.682 86.9214 150.739 87.2251 150.895 87.4802Z" fill="#FFC916"/>
<path d="M164.409 78.4322L192.377 114.347C192.586 114.56 192.866 114.689 193.164 114.709C193.462 114.728 193.757 114.637 193.992 114.453C194.227 114.269 194.387 114.005 194.44 113.71C194.493 113.416 194.436 113.112 194.281 112.857L166.313 76.9429C166.103 76.7295 165.823 76.6006 165.525 76.5809C165.228 76.5613 164.933 76.6521 164.698 76.8362C164.463 77.0202 164.303 77.2847 164.25 77.579C164.197 77.8734 164.253 78.1771 164.409 78.4322Z" fill="#CCCCCC"/>
<path d="M197.352 19.9291C197.352 21.8654 196.879 23.7722 195.973 25.4823C195.066 27.1923 193.755 28.6533 192.154 29.7369C190.553 30.8205 188.711 31.4936 186.79 31.6971C184.869 31.9006 182.928 31.6284 181.136 30.9042C179.345 30.1801 177.758 29.0261 176.515 27.5438C175.272 26.0614 174.411 24.2959 174.008 22.4022C173.605 20.5085 173.672 18.5446 174.203 16.6829C174.733 14.8211 175.712 13.1184 177.053 11.7243L177.109 11.6676C177.204 11.5682 177.298 11.4688 177.397 11.3742C177.398 11.3742 177.399 11.3741 177.399 11.3738C177.4 11.3736 177.4 11.3732 177.401 11.3728C177.401 11.3724 177.401 11.3718 177.402 11.3712C177.402 11.3707 177.402 11.37 177.402 11.3694C177.525 11.2559 177.647 11.1423 177.775 11.0335C179.48 9.5349 181.58 8.56071 183.824 8.22756C186.067 7.8944 188.359 8.2164 190.425 9.15499C192.49 10.0936 194.242 11.609 195.471 13.5198C196.699 15.4306 197.352 17.6558 197.352 19.9291Z" fill="#2F2E41"/>
<path d="M182.642 32.5853C177.177 32.5853 172.746 28.1443 172.746 22.666C172.746 17.1877 177.177 12.7467 182.642 12.7467C188.108 12.7467 192.538 17.1877 192.538 22.666C192.538 28.1443 188.108 32.5853 182.642 32.5853Z" fill="#FFB8B8"/>
<path d="M193.192 25.3095C194.159 20.9401 192.761 16.045 189.713 13.128C188.18 11.6899 186.273 10.7145 184.212 10.314C182.15 9.91353 180.018 10.1041 178.06 10.8639C177.811 10.9646 177.562 11.0749 177.318 11.1899L177.204 11.2435V11.2602C177.182 11.2755 177.16 11.2916 177.138 11.3078C177.092 11.3512 177.036 11.3823 176.974 11.3983C176.115 11.3757 175.261 11.5355 174.467 11.867C173.674 12.1985 172.959 12.6943 172.371 13.3219C170.837 14.99 170.115 17.6858 170.336 20.9126L170.343 21.0135L170.429 21.0672C171.59 21.8048 172.795 22.4707 174.037 23.0613C178.381 25.1088 182.348 25.4882 186.16 24.2196L186.229 24.1964L187.829 21.5087C188.158 23.3624 187.982 29.511 189.867 29.8441L193.151 25.4948L193.192 25.3095Z" fill="#2F2E41"/>
<path d="M214.024 33.9461C210.657 32.2038 214.988 25.8805 214.118 22.1834C213.247 18.4863 206.98 17.2972 206.581 13.5197C206.181 9.74221 205.242 5.84613 202.755 2.97975C201.166 1.14814 198.825 -0.204025 196.414 0.0253968C195.598 0.103018 194.809 0.35594 194.099 0.766934C193.39 1.17793 192.777 1.73735 192.303 2.40707C191.829 3.0768 191.504 3.84111 191.351 4.64794C191.198 5.45478 191.22 6.28518 191.416 7.0826C190.73 6.10773 188.954 6.31902 188.514 7.42789C188.123 8.41368 188.987 9.60774 190.003 9.69496C191.333 11.3411 192.856 13.088 194.939 13.4201C195.271 13.4965 195.616 13.4963 195.948 13.4195C196.279 13.3427 196.59 13.1914 196.854 12.9769C197.345 12.5051 197.383 11.5619 196.801 11.2093C199.419 12.2517 200.954 15.0891 201.343 17.8859C201.731 20.6827 201.194 23.5125 200.84 26.3138C200.486 29.1152 200.333 32.062 201.429 34.6635C202.724 37.737 205.705 39.9399 208.958 40.6464C212.211 41.3528 215.675 40.6624 218.62 39.1068C221.565 37.5511 224.02 35.1762 226.026 32.5137C222.571 34.973 217.79 35.8944 214.024 33.9461Z" fill="#2F2E41"/>
<path d="M187.37 22.0248C190.83 27.9995 184.314 38.0665 190.881 40.157L190.34 39.6147C186.376 34.7279 194.661 24.3846 190.697 19.4978C190.081 18.7809 189.553 17.9933 189.122 17.1514" fill="#2F2E41"/>
<path d="M192.73 25.2191C192.73 25.2191 189.798 14.2511 177.232 11.7196C177.218 11.7149 177.171 11.6959 177.109 11.6676C177.072 11.6439 177.024 11.6202 176.977 11.5966C177.119 11.5161 177.256 11.4452 177.397 11.3741L177.399 11.3738L177.401 11.3728L177.402 11.3712L177.402 11.3694C177.525 11.2559 177.647 11.1423 177.775 11.0335L178.134 11.0477C178.134 11.0477 190.743 9.04621 192.73 25.2191Z" fill="#FD6584"/>
<path d="M284 215.528C284 215.59 283.988 215.651 283.965 215.709C283.941 215.766 283.906 215.818 283.862 215.862C283.819 215.906 283.767 215.941 283.709 215.964C283.652 215.988 283.591 216 283.529 216H0.470882C0.345974 216 0.226223 215.95 0.137905 215.862C0.0495872 215.773 -3.43323e-05 215.653 -3.43323e-05 215.528C-3.43323e-05 215.403 0.0495872 215.283 0.137905 215.194C0.226223 215.106 0.345974 215.056 0.470882 215.056H283.529C283.591 215.056 283.652 215.068 283.71 215.091C283.767 215.115 283.819 215.15 283.862 215.194C283.906 215.238 283.941 215.29 283.965 215.347C283.988 215.404 284 215.466 284 215.528Z" fill="#CCCCCC"/>
</g>
<defs>
<clipPath id="clip0_169_2158">
<rect width="284" height="216" fill="white" transform="matrix(-1 0 0 1 284 0)"/>
</clipPath>
</defs>
</svg>
