<svg width="193" height="224" viewBox="0 0 193 224" fill="none" xmlns="http://www.w3.org/2000/svg">
<g id="undraw_certification_re_ifll 1" clip-path="url(#clip0_169_2259)">
<path id="Vector" d="M51.6553 68.2564C50.2782 68.7807 48.872 69.2251 47.4437 69.5874C45.557 70.047 44.4917 70.26 42.6707 69.5537C42.6067 69.5289 42.5457 69.5044 42.4881 69.4802C39.0364 68.0136 36.0858 65.5758 33.9955 62.4637C31.9052 59.3515 30.7652 55.6991 30.7144 51.9512C30.7053 51.8226 30.7053 51.6875 30.7053 51.5556C30.7035 50.9204 30.7339 50.2855 30.7963 49.6534C30.8761 48.7923 31.014 47.9376 31.2089 47.095L31.1907 47.0917C29.7163 45.5851 29.1491 43.5213 29.3371 41.4476C29.466 40.0418 29.9125 38.6835 30.6429 37.4751C31.3733 36.2667 32.3687 35.2398 33.5539 34.4716C35.4115 33.3045 37.5059 32.5657 39.685 32.309C40.2701 32.2415 40.8586 32.2074 41.4475 32.2068H46.9809C48.1238 31.9394 49.2848 31.7564 50.4545 31.6595H50.4636C61.6002 30.7364 70.3827 38.1146 69.5636 47.0917C69.5575 47.1016 69.5484 47.1115 69.5423 47.1214C69.3057 47.5071 69.0964 47.8731 68.9113 48.2225C68.7323 48.5489 68.5807 48.8621 68.4502 49.1588C67.4339 51.4534 72.2635 87.0535 70.5313 87.5942C69.5454 87.9008 65.5713 61.4097 66.2842 66.4472C67.1821 72.7671 56.7859 66.3611 51.6553 68.2564Z" fill="#2F2E41"/>
<path id="Vector_2" d="M68.432 132.611L83.8695 165.478L24.4849 159.467L36.8812 127.916L68.432 132.611Z" fill="#FFB6B6"/>
<path id="Vector_3" d="M99.4216 198.507C89.095 201.943 78.2124 203.399 67.3452 202.801L62.6196 195.142C62.6196 195.142 62.4217 197.995 62.1266 202.355C56.9535 201.756 51.8479 200.674 46.8766 199.124C37.4488 196.178 28.6114 191.613 19.6532 187.403C17.8388 176.594 17.1579 159.926 27.1894 150.223L81.1833 160.11C81.1833 160.11 89.8463 166.586 87.5288 168.905C85.2113 171.221 84.8524 170.863 86.3751 172.384C87.8977 173.906 91.1879 175.941 91.2214 177.271C91.2348 177.791 94.9274 187.212 99.4216 198.507Z" fill="#2F2E41"/>
<path id="Vector_4" d="M59.0034 69.1007L45.9586 70.0102L37.5273 78.1522L34.5744 78.6789C31.9202 79.1519 29.5319 80.5817 27.8624 82.6973C26.1929 84.813 25.3584 87.4673 25.5169 90.157C26.1243 100.441 27.4843 115.807 30.3266 120.792C34.734 128.522 38.3744 126.097 34.734 128.522C31.0936 130.947 28.6496 129.042 30.3266 132.875C32.0037 136.708 28.0599 141.624 28.0599 141.624L26.49 143.193L28.1551 143.875L81.2121 150.774C81.2121 150.774 76.6244 130.161 79.4935 125.097C82.3626 120.033 89.319 104.727 83.1105 98.7373L77.04 77.389L66.5982 74.3113L59.0034 69.1007Z" fill="#FFC916"/>
<path id="Vector_5" d="M137.969 153.705C137.096 153.677 136.24 153.46 135.459 153.069C134.678 152.678 133.992 152.122 133.447 151.44C132.902 150.758 132.512 149.966 132.304 149.118C132.096 148.27 132.074 147.387 132.241 146.531L107.353 129.686L110.323 121.661L139.736 141.883C141.158 142.271 142.389 143.167 143.194 144.401C144 145.635 144.325 147.121 144.107 148.578C143.889 150.035 143.144 151.362 142.013 152.307C140.882 153.252 139.443 153.749 137.969 153.705Z" fill="#FFB6B6"/>
<path id="Vector_6" d="M67.6734 76.3807L64.0569 77.8118L83.3489 115.466L123.287 142.671L129.043 132.947L98.6425 106.706L86.4713 83.3783C84.7585 80.0954 81.8891 77.5633 78.4174 76.2709C74.9457 74.9786 71.118 75.0177 67.6734 76.3807Z" fill="#FFC916"/>
<path id="Vector_7" d="M51.8022 65.7892C59.0364 65.7892 64.901 59.9285 64.901 52.6989C64.901 45.4693 59.0364 39.6086 51.8022 39.6086C44.5679 39.6086 38.7034 45.4693 38.7034 52.6989C38.7034 59.9285 44.5679 65.7892 51.8022 65.7892Z" fill="#FFB6B6"/>
<path id="Vector_8" d="M63.1929 47.1633C62.9745 47.2785 62.7591 47.3846 62.5406 47.4907C62.3131 47.5999 62.0856 47.709 61.855 47.8121C57.4714 49.7979 53.9008 50.0192 51.7347 47.1633C51.6754 45.6608 51.337 44.1825 50.7366 42.8037C50.8427 44.3445 50.4364 45.8772 49.5808 47.1633H45.2184C40.7255 50.1435 38.42 52.8811 41.5386 62.6644C41.7418 63.3071 43.1343 86.1419 43.5317 87.8973C36.7302 85.29 30.8631 57.6075 30.7144 50.3133C30.7053 50.195 30.7053 50.0707 30.7053 49.9494C30.7036 49.3651 30.734 48.7811 30.7964 48.2002C30.8764 47.407 31.0143 46.6207 31.2089 45.8476L31.1907 45.8445C30.4987 45.1834 29.9708 44.3698 29.649 43.4687C29.3272 42.5676 29.2204 41.6039 29.3372 40.6542C30.4781 39.1613 31.8901 37.8963 33.4993 36.9253C34.9626 36.2171 36.4879 35.6448 38.0559 35.2154C38.0953 35.2063 38.1287 35.1972 38.1681 35.1881C38.6475 35.0577 39.1389 34.9395 39.6304 34.8364C40.6432 34.6242 41.6671 34.4693 42.6974 34.3726C42.7733 34.3695 42.8461 34.3635 42.9128 34.3635C43.3249 34.3637 43.7294 34.4747 44.0838 34.6848C44.0868 34.6848 44.0868 34.6879 44.0929 34.6879C44.4335 34.8912 44.7159 35.1788 44.913 35.5229C45.1102 35.8669 45.2153 36.2559 45.2184 36.6524H50.0783C50.2573 36.6524 50.4363 36.6585 50.6153 36.6676C57.3834 36.9374 62.8228 39.8296 63.1716 46.4782C63.1868 46.7086 63.1929 46.9329 63.1929 47.1633Z" fill="#2F2E41"/>
<path id="Vector_9" d="M34.46 47.6896C39.226 47.6896 43.0896 43.8285 43.0896 39.0656C43.0896 34.3027 39.226 30.4417 34.46 30.4417C29.694 30.4417 25.8304 34.3027 25.8304 39.0656C25.8304 43.8285 29.694 47.6896 34.46 47.6896Z" fill="#2F2E41"/>
<path id="Vector_10" d="M46.3075 35.0768C45.3271 39.7378 40.4902 42.5255 35.8628 41.3852C33.6407 40.8376 31.7272 39.4302 30.5434 37.4727C29.3596 35.5152 29.0024 33.168 29.5503 30.9473C30.6914 26.3229 36.3073 27.6561 39.995 24.6389C45.2118 20.3706 47.6296 28.791 46.3075 35.0768Z" fill="#2F2E41"/>
<path id="Vector_11" d="M27.1339 164.822C34.4887 134.848 49.0616 109.086 73.1962 88.9011C74.1302 87.3655 75.6356 86.2629 77.3821 85.8351C79.1286 85.4074 80.9736 85.6894 82.5123 86.6194L139.886 121.384C141.423 122.317 142.526 123.822 142.954 125.567C143.382 127.313 143.1 129.156 142.17 130.694C132.958 161.45 119.16 188.138 96.1073 206.615C95.1733 208.15 93.6679 209.253 91.9214 209.681C90.1749 210.108 88.3299 209.826 86.7912 208.896L29.4172 174.132C27.8806 173.198 26.7772 171.694 26.3492 169.949C25.9212 168.203 26.2034 166.359 27.1339 164.822Z" fill="#F2F2F2"/>
<path id="Vector_12" opacity="0.2" d="M37.3316 174.923C35.7951 173.99 34.6917 172.485 34.2637 170.74C33.8357 168.995 34.1179 167.151 35.0484 165.613C42.4032 135.64 56.9761 109.877 81.1106 89.6924C81.7289 88.6872 82.6019 87.8631 83.6413 87.3034L82.5123 86.6193C80.9736 85.6894 79.1287 85.4073 77.3822 85.8351C75.6357 86.2628 74.1303 87.3654 73.1962 88.9009C49.0616 109.086 34.4888 134.848 27.134 164.822C26.2034 166.359 25.9212 168.203 26.3492 169.948C26.7773 171.694 27.8806 173.198 29.4172 174.132L86.7912 208.896C87.8123 209.51 88.9778 209.844 90.1694 209.863C91.3611 209.881 92.5365 209.585 93.5766 209.004L37.3316 174.923Z" fill="black"/>
<path id="Vector_13" d="M104.617 158.177L66.1045 134.987C65.4927 134.618 65.0526 134.02 64.8809 133.327C64.7093 132.633 64.8201 131.9 65.189 131.288C65.558 130.676 66.1549 130.236 66.8487 130.063C67.5424 129.891 68.2763 130.001 68.8891 130.369L107.401 153.558C108.012 153.929 108.45 154.526 108.621 155.218C108.792 155.911 108.681 156.643 108.312 157.255C107.944 157.866 107.348 158.306 106.655 158.479C105.962 158.652 105.229 158.543 104.617 158.177Z" fill="white"/>
<path id="Vector_14" d="M82.2128 127.425L73.7401 122.323C73.1261 121.956 72.6832 121.36 72.5088 120.667C72.3343 119.973 72.4427 119.239 72.81 118.625C73.1774 118.012 73.7736 117.569 74.4675 117.395C75.1614 117.22 75.8962 117.329 76.5102 117.696L76.5248 117.705L84.9974 122.806C85.6079 123.177 86.0467 123.773 86.2176 124.466C86.3884 125.159 86.2775 125.892 85.9089 126.503C85.5404 127.114 84.9443 127.554 84.2515 127.727C83.5587 127.9 82.8255 127.791 82.2128 127.425Z" fill="white"/>
<path id="Vector_15" d="M98.4957 168.329L59.9836 145.139C59.3711 144.77 58.93 144.174 58.7574 143.48C58.5848 142.787 58.6947 142.053 59.063 141.441C59.4313 140.828 60.0279 140.387 60.7216 140.214C61.4153 140.041 62.1495 140.15 62.7627 140.517L62.7682 140.52L101.28 163.71C101.891 164.081 102.329 164.678 102.5 165.37C102.671 166.063 102.56 166.795 102.191 167.407C101.823 168.018 101.227 168.458 100.534 168.631C99.8415 168.804 99.1085 168.695 98.4957 168.329Z" fill="white"/>
<path id="Vector_16" d="M109.507 114.452C115.72 114.452 120.756 109.419 120.756 103.21C120.756 97.0019 115.72 91.969 109.507 91.969C103.295 91.969 98.2589 97.0019 98.2589 103.21C98.2589 109.419 103.295 114.452 109.507 114.452Z" fill="#3F3D56"/>
<path id="Vector_17" d="M90.1178 223.665C103.396 223.665 114.16 212.908 114.16 199.638C114.16 186.369 103.396 175.612 90.1178 175.612C76.8397 175.612 66.0756 186.369 66.0756 199.638C66.0756 212.908 76.8397 223.665 90.1178 223.665Z" fill="white"/>
<path id="Vector_18" d="M90.1178 224C85.2964 224 80.5832 222.571 76.5743 219.894C72.5655 217.217 69.4409 213.413 67.5958 208.961C65.7507 204.51 65.268 199.611 66.2086 194.885C67.1492 190.16 69.4709 185.819 72.8802 182.412C76.2894 179.005 80.6331 176.685 85.3619 175.745C90.0906 174.804 94.9921 175.287 99.4466 177.131C103.901 178.975 107.708 182.097 110.387 186.103C113.066 190.11 114.495 194.82 114.495 199.638C114.488 206.097 111.917 212.289 107.347 216.856C102.777 221.424 96.5809 223.993 90.1178 224ZM90.1178 175.947C85.429 175.947 80.8455 177.336 76.947 179.939C73.0484 182.543 70.0098 186.243 68.2155 190.572C66.4212 194.901 65.9517 199.665 66.8665 204.26C67.7812 208.856 70.0391 213.077 73.3546 216.391C76.6701 219.704 80.8942 221.96 85.4929 222.874C90.0916 223.789 94.8582 223.319 99.1901 221.526C103.522 219.733 107.224 216.696 109.829 212.8C112.434 208.904 113.825 204.324 113.825 199.638C113.818 193.357 111.318 187.335 106.873 182.894C102.429 178.452 96.403 175.954 90.1178 175.947Z" fill="#3F3D56"/>
<path id="Vector_19" d="M86.838 212.143C86.4228 212.143 86.0133 212.046 85.642 211.861C85.2707 211.675 84.9477 211.406 84.6987 211.074L78.1396 202.334C77.9285 202.053 77.7749 201.733 77.6875 201.393C77.6001 201.053 77.5806 200.699 77.6301 200.351C77.6797 200.004 77.7973 199.669 77.9763 199.367C78.1552 199.065 78.3921 198.801 78.6732 198.59C78.9543 198.38 79.2742 198.226 79.6146 198.139C79.955 198.052 80.3093 198.033 80.6571 198.083C81.005 198.133 81.3396 198.25 81.6418 198.43C81.944 198.609 82.208 198.846 82.4186 199.127L86.7098 204.844L97.7311 188.323C97.9259 188.031 98.1764 187.78 98.4682 187.585C98.76 187.39 99.0874 187.254 99.4318 187.185C99.7762 187.116 100.131 187.116 100.475 187.184C100.82 187.252 101.148 187.387 101.44 187.582C101.732 187.777 101.983 188.027 102.178 188.318C102.374 188.61 102.51 188.937 102.579 189.281C102.648 189.626 102.648 189.98 102.58 190.324C102.512 190.669 102.376 190.996 102.182 191.288L89.0634 210.953C88.8261 211.308 88.5069 211.602 88.1327 211.809C87.7584 212.016 87.34 212.13 86.9124 212.142C86.8876 212.142 86.8628 212.143 86.838 212.143Z" fill="#FFC916"/>
<path id="Vector_20" d="M167.762 77.8821C168.718 77.8005 169.446 77.1958 169.389 76.5317C169.333 75.8675 168.512 75.3952 167.557 75.4769C166.601 75.5585 165.873 76.1631 165.93 76.8273C165.987 77.4915 166.807 77.9637 167.762 77.8821Z" fill="white"/>
<path id="Vector_21" d="M178.512 74.238C179.467 74.1563 180.196 73.5517 180.139 72.8876C180.082 72.2234 179.261 71.7511 178.306 71.8328C177.351 71.9144 176.622 72.519 176.679 73.1832C176.736 73.8474 177.556 74.3196 178.512 74.238Z" fill="#3F3D56"/>
<path id="Vector_22" d="M162.667 69.6863C163.623 69.6047 164.351 69.0001 164.294 68.3359C164.237 67.6717 163.417 67.1995 162.461 67.2811C161.506 67.3628 160.778 67.9674 160.834 68.6316C160.891 69.2957 161.712 69.768 162.667 69.6863Z" fill="#FF6584"/>
<path id="Vector_23" d="M158.158 67.0454C158.569 66.9526 158.794 66.3985 158.661 65.8078C158.527 65.217 158.086 64.8134 157.675 64.9063C157.263 64.9991 157.038 65.5533 157.172 66.144C157.305 66.7347 157.747 67.1383 158.158 67.0454Z" fill="#E6E6E6"/>
<path id="Vector_24" d="M154.948 60.6342C155.359 60.5413 155.584 59.9872 155.451 59.3965C155.317 58.8058 154.875 58.4022 154.464 58.495C154.053 58.5879 153.828 59.142 153.961 59.7327C154.095 60.3234 154.537 60.727 154.948 60.6342Z" fill="#3F3D56"/>
<path id="Vector_25" d="M170.35 69.6378C170.761 69.5449 170.986 68.9908 170.853 68.4001C170.719 67.8094 170.278 67.4058 169.867 67.4986C169.455 67.5915 169.23 68.1456 169.364 68.7363C169.497 69.327 169.939 69.7306 170.35 69.6378Z" fill="#E6E6E6"/>
<path id="Vector_26" d="M165.655 73.5329C166.066 73.44 166.291 72.8859 166.158 72.2952C166.024 71.7045 165.583 71.3009 165.171 71.3937C164.76 71.4866 164.535 72.0407 164.669 72.6314C164.802 73.2221 165.244 73.6257 165.655 73.5329Z" fill="#FF6584"/>
<path id="Vector_27" d="M174.202 76.7055C174.614 76.6126 174.839 76.0585 174.705 75.4678C174.572 74.8771 174.13 74.4735 173.719 74.5663C173.308 74.6592 173.083 75.2133 173.216 75.804C173.35 76.3947 173.791 76.7983 174.202 76.7055Z" fill="#3F3D56"/>
<path id="Vector_28" d="M123.382 28.2189C123.546 27.5728 122.925 26.8581 121.996 26.6227C121.066 26.3873 120.18 26.7203 120.016 27.3665C119.852 28.0127 120.473 28.7273 121.403 28.9627C122.332 29.1981 123.218 28.8651 123.382 28.2189Z" fill="white"/>
<path id="Vector_29" d="M112.032 28.1458C112.195 27.4996 111.575 26.785 110.645 26.5496C109.716 26.3142 108.829 26.6472 108.666 27.2934C108.502 27.9395 109.122 28.6542 110.052 28.8896C110.981 29.125 111.868 28.792 112.032 28.1458Z" fill="#3F3D56"/>
<path id="Vector_30" d="M125.512 37.63C125.676 36.9838 125.055 36.2691 124.126 36.0337C123.196 35.7983 122.31 36.1313 122.146 36.7775C121.982 37.4237 122.603 38.1383 123.533 38.3737C124.462 38.6091 125.348 38.2761 125.512 37.63Z" fill="#FF6584"/>
<path id="Vector_31" d="M128.158 41.1787C128.225 40.5768 127.94 40.051 127.521 40.0042C127.102 39.9574 126.708 40.4074 126.641 41.0092C126.574 41.6111 126.859 42.1369 127.278 42.1837C127.697 42.2305 128.091 41.7805 128.158 41.1787Z" fill="#E6E6E6"/>
<path id="Vector_32" d="M129.092 48.2868C129.159 47.685 128.874 47.1591 128.455 47.1123C128.036 47.0656 127.642 47.5155 127.574 48.1174C127.507 48.7193 127.792 49.2451 128.211 49.2919C128.63 49.3386 129.024 48.8887 129.092 48.2868Z" fill="#3F3D56"/>
<path id="Vector_33" d="M117.487 34.7407C117.554 34.1388 117.269 33.613 116.85 33.5662C116.431 33.5194 116.037 33.9694 115.97 34.5713C115.903 35.1731 116.188 35.6989 116.607 35.7457C117.026 35.7925 117.42 35.3425 117.487 34.7407Z" fill="#E6E6E6"/>
<path id="Vector_34" d="M123.199 32.5961C123.267 31.9942 122.981 31.4684 122.563 31.4216C122.144 31.3748 121.749 31.8248 121.682 32.4267C121.615 33.0285 121.9 33.5543 122.319 33.6011C122.738 33.6479 123.132 33.1979 123.199 32.5961Z" fill="#FF6584"/>
<path id="Vector_35" d="M116.162 26.8022C116.229 26.2003 115.944 25.6745 115.525 25.6277C115.106 25.5809 114.712 26.0309 114.645 26.6328C114.578 27.2346 114.863 27.7605 115.282 27.8072C115.701 27.854 116.095 27.404 116.162 26.8022Z" fill="#3F3D56"/>
<path id="Vector_36" d="M30.7114 165.139C29.8541 164.788 29.0834 164.255 28.4525 163.577C27.8216 162.899 27.3456 162.092 27.0574 161.212C26.7692 160.333 26.6757 159.401 26.7834 158.481C26.8911 157.561 27.1974 156.676 27.6811 155.887L9.19946 129.924L15.1285 123.05L36.8538 154.046C38.1232 154.959 39.0137 156.305 39.3563 157.83C39.699 159.354 39.47 160.952 38.7129 162.319C37.9558 163.687 36.7231 164.729 35.2483 165.249C33.7736 165.768 32.1593 165.729 30.7114 165.139Z" fill="#FFB6B6"/>
<path id="Vector_37" d="M31.136 82.8646C30.201 82.3149 29.1005 82.1161 28.0321 82.3041C26.9637 82.4921 25.9973 83.0545 25.3064 83.8903L0.335327 118.791L23.477 151.638L32.5325 141.918L18.4462 119.797L37.1669 101.984C38.7053 98.6158 38.9403 94.7976 37.8265 91.2665C36.7127 87.7355 34.329 84.7421 31.136 82.8646Z" fill="#FFC916"/>
</g>
<defs>
<clipPath id="clip0_169_2259">
<rect width="193" height="224" fill="white"/>
</clipPath>
</defs>
</svg>
