<svg width="303" height="216" viewBox="0 0 303 216" fill="none" xmlns="http://www.w3.org/2000/svg">
<g clip-path="url(#clip0_169_2300)">
<path d="M276.672 194.311C279.33 199.008 277.076 214.87 277.076 214.87C277.076 214.87 262.32 208.625 259.663 203.93C258.39 201.675 258.064 199.007 258.758 196.512C259.451 194.017 261.107 191.9 263.362 190.625C265.616 189.35 268.284 189.022 270.78 189.714C273.276 190.405 275.395 192.058 276.672 194.311Z" fill="#F1F1F1"/>
<path d="M277.29 214.85L276.977 214.916C273.957 200.573 263.413 190.847 263.307 190.75L263.523 190.513C263.63 190.61 274.249 200.403 277.29 214.85Z" fill="white"/>
<path d="M300.818 199.659C297.212 206.199 276.881 215.059 276.881 215.059C276.881 215.059 273.53 193.14 277.134 186.602C278.865 183.461 281.774 181.138 285.219 180.142C288.665 179.145 292.365 179.559 295.506 181.29C298.647 183.021 300.971 185.929 301.967 189.374C302.963 192.819 302.55 196.519 300.818 199.659Z" fill="#F1F1F1"/>
<path d="M277.061 215.296L276.755 214.975C291.467 201.006 295.276 181.523 295.313 181.328L295.748 181.41C295.711 181.606 291.88 201.226 277.061 215.296Z" fill="white"/>
<path d="M71.2362 150.134C68.9095 150.127 66.5929 149.827 64.3408 149.243L63.8969 149.12L63.4852 148.914C48.5984 141.451 36.0392 131.594 26.1565 119.616C17.9756 109.643 11.5974 98.3194 7.30875 86.1547C2.18017 71.5905 -0.287186 56.2229 0.0244811 40.7856C0.03077 40.4616 0.0360923 40.2114 0.0360923 40.039C0.0360923 32.5348 4.20226 25.9504 10.6499 23.2644C15.5846 21.2087 60.3892 2.80903 63.6264 1.4796C69.723 -1.57462 76.227 0.97461 77.2678 1.4204C79.6025 2.37474 121.022 19.3125 129.972 23.5738C139.197 27.9656 141.658 35.8553 141.658 39.8248C141.658 57.7958 138.545 74.5911 132.405 89.7442C127.447 102.01 120.42 113.333 111.629 123.221C94.6692 142.303 77.7045 149.068 77.5408 149.128C75.5133 149.826 73.3801 150.166 71.2362 150.134ZM67.2467 140.254C68.7175 140.584 72.1037 141.078 74.3108 140.273C77.1146 139.251 91.3137 131.889 104.582 116.96C122.915 96.3332 132.217 70.4034 132.231 39.8911C132.198 39.2729 131.759 34.864 125.919 32.0838C117.142 27.9049 74.0905 10.3044 73.6566 10.127L73.5376 10.0766C72.6354 9.69863 69.7641 8.90242 67.7849 9.93941L67.3886 10.1241C66.9088 10.3212 19.3481 29.8517 14.2758 31.9648C10.7275 33.4429 9.46327 37.1049 9.46327 40.039C9.46327 40.2534 9.45772 40.5653 9.44988 40.9685C9.04449 61.8462 13.8766 113.22 67.2467 140.254Z" fill="#3F3D56"/>
<path d="M65.5977 5.76471C65.5977 5.76471 17.6048 25.4724 12.4627 27.6146C7.3206 29.7567 4.74956 34.8978 4.74956 40.039C4.74956 45.1802 0.892997 112.265 65.5977 144.701C65.5977 144.701 71.4703 146.325 75.9257 144.701C80.3812 143.076 136.944 115.657 136.944 39.8248C136.944 39.8248 136.944 32.1131 127.946 27.8288C118.947 23.5445 75.4399 5.76471 75.4399 5.76471C75.4399 5.76471 70.097 3.40835 65.5977 5.76471Z" fill="#FFC916"/>
<path opacity="0.1" d="M70.7398 21.1881V126.322C70.7398 126.322 22.3184 103.018 22.7469 41.7527L70.7398 21.1881Z" fill="black"/>
<path d="M71.3713 96.7491L55.9466 76.92L64.9167 69.9448L72.2203 79.3334L96.8928 53.2928L105.143 61.1084L71.3713 96.7491Z" fill="white"/>
<path d="M302.63 216H161.686C161.588 216 161.494 215.961 161.425 215.892C161.355 215.822 161.316 215.728 161.316 215.63C161.316 215.532 161.355 215.438 161.425 215.369C161.494 215.299 161.588 215.26 161.686 215.26H302.63C302.728 215.26 302.822 215.299 302.892 215.369C302.961 215.438 303 215.532 303 215.63C303 215.728 302.961 215.822 302.892 215.892C302.822 215.961 302.728 216 302.63 216Z" fill="#CACACA"/>
<path d="M202.429 210.17L208.15 210.169L210.872 188.106L202.428 188.106L202.429 210.17Z" fill="#FFB8B8"/>
<path d="M200.969 208.302L212.236 208.302H212.237C214.141 208.302 215.967 209.058 217.314 210.405C218.661 211.751 219.417 213.577 219.417 215.481V215.714L200.97 215.715L200.969 208.302Z" fill="#2F2E41"/>
<path d="M221.665 210.17L227.386 210.169L230.108 188.106L221.664 188.106L221.665 210.17Z" fill="#FFB8B8"/>
<path d="M220.206 208.302L231.473 208.302H231.473C233.378 208.302 235.204 209.058 236.551 210.405C237.897 211.751 238.654 213.577 238.654 215.481V215.714L220.206 215.715L220.206 208.302Z" fill="#2F2E41"/>
<path d="M211.421 132.688L212.794 202.685L201.692 201.997L193.99 157.413L191.557 127.014L211.421 132.688Z" fill="#2F2E41"/>
<path d="M230.474 120.934L232.03 203.795L219.082 203.425L216.286 154.17L211.421 136.336L191.557 127.014L194.8 104.722L223.988 104.317L230.474 120.934Z" fill="#2F2E41"/>
<path d="M208.151 46.7626C213.635 46.7626 218.08 42.3183 218.08 36.8361C218.08 31.3538 213.635 26.9096 208.151 26.9096C202.668 26.9096 198.223 31.3538 198.223 36.8361C198.223 42.3183 202.668 46.7626 208.151 46.7626Z" fill="#FFB8B8"/>
<path d="M216.386 50.9442L217.907 53.2477L221.961 64.5962L218.718 108.775L199.665 109.181L197.233 58.5164L202.328 52.1488L216.386 50.9442Z" fill="#CCCCCC"/>
<path d="M189.53 59.7325L186.287 59.3272C186.287 59.3272 185.476 59.7325 185.071 62.5697C184.666 65.4069 179.801 90.5361 179.801 90.5361L186.287 121.34L193.584 111.612L189.125 94.5893L193.584 77.5662L189.53 59.7325Z" fill="#2F2E41"/>
<path d="M230.879 59.3275H233.312L239.393 92.1573L233.717 117.692L228.042 108.37L229.663 98.2371L228.853 89.3204L226.015 84.051L230.879 59.3275Z" fill="#2F2E41"/>
<path d="M214.018 36.8361L212.213 36.3849C212.213 36.3849 210.859 28.7144 207.7 29.6168C204.541 30.5192 196.418 31.4216 196.418 27.812C196.418 24.2024 204.09 21.044 208.603 21.4952C213.116 21.9464 218.879 23.4432 220.336 30.068C222.672 40.6879 215.517 43.3703 215.517 43.3703L215.636 42.9837C215.967 41.91 215.991 40.7654 215.705 39.679C215.419 38.5927 214.835 37.6079 214.018 36.8361Z" fill="#2F2E41"/>
<path d="M186.692 59.3272L199.665 54.0582L202.705 51.829L211.826 92.1574L216.083 50.613L232.906 59.3272L227.231 86.8883L226.42 97.4264L228.853 105.938C228.853 105.938 237.366 112.018 234.528 118.503C231.69 124.987 228.447 125.393 228.447 125.393C228.447 125.393 214.664 112.423 213.853 109.18C213.043 105.938 211.826 100.264 211.826 100.264C211.826 100.264 204.935 126.203 196.827 125.798C188.719 125.393 188.719 116.881 188.719 116.881L190.746 107.964L193.989 98.6423L192.368 83.2405L186.692 59.3272Z" fill="#2F2E41"/>
</g>
<defs>
<clipPath id="clip0_169_2300">
<rect width="303" height="216" fill="white"/>
</clipPath>
</defs>
</svg>
