<svg width="364" height="212" viewBox="0 0 364 212" fill="none" xmlns="http://www.w3.org/2000/svg">
<g clip-path="url(#clip0_169_2322)">
<g opacity="0.1">
<path d="M267.624 208.873C271.51 208.873 274.659 204.739 274.659 199.639C274.659 194.539 271.51 190.405 267.624 190.405C263.739 190.405 260.59 194.539 260.59 199.639C260.59 204.739 263.739 208.873 267.624 208.873Z" fill="#3F3D56"/>
<path d="M273.191 160.135C274.177 158.419 274.688 156.471 274.672 154.491C274.672 149.38 271.522 145.257 267.637 145.257C263.752 145.257 260.606 149.39 260.606 154.491C260.586 156.47 261.092 158.418 262.074 160.135C261.111 161.859 260.606 163.801 260.606 165.777C260.606 167.753 261.111 169.696 262.074 171.419C261.111 173.144 260.606 175.087 260.606 177.063C260.606 179.04 261.111 180.983 262.074 182.707C261.092 184.424 260.586 186.372 260.606 188.351C260.606 193.462 263.755 197.585 267.637 197.585C271.519 197.585 274.672 193.452 274.672 188.351C274.692 186.372 274.185 184.424 273.204 182.707C274.166 180.983 274.672 179.04 274.672 177.063C274.672 175.087 274.166 173.144 273.204 171.419C274.166 169.696 274.672 167.753 274.672 165.777C274.672 163.801 274.166 161.859 273.204 160.135H273.191Z" fill="#3F3D56"/>
<path d="M267.624 152.44C271.51 152.44 274.659 148.306 274.659 143.206C274.659 138.106 271.51 133.972 267.624 133.972C263.739 133.972 260.59 138.106 260.59 143.206C260.59 148.306 263.739 152.44 267.624 152.44Z" fill="#3F3D56"/>
<path d="M267.624 141.152C271.51 141.152 274.659 137.018 274.659 131.918C274.659 126.818 271.51 122.684 267.624 122.684C263.739 122.684 260.59 126.818 260.59 131.918C260.59 137.018 263.739 141.152 267.624 141.152Z" fill="#3F3D56"/>
<path d="M293.955 54.6793C294.915 53.4517 295.789 52.1593 296.572 50.8113L278.102 47.7673L298.091 47.9174C300.007 43.7328 301.052 39.2003 301.161 34.5969C301.271 29.9936 300.443 25.4162 298.728 21.1447L271.908 35.0901L296.646 16.8647C294.327 12.852 291.21 9.36077 287.489 6.60844C283.767 3.85612 279.52 1.90158 275.013 0.86648C270.506 -0.168616 265.834 -0.262112 261.289 0.591817C256.744 1.44575 252.423 3.22882 248.595 5.83004C244.767 8.43127 241.514 11.795 239.038 15.7117C236.562 19.6285 234.916 24.0146 234.203 28.5968C233.49 33.1791 233.725 37.8595 234.893 42.3467C236.062 46.8339 238.139 51.0319 240.995 54.6793C239.498 56.5889 238.21 58.6546 237.154 60.8406L261.144 73.3422L235.565 64.7182C233.765 70.0415 233.318 75.7309 234.263 81.2713C235.208 86.8117 237.517 92.0281 240.979 96.4481C237.07 101.432 234.638 107.419 233.962 113.724C233.286 120.029 234.392 126.397 237.154 132.101C239.917 137.805 244.223 142.615 249.582 145.979C254.941 149.344 261.136 151.129 267.459 151.129C273.781 151.129 279.976 149.344 285.335 145.979C290.694 142.615 295.001 137.805 297.763 132.101C300.525 126.397 301.632 120.029 300.955 113.724C300.279 107.419 297.848 101.432 293.939 96.4481C298.61 90.4924 301.149 83.1348 301.149 75.5573C301.149 67.9798 298.61 60.6223 293.939 54.6665L293.955 54.6793Z" fill="#FFC916"/>
<path opacity="0.1" d="M233.785 75.5717C233.773 83.1506 236.314 90.5114 240.995 96.4609C237.086 101.445 234.654 107.432 233.978 113.737C233.302 120.042 234.408 126.41 237.17 132.114C239.933 137.818 244.239 142.627 249.598 145.992C254.957 149.357 261.152 151.141 267.475 151.141C273.797 151.141 279.992 149.357 285.351 145.992C290.71 142.627 295.017 137.818 297.779 132.114C300.541 126.41 301.648 120.042 300.971 113.737C300.295 107.432 297.863 101.445 293.955 96.4609C298.47 90.7116 233.785 71.7771 233.785 75.5717Z" fill="black"/>
</g>
<g opacity="0.1">
<path d="M70.3192 198.997C72.683 198.997 74.5993 196.48 74.5993 193.375C74.5993 190.271 72.683 187.754 70.3192 187.754C67.9554 187.754 66.0391 190.271 66.0391 193.375C66.0391 196.48 67.9554 198.997 70.3192 198.997Z" fill="#3F3D56"/>
<path d="M73.7235 169.327C74.321 168.282 74.6299 167.095 74.6184 165.89C74.6184 162.786 72.7076 160.269 70.3351 160.269C67.9626 160.269 66.055 162.786 66.055 165.89C66.0425 167.095 66.3503 168.281 66.9467 169.327C66.3621 170.377 66.0552 171.56 66.0552 172.762C66.0552 173.965 66.3621 175.148 66.9467 176.198C66.3621 177.248 66.0552 178.43 66.0552 179.633C66.0552 180.836 66.3621 182.018 66.9467 183.068C66.3499 184.113 66.042 185.298 66.055 186.502C66.055 189.61 67.9658 192.127 70.3351 192.127C72.7044 192.127 74.6184 189.61 74.6184 186.502C74.6304 185.298 74.3214 184.112 73.7235 183.068C74.3099 182.019 74.6178 180.836 74.6178 179.633C74.6178 178.43 74.3099 177.247 73.7235 176.198C74.3099 175.148 74.6178 173.965 74.6178 172.762C74.6178 171.56 74.3099 170.377 73.7235 169.327Z" fill="#3F3D56"/>
<path d="M70.3192 164.642C72.683 164.642 74.5993 162.125 74.5993 159.02C74.5993 155.915 72.683 153.398 70.3192 153.398C67.9554 153.398 66.0391 155.915 66.0391 159.02C66.0391 162.125 67.9554 164.642 70.3192 164.642Z" fill="#3F3D56"/>
<path d="M70.3192 157.771C72.683 157.771 74.5993 155.254 74.5993 152.15C74.5993 149.045 72.683 146.528 70.3192 146.528C67.9554 146.528 66.0391 149.045 66.0391 152.15C66.0391 155.254 67.9554 157.771 70.3192 157.771Z" fill="#3F3D56"/>
<path d="M54.2975 105.126C53.7129 104.38 53.1809 103.593 52.7052 102.772L63.9564 100.92L51.788 101.013C50.623 98.4663 49.9875 95.7087 49.9202 92.9081C49.8528 90.1074 50.3551 87.3223 51.3963 84.7227L67.711 93.2222L52.6574 82.1068C54.0693 79.6656 55.967 77.542 58.2323 75.8679C60.4977 74.1939 63.0823 73.0054 65.8253 72.3762C68.5683 71.747 71.4111 71.6907 74.1767 72.2108C76.9423 72.7308 79.5717 73.8161 81.9012 75.3992C84.2307 76.9822 86.2104 79.029 87.7174 81.4124C89.2243 83.7958 90.2261 86.4647 90.6604 89.253C91.0948 92.0414 90.9524 94.8896 90.2422 97.6204C89.5319 100.351 88.269 102.906 86.532 105.126C87.4432 106.287 88.2269 107.544 88.8695 108.873L74.2649 116.488L89.8376 111.246C90.9313 114.488 91.2018 117.952 90.6246 121.325C90.0474 124.698 88.6408 127.874 86.532 130.564C88.9113 133.598 90.3913 137.243 90.8028 141.081C91.2143 144.919 90.5408 148.795 88.8592 152.268C87.1776 155.74 84.5558 158.667 81.2936 160.716C78.0313 162.764 74.2603 163.85 70.4115 163.85C66.5628 163.85 62.7918 162.764 59.5295 160.716C56.2673 158.667 53.6455 155.74 51.9639 152.268C50.2823 148.795 49.6088 144.919 50.0203 141.081C50.4318 137.243 51.9118 133.598 54.2911 130.564C51.448 126.938 49.9024 122.458 49.9024 117.845C49.9024 113.232 51.448 108.753 54.2911 105.126H54.2975Z" fill="#FFC916"/>
<path opacity="0.1" d="M90.9204 117.845C90.9272 122.459 89.3809 126.941 86.532 130.564C88.9112 133.598 90.3912 137.243 90.8028 141.081C91.2143 144.919 90.5408 148.795 88.8592 152.268C87.1776 155.74 84.5558 158.667 81.2935 160.716C78.0313 162.764 74.2602 163.85 70.4115 163.85C66.5628 163.85 62.7918 162.764 59.5295 160.716C56.2673 158.667 53.6455 155.74 51.9639 152.268C50.2823 148.795 49.6087 144.919 50.0203 141.081C50.4318 137.243 51.9118 133.598 54.2911 130.564C51.5428 127.079 90.9204 115.536 90.9204 117.845Z" fill="black"/>
</g>
<g opacity="0.1">
<path d="M166.813 203.89C169.977 203.89 172.542 200.523 172.542 196.368C172.542 192.214 169.977 188.846 166.813 188.846C163.649 188.846 161.084 192.214 161.084 196.368C161.084 200.523 163.649 203.89 166.813 203.89Z" fill="#3F3D56"/>
<path d="M171.347 164.185C172.146 162.785 172.558 161.198 172.542 159.585C172.542 155.433 169.994 152.063 166.809 152.063C163.625 152.063 161.077 155.433 161.077 159.585C161.06 161.198 161.474 162.786 162.275 164.185C161.49 165.589 161.077 167.173 161.077 168.783C161.077 170.393 161.49 171.976 162.275 173.381C161.49 174.784 161.077 176.367 161.077 177.977C161.077 179.586 161.49 181.169 162.275 182.573C161.474 183.972 161.06 185.56 161.077 187.173C161.077 191.325 163.644 194.695 166.809 194.695C169.975 194.695 172.542 191.325 172.542 187.173C172.558 185.56 172.146 183.973 171.347 182.573C172.131 181.169 172.542 179.586 172.542 177.977C172.542 176.367 172.131 174.785 171.347 173.381C172.131 171.975 172.542 170.392 172.542 168.783C172.542 167.173 172.131 165.59 171.347 164.185Z" fill="#3F3D56"/>
<path d="M166.813 157.915C169.977 157.915 172.542 154.547 172.542 150.393C172.542 146.238 169.977 142.871 166.813 142.871C163.649 142.871 161.084 146.238 161.084 150.393C161.084 154.547 163.649 157.915 166.813 157.915Z" fill="#3F3D56"/>
<path d="M166.813 148.719C169.977 148.719 172.542 145.351 172.542 141.197C172.542 137.043 169.977 133.675 166.813 133.675C163.649 133.675 161.084 137.043 161.084 141.197C161.084 145.351 163.649 148.719 166.813 148.719Z" fill="#3F3D56"/>
<path d="M145.377 78.2739C144.594 77.2749 143.881 76.2226 143.243 75.1245L158.297 72.6459L142.017 72.7673C140.455 69.3585 139.603 65.666 139.513 61.9155C139.422 58.165 140.096 54.4355 141.492 50.955L163.338 62.3195L143.189 47.4671C145.072 44.186 147.609 41.3296 150.641 39.0763C153.674 36.8229 157.138 35.2212 160.816 34.3711C164.494 33.521 168.307 33.4408 172.017 34.1355C175.727 34.8302 179.255 36.2849 182.379 38.4087C185.503 40.5325 188.157 43.2798 190.175 46.4788C192.193 49.6779 193.532 53.2599 194.107 57.0012C194.682 60.7425 194.482 64.5626 193.519 68.2228C192.556 71.883 190.85 75.3046 188.509 78.2739C189.728 79.8302 190.777 81.5136 191.637 83.295L172.096 93.4777L192.933 86.4507C194.396 90.7885 194.759 95.424 193.986 99.9376C193.214 104.451 191.331 108.7 188.509 112.3C191.693 116.361 193.674 121.238 194.224 126.374C194.775 131.51 193.874 136.697 191.623 141.344C189.373 145.99 185.865 149.908 181.499 152.649C177.134 155.39 172.087 156.843 166.937 156.843C161.786 156.843 156.74 155.39 152.375 152.649C148.009 149.908 144.501 145.99 142.25 141.344C140 136.697 139.099 131.51 139.649 126.374C140.2 121.238 142.18 116.361 145.364 112.3C141.56 107.448 139.492 101.454 139.492 95.2807C139.492 89.1077 141.56 83.1138 145.364 78.2611L145.377 78.2739Z" fill="#FFC916"/>
<path opacity="0.1" d="M194.382 95.2951C194.391 101.469 192.322 107.466 188.509 112.313C191.693 116.373 193.674 121.25 194.224 126.386C194.775 131.522 193.874 136.71 191.623 141.357C189.373 146.003 185.865 149.921 181.499 152.662C177.134 155.403 172.087 156.856 166.937 156.856C161.786 156.856 156.74 155.403 152.375 152.662C148.009 149.921 144.501 146.003 142.25 141.357C140 136.71 139.099 131.522 139.649 126.386C140.2 121.25 142.18 116.373 145.364 112.313C141.686 107.631 194.382 92.2032 194.382 95.2951Z" fill="black"/>
</g>
<path d="M364 203.213C364 205.407 348.007 207.413 321.565 208.962C316.756 209.24 311.604 209.505 306.139 209.755C301.417 209.968 296.468 210.169 291.292 210.358C286.278 210.537 281.071 210.703 275.672 210.857C258.622 211.345 239.772 211.697 219.747 211.872C214.887 211.917 209.963 211.951 204.974 211.974C199.776 211.998 194.52 212.009 189.204 212.006C92.6656 212.006 14.4103 208.075 14.4103 203.223C14.4103 198.371 92.6656 194.439 189.204 194.439C230.766 194.439 268.933 195.17 298.932 196.384L302.212 196.518H302.231C340.02 198.125 364 200.543 364 203.213Z" fill="#3F3D56"/>
<path opacity="0.15" d="M364 203.213C364 205.407 348.007 207.413 321.565 208.962C316.756 209.24 311.604 209.505 306.139 209.755C301.417 209.968 296.468 210.169 291.292 210.358C286.278 210.537 281.071 210.703 275.672 210.857C258.622 211.345 239.772 211.697 219.747 211.872C214.887 211.917 209.963 211.951 204.974 211.974C199.776 211.998 194.52 212.009 189.204 212.006C92.6656 212.006 14.4103 208.075 14.4103 203.223C14.4103 198.371 92.6656 194.439 189.204 194.439C230.766 194.439 268.933 195.17 298.932 196.384L302.212 196.518H302.231C340.02 198.125 364 200.543 364 203.213Z" fill="black"/>
<path d="M349.59 201.667C349.59 203.501 333.597 205.181 307.155 206.458C302.349 206.691 297.193 206.912 291.732 207.119C287.008 207.298 282.059 207.467 276.885 207.624C271.871 207.773 266.664 207.913 261.265 208.043C244.211 208.451 225.362 208.745 205.337 208.892C200.481 208.928 195.557 208.956 190.563 208.975C185.366 208.994 180.11 209.004 174.796 209.004C78.2584 209.004 0 205.717 0 201.658C0 197.598 78.2584 194.311 174.796 194.311C216.355 194.311 254.523 194.921 284.522 195.937L287.802 196.049H287.824C325.626 197.413 349.59 199.422 349.59 201.667Z" fill="#3F3D56"/>
<path d="M45.1449 134.933L40.7565 121.458L145.848 120.305L150.154 133.646L45.1449 134.933Z" fill="#3F3D56"/>
<path opacity="0.15" d="M45.1449 134.933L40.7565 121.458L145.848 120.305L150.154 133.646L45.1449 134.933Z" fill="black"/>
<path d="M38.1388 134.933L33.7504 121.458L138.842 120.305L143.148 133.646L38.1388 134.933Z" fill="#3F3D56"/>
<path d="M217.543 114.226C206.677 114.226 198.114 109.9 191.853 101.249C185.592 92.5971 182.462 82.1163 182.462 69.8064C182.462 57.4134 185.489 46.9539 191.544 38.4278C197.599 29.9018 206.14 25.643 217.168 25.6516C228.861 25.6516 237.672 30.1435 243.6 39.1273C249.527 48.1112 252.492 58.509 252.494 70.3206C252.494 82.0471 249.427 92.298 243.291 101.073C237.155 109.848 228.573 114.233 217.543 114.226ZM217.862 104.494C225.01 104.494 230.353 101.369 233.89 95.1194C237.427 88.8697 239.195 80.991 239.195 71.4833C239.195 60.9003 237.386 52.2347 233.766 45.4867C230.146 38.7387 224.594 35.3637 217.11 35.3615C202.886 35.3615 195.773 46.6941 195.773 69.3592C195.773 92.7845 203.134 104.496 217.855 104.494H217.862ZM221.441 197.694H205.725L308.613 27.3859H324.033L221.441 197.694ZM312.464 199.441C301.434 199.441 292.836 195.076 286.668 186.345C280.501 177.615 277.404 167.133 277.379 154.9C277.379 142.59 280.385 132.172 286.398 123.646C292.41 115.12 300.972 110.861 312.085 110.869C323.696 110.869 332.445 115.361 338.332 124.345C344.219 133.329 347.164 143.726 347.166 155.535C347.166 167.185 344.119 177.417 338.023 186.23C331.928 195.044 323.406 199.447 312.457 199.441H312.464ZM312.648 189.459C319.763 189.459 325.077 186.388 328.59 180.245C332.104 174.101 333.861 166.255 333.861 156.704C333.861 146.483 332.083 137.911 328.527 130.989C324.971 124.066 319.43 120.6 311.906 120.589C297.599 120.589 290.445 131.921 290.445 154.587C290.441 177.837 297.84 189.462 312.642 189.459H312.648Z" fill="#3F3D56"/>
<path d="M217.543 114.226C206.677 114.226 198.114 109.9 191.853 101.249C185.592 92.5971 182.462 82.1163 182.462 69.8064C182.462 57.4134 185.489 46.9539 191.544 38.4278C197.599 29.9018 206.14 25.643 217.168 25.6516C228.861 25.6516 237.672 30.1435 243.6 39.1273C249.527 48.1112 252.492 58.509 252.494 70.3206C252.494 82.0471 249.427 92.298 243.291 101.073C237.155 109.848 228.573 114.233 217.543 114.226ZM217.862 104.494C225.01 104.494 230.353 101.369 233.89 95.1194C237.427 88.8697 239.195 80.991 239.195 71.4833C239.195 60.9003 237.386 52.2347 233.766 45.4867C230.146 38.7387 224.594 35.3637 217.11 35.3615C202.886 35.3615 195.773 46.6941 195.773 69.3592C195.773 92.7845 203.134 104.496 217.855 104.494H217.862ZM221.441 197.694H205.725L308.613 27.3859H324.033L221.441 197.694ZM312.464 199.441C301.434 199.441 292.836 195.076 286.668 186.345C280.501 177.615 277.404 167.133 277.379 154.9C277.379 142.59 280.385 132.172 286.398 123.646C292.41 115.12 300.972 110.861 312.085 110.869C323.696 110.869 332.445 115.361 338.332 124.345C344.219 133.329 347.164 143.726 347.166 155.535C347.166 167.185 344.119 177.417 338.023 186.23C331.928 195.044 323.406 199.447 312.457 199.441H312.464ZM312.648 189.459C319.763 189.459 325.077 186.388 328.59 180.245C332.104 174.101 333.861 166.255 333.861 156.704C333.861 146.483 332.083 137.911 328.527 130.989C324.971 124.066 319.43 120.6 311.906 120.589C297.599 120.589 290.445 131.921 290.445 154.587C290.441 177.837 297.84 189.462 312.642 189.459H312.648Z" fill="#3F3D56"/>
<path opacity="0.15" d="M217.543 114.226C206.677 114.226 198.114 109.9 191.853 101.249C185.592 92.5971 182.462 82.1163 182.462 69.8064C182.462 57.4134 185.489 46.9539 191.544 38.4278C197.599 29.9018 206.14 25.643 217.168 25.6516C228.861 25.6516 237.672 30.1435 243.6 39.1273C249.527 48.1112 252.492 58.509 252.494 70.3206C252.494 82.0471 249.427 92.298 243.291 101.073C237.155 109.848 228.573 114.233 217.543 114.226ZM217.862 104.494C225.01 104.494 230.353 101.369 233.89 95.1194C237.427 88.8697 239.195 80.991 239.195 71.4833C239.195 60.9003 237.386 52.2347 233.766 45.4867C230.146 38.7387 224.594 35.3637 217.11 35.3615C202.886 35.3615 195.773 46.6941 195.773 69.3592C195.773 92.7845 203.134 104.496 217.855 104.494H217.862ZM221.441 197.694H205.725L308.613 27.3859H324.033L221.441 197.694ZM312.464 199.441C301.434 199.441 292.836 195.076 286.668 186.345C280.501 177.615 277.404 167.133 277.379 154.9C277.379 142.59 280.385 132.172 286.398 123.646C292.41 115.12 300.972 110.861 312.085 110.869C323.696 110.869 332.445 115.361 338.332 124.345C344.219 133.329 347.164 143.726 347.166 155.535C347.166 167.185 344.119 177.417 338.023 186.23C331.928 195.044 323.406 199.447 312.457 199.441H312.464ZM312.648 189.459C319.763 189.459 325.077 186.388 328.59 180.245C332.104 174.101 333.861 166.255 333.861 156.704C333.861 146.483 332.083 137.911 328.527 130.989C324.971 124.066 319.43 120.6 311.906 120.589C297.599 120.589 290.445 131.921 290.445 154.587C290.441 177.837 297.84 189.462 312.642 189.459H312.648Z" fill="black"/>
<path d="M207.671 114.226C196.805 114.226 188.242 109.9 181.981 101.249C175.72 92.5971 172.59 82.1163 172.59 69.8064C172.59 57.4134 175.617 46.9539 181.672 38.4278C187.727 29.9018 196.268 25.643 207.295 25.6516C218.989 25.6516 227.8 30.1435 233.727 39.1273C239.655 48.1112 242.62 58.509 242.622 70.3206C242.622 82.0471 239.554 92.298 233.419 101.073C227.283 109.848 218.7 114.233 207.671 114.226ZM207.99 104.494C215.138 104.494 220.481 101.369 224.018 95.1194C227.555 88.8697 229.323 80.991 229.323 71.4833C229.323 60.9003 227.513 52.2347 223.893 45.4867C220.274 38.7387 214.722 35.3637 207.238 35.3615C193.013 35.3615 185.901 46.6941 185.901 69.3592C185.901 92.7845 193.262 104.496 207.983 104.494H207.99ZM211.569 197.694H195.853L298.741 27.3859H314.161L211.569 197.694ZM302.591 199.441C291.562 199.441 282.964 195.076 276.796 186.345C270.629 177.615 267.532 167.133 267.507 154.9C267.507 142.59 270.513 132.172 276.525 123.646C282.538 115.12 291.1 110.861 302.212 110.869C313.823 110.869 322.573 115.361 328.46 124.345C334.347 133.329 337.292 143.726 337.294 155.535C337.294 167.185 334.246 177.417 328.151 186.23C322.056 195.044 313.534 199.447 302.585 199.441H302.591ZM302.776 189.459C309.89 189.459 315.204 186.388 318.718 180.245C322.232 174.101 323.989 166.255 323.989 156.704C323.989 146.483 322.211 137.911 318.654 130.989C315.098 124.066 309.556 120.6 302.028 120.589C287.72 120.589 280.567 131.921 280.567 154.587C280.567 177.837 287.968 189.462 302.77 189.459H302.776Z" fill="#3F3D56"/>
<path d="M242.052 201.967C243.364 199.527 241.874 196.538 240.16 194.359C238.447 192.181 236.358 189.919 236.403 187.144C236.466 183.161 240.683 180.807 244.046 178.692C246.547 177.125 248.854 175.266 250.918 173.154C251.782 172.34 252.497 171.38 253.029 170.317C253.727 168.759 253.704 166.986 253.666 165.28C253.52 159.591 253.24 153.909 252.826 148.237" stroke="#3F3D56" stroke-width="4" stroke-miterlimit="10"/>
<path d="M259.233 147.924C259.185 146.883 258.877 145.871 258.336 144.981C257.796 144.091 257.041 143.352 256.141 142.832L254.752 145.586L254.794 142.251C254.131 142.057 253.442 141.974 252.752 142.005C251.528 142.063 250.348 142.483 249.362 143.213C248.376 143.943 247.628 144.95 247.212 146.107C246.797 147.263 246.732 148.517 247.028 149.71C247.323 150.904 247.964 151.982 248.87 152.81C249.776 153.637 250.907 154.177 252.119 154.36C253.331 154.543 254.57 154.362 255.679 153.839C256.788 153.316 257.718 152.475 258.35 151.422C258.983 150.369 259.29 149.152 259.233 147.924Z" fill="#FFC916"/>
<path d="M248.182 190.002C247.532 191.27 246.467 192.274 245.166 192.847C243.865 193.421 242.407 193.528 241.037 193.151C239.667 192.774 238.467 191.936 237.64 190.777C236.812 189.619 236.407 188.21 236.492 186.788C236.577 185.365 237.147 184.015 238.107 182.964C239.067 181.913 240.357 181.225 241.763 181.015C243.168 180.805 244.603 181.086 245.826 181.811C247.05 182.536 247.987 183.661 248.482 184.997L244.609 188.156L248.877 187.16C248.875 188.149 248.637 189.124 248.182 190.002Z" fill="#FFC916"/>
<path d="M245.122 177.926C244.309 177.964 243.496 177.841 242.731 177.564C241.965 177.288 241.261 176.862 240.659 176.313C240.058 175.763 239.57 175.1 239.223 174.361C238.877 173.622 238.679 172.822 238.641 172.007C238.593 171.033 238.777 170.062 239.176 169.174C239.547 168.344 240.094 167.605 240.779 167.009C241.465 166.414 242.272 165.976 243.144 165.727L243.109 168.283L244.514 165.498C246.156 165.42 247.761 166.001 248.976 167.111C250.192 168.221 250.918 169.769 250.994 171.416C251.071 173.063 250.493 174.673 249.386 175.892C248.279 177.111 246.735 177.839 245.093 177.916L245.122 177.926Z" fill="#FFC916"/>
<path d="M260.166 167.887C259.343 167.941 258.518 167.831 257.739 167.562C256.959 167.293 256.241 166.871 255.626 166.32C255.011 165.77 254.511 165.101 254.157 164.355C253.802 163.608 253.6 162.798 253.562 161.972C253.523 161.146 253.649 160.321 253.932 159.544C254.216 158.768 254.651 158.056 255.212 157.45C255.773 156.844 256.449 156.356 257.2 156.015C257.951 155.675 258.762 155.487 259.586 155.465C260.745 155.408 261.895 155.682 262.905 156.254L261.809 159.263L264.064 157.094C265.274 158.2 265.997 159.743 266.073 161.384C266.102 161.959 266.048 162.535 265.914 163.096C265.606 164.413 264.878 165.593 263.841 166.457C262.803 167.322 261.513 167.824 260.166 167.887Z" fill="#FFC916"/>
<path opacity="0.1" d="M258.399 149.581C256.969 149.738 255.58 150.185 254.144 150.275C252.708 150.364 251.131 150.019 250.224 148.898C249.733 148.297 249.491 147.534 249.077 146.876C248.686 146.264 248.15 145.758 247.517 145.404C247.119 146.191 246.893 147.055 246.854 147.938C246.815 148.82 246.965 149.7 247.292 150.52C247.619 151.34 248.116 152.081 248.751 152.693C249.386 153.305 250.143 153.774 250.973 154.07C251.803 154.365 252.686 154.48 253.563 154.406C254.441 154.332 255.292 154.071 256.062 153.642C256.831 153.212 257.5 152.623 258.024 151.913C258.548 151.204 258.916 150.39 259.102 149.527C258.867 149.54 258.634 149.556 258.399 149.581Z" fill="black"/>
<path opacity="0.1" d="M260.166 167.887C259.098 167.936 258.036 167.707 257.082 167.222C256.128 166.738 255.315 166.015 254.722 165.123C254.129 164.231 253.776 163.2 253.697 162.131C253.618 161.062 253.816 159.99 254.271 159.02C254.762 159.354 255.185 159.779 255.517 160.272C255.959 160.94 256.227 161.713 256.746 162.326C257.701 163.466 259.36 163.837 260.854 163.77C262.348 163.702 263.793 163.274 265.284 163.131C265.491 163.112 265.701 163.099 265.921 163.092C265.613 164.411 264.884 165.593 263.845 166.458C262.807 167.323 261.515 167.825 260.166 167.887Z" fill="black"/>
<path opacity="0.1" d="M245.122 177.926C244.309 177.964 243.496 177.841 242.731 177.564C241.965 177.288 241.261 176.862 240.659 176.313C240.058 175.763 239.57 175.1 239.223 174.361C238.877 173.622 238.679 172.822 238.641 172.007C238.593 171.033 238.777 170.062 239.176 169.174C239.687 169.515 240.131 169.948 240.485 170.452C240.966 171.132 241.269 171.918 241.832 172.547C242.877 173.713 244.635 174.125 246.218 174.086C247.8 174.048 249.23 173.678 250.756 173.559C250.377 174.779 249.634 175.853 248.626 176.634C247.618 177.416 246.394 177.866 245.122 177.926Z" fill="black"/>
<path opacity="0.1" d="M248.182 190.002C247.461 191.424 246.223 192.513 244.724 193.044C243.224 193.576 241.579 193.508 240.127 192.857C238.676 192.205 237.53 191.019 236.926 189.544C236.322 188.068 236.307 186.417 236.883 184.93C237.394 185.267 237.852 185.677 238.243 186.147C238.832 186.869 239.221 187.687 239.902 188.357C241.176 189.603 243.214 190.117 245.036 190.165C246.087 190.174 247.138 190.12 248.182 190.002Z" fill="black"/>
<path d="M337.909 201.648C339.221 199.208 337.73 196.218 336.017 194.04C334.304 191.861 332.214 189.6 332.259 186.824C332.323 182.841 336.539 180.487 339.902 178.373C342.403 176.806 344.71 174.947 346.775 172.834C347.639 172.021 348.354 171.06 348.886 169.998C349.583 168.439 349.561 166.667 349.523 164.961C349.376 159.271 349.096 153.59 348.682 147.917" stroke="#3F3D56" stroke-width="4" stroke-miterlimit="10"/>
<path d="M355.089 147.604C355.042 146.564 354.733 145.552 354.193 144.662C353.652 143.772 352.897 143.033 351.997 142.513L350.609 145.266L350.65 141.932C349.988 141.738 349.298 141.655 348.609 141.686C347.385 141.743 346.205 142.164 345.219 142.894C344.232 143.624 343.484 144.631 343.069 145.787C342.653 146.944 342.589 148.198 342.884 149.391C343.179 150.584 343.82 151.663 344.727 152.49C345.633 153.318 346.763 153.858 347.975 154.041C349.187 154.224 350.426 154.043 351.536 153.52C352.645 152.997 353.574 152.156 354.207 151.103C354.84 150.05 355.147 148.832 355.089 147.604Z" fill="#FFC916"/>
<path d="M344.039 189.683C343.389 190.95 342.324 191.955 341.023 192.528C339.722 193.101 338.264 193.208 336.894 192.831C335.523 192.455 334.324 191.617 333.496 190.458C332.669 189.299 332.263 187.891 332.349 186.468C332.434 185.045 333.004 183.695 333.963 182.644C334.923 181.593 336.214 180.905 337.619 180.695C339.025 180.486 340.46 180.767 341.683 181.492C342.906 182.217 343.844 183.342 344.338 184.678L340.466 187.837L344.733 186.84C344.731 187.83 344.493 188.805 344.039 189.683Z" fill="#FFC916"/>
<path d="M340.978 177.606C340.165 177.644 339.353 177.522 338.587 177.245C337.822 176.968 337.118 176.543 336.516 175.993C335.914 175.444 335.426 174.781 335.08 174.042C334.734 173.303 334.536 172.503 334.498 171.688C334.45 170.714 334.633 169.743 335.033 168.854C335.403 168.024 335.95 167.285 336.636 166.69C337.321 166.094 338.129 165.657 339.001 165.408L338.966 167.963L340.37 165.178H340.386C341.199 165.14 342.012 165.263 342.777 165.54C343.543 165.816 344.247 166.242 344.849 166.791C345.45 167.341 345.938 168.004 346.285 168.743C346.631 169.481 346.829 170.281 346.867 171.097C346.905 171.912 346.782 172.727 346.506 173.495C346.231 174.263 345.806 174.969 345.259 175.572C344.711 176.176 344.049 176.665 343.313 177.013C342.576 177.36 341.779 177.558 340.966 177.597L340.978 177.606Z" fill="#FFC916"/>
<path d="M356.023 167.567C355.2 167.622 354.375 167.512 353.595 167.243C352.815 166.974 352.097 166.552 351.482 166.001C350.867 165.45 350.368 164.782 350.013 164.035C349.659 163.289 349.457 162.479 349.418 161.653C349.38 160.827 349.506 160.001 349.789 159.225C350.072 158.448 350.507 157.736 351.068 157.13C351.629 156.524 352.305 156.037 353.056 155.696C353.807 155.355 354.619 155.168 355.443 155.146C356.601 155.089 357.752 155.363 358.761 155.935L357.666 158.943L359.921 156.775C361.131 157.881 361.853 159.424 361.93 161.064C361.958 161.64 361.905 162.216 361.771 162.776C361.463 164.093 360.735 165.273 359.697 166.138C358.66 167.003 357.37 167.504 356.023 167.567Z" fill="#FFC916"/>
<path opacity="0.1" d="M354.255 149.262C352.825 149.419 351.437 149.866 350 149.955C348.564 150.045 346.988 149.7 346.08 148.579C345.59 147.978 345.348 147.215 344.934 146.557C344.543 145.944 344.007 145.438 343.373 145.084C342.976 145.872 342.75 146.736 342.711 147.618C342.672 148.5 342.821 149.381 343.148 150.201C343.475 151.021 343.973 151.761 344.607 152.374C345.242 152.986 346 153.455 346.829 153.75C347.659 154.046 348.542 154.16 349.42 154.086C350.297 154.013 351.149 153.752 351.918 153.322C352.687 152.892 353.356 152.303 353.881 151.594C354.405 150.884 354.773 150.071 354.959 149.208C354.723 149.221 354.491 149.237 354.255 149.262Z" fill="black"/>
<path opacity="0.1" d="M356.023 167.567C354.955 167.616 353.892 167.387 352.938 166.903C351.985 166.419 351.172 165.696 350.579 164.804C349.986 163.911 349.633 162.881 349.554 161.811C349.475 160.742 349.672 159.671 350.128 158.701C350.619 159.034 351.042 159.459 351.373 159.953C351.816 160.62 352.083 161.393 352.602 162.006C353.558 163.147 355.217 163.517 356.71 163.45C358.204 163.383 359.65 162.955 361.14 162.811C361.347 162.792 361.557 162.779 361.777 162.773C361.469 164.092 360.741 165.273 359.702 166.139C358.663 167.004 357.371 167.506 356.023 167.567Z" fill="black"/>
<path opacity="0.1" d="M340.978 177.606C340.165 177.644 339.353 177.522 338.587 177.245C337.822 176.968 337.118 176.543 336.516 175.993C335.914 175.444 335.426 174.781 335.08 174.042C334.734 173.303 334.536 172.503 334.498 171.688C334.45 170.714 334.633 169.743 335.033 168.854C335.544 169.196 335.988 169.629 336.342 170.132C336.823 170.812 337.125 171.598 337.689 172.227C338.733 173.393 340.491 173.805 342.074 173.767C343.609 173.735 345.087 173.358 346.612 173.24C346.234 174.46 345.49 175.534 344.482 176.315C343.474 177.096 342.251 177.547 340.978 177.606Z" fill="black"/>
<path opacity="0.1" d="M344.039 189.683C343.318 191.104 342.079 192.193 340.58 192.725C339.081 193.256 337.435 193.189 335.984 192.538C334.532 191.886 333.386 190.7 332.783 189.224C332.179 187.749 332.163 186.097 332.74 184.611C333.25 184.948 333.708 185.358 334.1 185.828C334.689 186.55 335.077 187.367 335.759 188.038C337.033 189.284 339.071 189.798 340.893 189.846C341.944 189.855 342.994 189.8 344.039 189.683Z" fill="black"/>
<path d="M35.0083 197.496C33.6963 195.055 35.1867 192.066 36.9 189.887C38.6133 187.709 40.7024 185.448 40.6578 182.672C40.5941 178.689 36.3777 176.335 33.0148 174.221C30.5137 172.653 28.2067 170.794 26.1424 168.682C25.2779 167.868 24.5632 166.908 24.031 165.846C23.3336 164.287 23.3559 162.514 23.3941 160.809C23.5406 155.119 23.8208 149.438 24.2348 143.765" stroke="#3F3D56" stroke-width="4" stroke-miterlimit="10"/>
<path d="M17.8274 143.452C17.8753 142.411 18.1837 141.399 18.7241 140.51C19.2645 139.62 20.0196 138.881 20.9197 138.361L22.3081 141.114L22.2667 137.779C22.9291 137.585 23.6188 137.502 24.3081 137.533C25.5324 137.591 26.7122 138.011 27.6983 138.741C28.6844 139.472 29.4325 140.478 29.8481 141.635C30.2636 142.791 30.3279 144.046 30.0328 145.239C29.7378 146.432 29.0965 147.51 28.1903 148.338C27.284 149.166 26.1534 149.705 24.9415 149.889C23.7295 150.072 22.4906 149.89 21.3814 149.367C20.2722 148.844 19.3425 148.003 18.7099 146.95C18.0773 145.897 17.7702 144.68 17.8274 143.452Z" fill="#FFC916"/>
<path d="M28.878 185.531C29.5282 186.798 30.5931 187.802 31.8941 188.376C33.195 188.949 34.6529 189.056 36.0233 188.679C37.3937 188.302 38.5932 187.464 39.4207 186.306C40.2482 185.147 40.6534 183.738 40.5683 182.316C40.4832 180.893 39.9131 179.543 38.9534 178.492C37.9937 177.441 36.7029 176.753 35.2974 176.543C33.892 176.333 32.4573 176.614 31.234 177.34C30.0107 178.065 29.0732 179.19 28.5786 180.526L32.4511 183.685L28.1837 182.688C28.1855 183.678 28.4235 184.652 28.878 185.531Z" fill="#FFC916"/>
<path d="M31.9384 173.454C32.7514 173.492 33.5639 173.369 34.3296 173.093C35.0953 172.816 35.7992 172.391 36.401 171.841C37.0028 171.291 37.4907 170.628 37.837 169.889C38.1832 169.151 38.381 168.351 38.419 167.535C38.4672 166.562 38.2839 165.591 37.884 164.702C37.5138 163.872 36.9667 163.133 36.2811 162.538C35.5956 161.942 34.7883 161.505 33.916 161.256L33.951 163.811L32.5466 161.026C30.9047 160.949 29.2995 161.529 28.0841 162.639C26.8688 163.749 26.1428 165.298 26.066 166.944C25.9891 168.591 26.5676 170.201 27.6743 171.42C28.781 172.639 30.3251 173.367 31.967 173.444L31.9384 173.454Z" fill="#FFC916"/>
<path d="M16.8943 163.415C17.717 163.47 18.5422 163.36 19.3218 163.091C20.1015 162.822 20.8198 162.399 21.4348 161.849C22.0498 161.298 22.5491 160.63 22.9035 159.883C23.2579 159.137 23.4603 158.327 23.4988 157.501C23.5373 156.675 23.4113 155.849 23.1279 155.073C22.8446 154.296 22.4097 153.584 21.8487 152.978C21.2877 152.372 20.6118 151.885 19.8606 151.544C19.1095 151.203 18.2981 151.016 17.4739 150.993C16.3211 150.94 15.1765 151.213 14.1715 151.782L15.267 154.791L12.9964 152.632C11.7885 153.736 11.066 155.275 10.9869 156.912C10.9587 157.487 11.0123 158.064 11.1461 158.624C11.4543 159.941 12.1823 161.121 13.2196 161.986C14.2569 162.85 15.547 163.352 16.8943 163.415Z" fill="#FFC916"/>
<path opacity="0.1" d="M18.6618 145.11C20.0917 145.266 21.4801 145.713 22.9164 145.803C24.3527 145.892 25.929 145.547 26.8366 144.426C27.3271 143.826 27.5691 143.062 27.9831 142.404C28.3741 141.792 28.9102 141.286 29.5436 140.932C29.9414 141.72 30.1672 142.584 30.2061 143.466C30.2449 144.348 30.0958 145.229 29.7688 146.049C29.4418 146.869 28.9443 147.609 28.3095 148.221C27.6748 148.833 26.9172 149.303 26.0874 149.598C25.2576 149.893 24.3746 150.008 23.4971 149.934C22.6197 149.86 21.768 149.6 20.9988 149.17C20.2296 148.74 19.5606 148.151 19.0362 147.441C18.5119 146.732 18.1443 145.919 17.958 145.056C18.1936 145.068 18.4261 145.084 18.6618 145.11Z" fill="black"/>
<path opacity="0.1" d="M16.8943 163.415C17.9622 163.464 19.0246 163.235 19.9784 162.751C20.9322 162.266 21.7451 161.543 22.3382 160.651C22.9312 159.759 23.2844 158.728 23.3634 157.659C23.4424 156.59 23.2445 155.518 22.789 154.548C22.298 154.882 21.8753 155.307 21.5438 155.8C21.1012 156.468 20.8337 157.241 20.3146 157.854C19.3592 158.994 17.7 159.365 16.2064 159.298C14.7129 159.231 13.2671 158.803 11.7767 158.659C11.5697 158.64 11.3595 158.627 11.1397 158.621C11.4476 159.939 12.1763 161.121 13.2149 161.986C14.2536 162.852 15.5455 163.353 16.8943 163.415Z" fill="black"/>
<path opacity="0.1" d="M31.9384 173.454C32.7514 173.492 33.5639 173.369 34.3296 173.093C35.0953 172.816 35.7992 172.391 36.401 171.841C37.0028 171.291 37.4907 170.628 37.837 169.889C38.1833 169.151 38.381 168.351 38.419 167.535C38.4672 166.562 38.2839 165.591 37.884 164.702C37.373 165.044 36.9293 165.477 36.5752 165.98C36.0943 166.66 35.7917 167.446 35.2281 168.075C34.1835 169.241 32.4256 169.653 30.8429 169.615C29.3079 169.583 27.8302 169.206 26.3048 169.088C26.6829 170.308 27.4265 171.381 28.4345 172.163C29.4425 172.944 30.6659 173.395 31.9384 173.454Z" fill="black"/>
<path opacity="0.1" d="M28.878 185.531C29.5991 186.952 30.8374 188.041 32.3367 188.573C33.836 189.104 35.4816 189.037 36.933 188.385C38.3844 187.734 39.5306 186.548 40.1344 185.072C40.7382 183.597 40.7534 181.945 40.1769 180.459C39.6667 180.795 39.2086 181.205 38.8171 181.675C38.228 182.397 37.8394 183.215 37.1579 183.886C35.8841 185.131 33.8459 185.646 32.0243 185.694C30.9733 185.702 29.9226 185.648 28.878 185.531Z" fill="black"/>
<path d="M214.483 167.564C214.489 166.79 214.314 166.025 213.972 165.33C213.63 164.636 213.131 164.031 212.515 163.565C212.438 160.636 210.356 158.244 207.677 157.873C207.471 156.878 207.006 155.955 206.331 155.197C205.656 154.439 204.793 153.873 203.83 153.555C203.596 153.48 203.357 153.424 203.114 153.386H203.044L202.92 153.37H202.815H202.709H202.573H202.49H202.264C199.531 153.37 197.257 155.465 196.789 158.228C195.022 157.819 193.401 158.349 193.111 159.47C193.036 159.767 193.053 160.08 193.159 160.368C193.458 161.237 194.433 162.067 195.754 162.479L195.926 162.53C196.012 162.556 196.098 162.575 196.184 162.594H196.242C195.756 163.633 195.687 164.82 196.049 165.908C196.411 166.997 197.177 167.904 198.187 168.442C198.148 168.464 198.109 168.489 198.073 168.516C197.909 168.666 197.779 168.849 197.691 169.053C197.371 169.615 197.123 170.214 196.952 170.838C196.824 171.371 196.802 171.93 196.633 172.457C196.343 173.416 195.598 174.256 195.512 175.275C195.474 175.728 195.547 176.262 195.226 176.571C195.146 176.641 195.06 176.703 194.971 176.76C194.745 176.915 194.555 177.115 194.41 177.348C194.317 177.54 194.191 177.715 194.038 177.865C193.748 178.085 193.27 178.063 193.127 178.402C192.984 178.74 193.353 179.139 193.267 179.51C193.197 179.81 192.869 179.947 192.63 180.149C192.363 180.439 192.176 180.795 192.089 181.18C191.613 181.272 191.123 181.258 190.653 181.138C190.184 181.018 189.746 180.796 189.372 180.487C189.501 180.816 189.595 181.158 189.653 181.506C189.274 181.101 188.649 180.982 188.188 180.772C187.592 180.498 187.061 180.102 186.627 179.609L187.462 179.494L183.767 173.872L182.678 173.649L183.656 175.53C183.576 175.569 183.506 175.625 183.451 175.695C183.395 175.764 183.357 175.846 183.338 175.933C183.285 176.141 183.272 176.358 183.299 176.571C183.351 177.076 183.435 177.576 183.551 178.069L183.834 179.392C183.858 179.516 183.889 179.638 183.927 179.759C183.557 179.746 183.188 179.788 182.831 179.884C182.099 179.612 181.336 179.431 180.561 179.344C180.39 179.314 180.215 179.323 180.048 179.369C179.859 179.457 179.694 179.591 179.57 179.759C178.933 180.498 178.368 181.295 177.882 182.142C175.898 185.604 173.249 188.626 170.768 191.756C169.055 192.455 167.329 193.12 165.599 193.778L161.883 195.199C161.141 195.483 160.37 195.774 159.58 195.723C159.224 195.701 158.791 195.646 158.59 195.95C158.492 196.1 158.416 196.264 158.364 196.435C158.233 196.435 158.103 196.467 157.982 196.474H157.959C157.724 195.886 157.52 195.257 157.068 194.829C156.977 194.843 156.891 194.879 156.817 194.935C156.744 194.991 156.686 195.064 156.647 195.148C156.558 195.314 156.504 195.496 156.402 195.65C156.202 195.943 155.854 196.087 155.606 196.336C155.358 196.585 155.202 196.975 154.934 197.218C154.56 197.491 154.121 197.662 153.66 197.713C152.971 197.876 152.306 198.129 151.683 198.467C151.453 198.608 151.207 198.722 150.95 198.805C150.668 198.86 150.379 198.869 150.093 198.834L148.125 198.69C147.95 198.667 147.773 198.675 147.6 198.713C147.397 198.787 147.225 198.927 147.11 199.11C146.994 199.293 146.943 199.51 146.963 199.725C146.987 199.939 147.054 200.146 147.161 200.333C147.268 200.52 147.412 200.682 147.584 200.811C147.926 201.062 148.304 201.259 148.705 201.396C150.415 202.06 152.178 202.578 153.976 202.945V203.344C155.221 203.973 156.597 204.301 157.991 204.302C158.094 204.31 158.197 204.292 158.291 204.248C158.42 204.151 158.509 204.01 158.542 203.852C158.96 202.599 159.224 201.3 159.329 199.984C159.575 199.968 159.816 199.906 160.039 199.802C160.717 199.617 161.389 200.083 162.087 200.16C162.947 200.252 163.746 199.751 164.558 199.441C164.676 199.396 164.794 199.358 164.911 199.32C164.68 199.62 164.406 199.886 164.099 200.108C163.762 200.351 163.383 200.53 163.052 200.782C162.776 201.035 162.481 201.264 162.17 201.469C161.95 201.572 161.723 201.659 161.491 201.731C161.155 201.854 160.834 202.016 160.536 202.213C160.268 202.371 160.041 202.59 159.873 202.852C159.789 202.974 159.737 203.116 159.722 203.264C159.708 203.413 159.731 203.562 159.791 203.698C159.85 203.835 159.943 203.954 160.062 204.044C160.18 204.134 160.319 204.192 160.466 204.213C160.732 204.26 161.003 204.268 161.271 204.235C162.335 204.155 163.396 204.056 164.456 203.961C164.905 203.93 165.351 203.866 165.79 203.769C166.023 203.711 166.252 203.635 166.485 203.574C166.881 203.469 167.288 203.408 167.698 203.392C167.817 203.383 167.937 203.394 168.051 203.427C168.3 203.507 168.475 203.746 168.727 203.81C168.89 203.826 169.055 203.803 169.207 203.743C169.984 203.574 170.776 203.49 171.57 203.491C171.918 203.472 172.325 203.405 172.488 203.082C172.685 202.683 172.354 202.236 172.223 201.805C172.157 201.53 172.12 201.25 172.115 200.968C172.054 200.272 171.855 199.595 171.529 198.978C171.356 198.69 171.21 198.386 171.093 198.071C172.615 197.49 174.071 196.749 175.437 195.86C176.22 195.372 177.029 194.845 177.914 194.666C178.946 194.458 180.01 194.733 181.026 195.027C183.445 195.729 185.826 196.562 188.156 197.521C189.27 197.978 190.385 198.464 191.525 198.799C191.858 199.25 192.262 199.645 192.719 199.968C193.484 200.463 194.417 200.607 195.315 200.677C196.528 200.788 197.746 200.834 198.964 200.814C199.894 200.798 200.853 200.735 201.684 200.31C201.887 200.205 202.078 200.079 202.254 199.933C202.891 200.048 203.544 199.706 204.044 199.268C204.706 198.704 205.183 197.953 205.413 197.112C205.706 195.959 205.48 194.615 206.187 193.672C206.375 193.42 206.62 193.216 206.805 192.96C207.032 192.618 207.144 192.211 207.123 191.801L207.155 191.753C207.315 191.382 207.422 190.991 207.474 190.59C207.557 190.277 207.664 189.971 207.792 189.673C208.151 188.782 208.464 187.873 208.728 186.949C208.912 186.336 209.057 185.712 209.161 185.08C209.238 184.576 209.283 184.068 209.324 183.56C209.375 182.765 209.529 181.98 209.782 181.225C210.411 179.423 210.766 177.537 210.837 175.629C210.837 175.591 210.837 175.556 210.837 175.517C211.761 175.416 212.615 174.972 213.23 174.272C213.846 173.573 214.179 172.668 214.165 171.736C214.165 171.173 214.048 170.617 213.821 170.103C214.26 169.33 214.488 168.454 214.483 167.564ZM196.474 189.511C196.528 189.705 196.592 189.9 196.656 190.095C196.363 189.804 196.073 189.504 195.777 189.217C195.894 189.252 196.012 189.29 196.127 189.332C196.249 189.38 196.366 189.44 196.477 189.511H196.474ZM195.047 188.552C193.309 187.038 191.296 185.863 189.516 184.4C190.471 184.882 191.426 185.441 192.382 185.978C193.494 186.617 194.62 187.228 195.758 187.811C195.571 188.095 195.333 188.342 195.057 188.54L195.047 188.552ZM195.789 184.739L195.872 184.652C195.872 184.866 195.872 185.068 195.872 185.25C195.716 185.199 195.554 185.147 195.404 185.09C195.542 184.977 195.671 184.856 195.793 184.726L195.789 184.739ZM180.481 188.84C181.197 188.028 181.82 187.137 182.338 186.186C183.025 187.396 184.146 188.268 185.102 189.281C183.567 189.063 182.029 188.894 180.484 188.827L180.481 188.84Z" fill="url(#paint0_linear_169_2322)"/>
<path d="M182.965 174.115L184.064 174.339L187.806 179.884L186.153 180.107L182.965 174.115Z" fill="#2F2E41"/>
<path d="M156.358 196.621C156.654 197.603 157.019 198.564 157.45 199.495C158.69 199.235 159.909 198.886 161.099 198.451C160.869 198.091 160.616 197.746 160.342 197.419C160.049 197.093 159.699 196.823 159.31 196.624C158.931 196.458 158.463 196.582 158.058 196.605C157.491 196.626 156.924 196.631 156.358 196.621Z" fill="#FBBEBE"/>
<path d="M159.316 198.103C158.698 197.908 158.319 197.282 158.068 196.678C157.816 196.074 157.612 195.416 157.135 194.972C157.044 194.987 156.958 195.023 156.884 195.079C156.811 195.135 156.753 195.208 156.714 195.292C156.622 195.452 156.568 195.634 156.463 195.787C156.265 196.074 155.915 196.215 155.663 196.461C155.412 196.707 155.256 197.08 154.985 197.326C154.609 197.597 154.171 197.767 153.711 197.818C153.017 197.976 152.347 198.225 151.718 198.559C151.485 198.695 151.237 198.802 150.979 198.879C150.694 198.933 150.403 198.943 150.116 198.908L148.132 198.764C147.955 198.742 147.777 198.75 147.603 198.789C147.401 198.86 147.228 198.996 147.113 199.177C146.997 199.358 146.946 199.572 146.966 199.786C146.993 199.999 147.063 200.204 147.172 200.388C147.282 200.572 147.429 200.732 147.603 200.856C147.948 201.103 148.328 201.297 148.73 201.431C150.459 202.083 152.238 202.592 154.049 202.954V203.347C155.307 203.972 156.692 204.3 158.096 204.305C158.205 204.315 158.315 204.296 158.415 204.251C158.544 204.156 158.634 204.018 158.67 203.862C159.146 202.466 159.423 201.01 159.494 199.537C159.531 199.164 159.503 198.788 159.412 198.425C159.303 198.067 159.673 198.218 159.329 198.077" fill="#2F2E41"/>
<path d="M197.353 190.603C191.471 190.961 185.662 189.229 179.771 189.044C179.04 189 178.306 189.047 177.586 189.185C176.836 189.386 176.11 189.669 175.421 190.028C172.265 191.5 168.997 192.721 165.733 193.941L161.988 195.34C161.236 195.618 160.463 195.902 159.663 195.854C159.307 195.832 158.87 195.777 158.666 196.078C158.058 196.981 158.348 198.313 158.749 199.329C158.88 199.649 159.1 200.016 159.45 200.054C159.698 200.037 159.94 199.976 160.166 199.872C160.848 199.69 161.529 200.15 162.23 200.223C163.099 200.316 163.905 199.821 164.724 199.518C166.08 199.016 167.564 199.032 168.991 198.793C171.386 198.393 173.602 197.279 175.679 196.007C176.468 195.525 177.271 195.008 178.175 194.832C179.217 194.627 180.29 194.896 181.312 195.186C183.749 195.878 186.148 196.698 188.5 197.643C189.724 198.176 190.979 198.635 192.258 199.016C195.045 199.752 197.994 199.58 200.678 198.524C201.633 198.151 202.639 197.493 202.694 196.474C202.725 195.892 202.276 195.381 201.977 194.877C201.783 194.557 201.592 194.238 201.381 193.934C200.369 192.452 199.14 190.494 197.353 190.603Z" fill="#2F2E41"/>
<path opacity="0.1" d="M197.353 190.603C191.471 190.961 185.662 189.229 179.771 189.044C179.04 189 178.306 189.047 177.586 189.185C176.836 189.386 176.11 189.669 175.421 190.028C172.265 191.5 168.997 192.721 165.733 193.941L161.988 195.34C161.236 195.618 160.463 195.902 159.663 195.854C159.307 195.832 158.87 195.777 158.666 196.078C158.058 196.981 158.348 198.313 158.749 199.329C158.88 199.649 159.1 200.016 159.45 200.054C159.698 200.037 159.94 199.976 160.166 199.872C160.848 199.69 161.529 200.15 162.23 200.223C163.099 200.316 163.905 199.821 164.724 199.518C166.08 199.016 167.564 199.032 168.991 198.793C171.386 198.393 173.602 197.279 175.679 196.007C176.468 195.525 177.271 195.008 178.175 194.832C179.217 194.627 180.29 194.896 181.312 195.186C183.749 195.878 186.148 196.698 188.5 197.643C189.724 198.176 190.979 198.635 192.258 199.016C195.045 199.752 197.994 199.58 200.678 198.524C201.633 198.151 202.639 197.493 202.694 196.474C202.725 195.892 202.276 195.381 201.977 194.877C201.783 194.557 201.592 194.238 201.381 193.934C200.369 192.452 199.14 190.494 197.353 190.603Z" fill="black"/>
<path d="M167.647 196.908C168.568 197.221 169.496 197.511 170.43 197.777C170.956 196.911 171.937 196.311 172.16 195.324C172.172 195.281 172.172 195.236 172.16 195.193C172.135 195.151 172.099 195.117 172.055 195.097C171.383 194.726 170.638 194.507 169.873 194.458C169.268 194.42 168.994 195.052 168.72 195.496C168.625 195.675 167.892 196.991 167.647 196.908Z" fill="#FBBEBE"/>
<path d="M168.943 196.276C168.668 196.23 168.406 196.127 168.173 195.973C167.94 195.82 167.741 195.619 167.59 195.384C167.459 195.158 167.322 194.851 167.061 194.867C166.8 194.883 166.711 195.17 166.657 195.41C166.48 196.305 166.226 197.182 165.895 198.032C165.563 198.885 164.999 199.627 164.268 200.176C163.927 200.412 163.548 200.591 163.214 200.84C162.935 201.089 162.637 201.316 162.322 201.517C162.101 201.619 161.872 201.704 161.638 201.773C161.295 201.893 160.966 202.052 160.66 202.249C160.391 202.406 160.163 202.625 159.994 202.887C159.913 203.02 159.865 203.171 159.855 203.327C159.845 203.483 159.873 203.639 159.937 203.782C160.006 203.897 160.098 203.997 160.208 204.075C160.317 204.153 160.442 204.206 160.574 204.232C160.842 204.277 161.116 204.283 161.386 204.251C162.459 204.171 163.529 204.076 164.599 203.98C165.052 203.952 165.503 203.89 165.946 203.794C166.182 203.737 166.411 203.66 166.644 203.6C167.045 203.497 167.456 203.437 167.87 203.421C167.99 203.412 168.111 203.423 168.227 203.456C168.475 203.536 168.65 203.775 168.905 203.833C169.069 203.85 169.235 203.828 169.389 203.769C170.172 203.603 170.971 203.519 171.771 203.52C172.121 203.501 172.535 203.433 172.695 203.117C172.895 202.724 172.564 202.284 172.43 201.862C172.364 201.592 172.327 201.316 172.319 201.038C172.259 200.352 172.058 199.685 171.73 199.08C171.456 198.575 171.093 198.02 171.274 197.483C171.372 197.315 171.434 197.129 171.456 196.937C171.411 196.071 169.427 196.391 168.943 196.276Z" fill="#2F2E41"/>
<path d="M188.535 181.142C187.493 180.681 186.658 179.849 186.191 178.807C186.095 178.584 186.013 178.35 185.92 178.124C185.61 177.374 185.131 176.707 184.519 176.175C184.454 176.103 184.373 176.046 184.284 176.008C184.194 175.97 184.097 175.952 184 175.955C183.906 175.983 183.821 176.036 183.754 176.108C183.687 176.179 183.64 176.268 183.618 176.364C183.563 176.572 183.549 176.789 183.576 177.003C183.631 177.498 183.716 177.99 183.831 178.475L184.118 179.778C184.154 179.978 184.214 180.174 184.296 180.36C184.419 180.578 184.581 180.772 184.774 180.931C185.035 181.174 185.299 181.407 185.567 181.634C185.714 181.768 185.875 181.886 186.048 181.985C186.33 182.12 186.632 182.208 186.943 182.247C188.111 182.464 189.299 182.777 190.283 183.525C190.283 183.525 190.283 182.653 190.261 182.567C190.249 182.314 190.162 182.071 190.012 181.867C189.643 181.468 189.006 181.35 188.535 181.142Z" fill="#FBBEBE"/>
<path opacity="0.1" d="M188.535 181.142C187.493 180.681 186.658 179.849 186.191 178.807C186.095 178.584 186.013 178.35 185.92 178.124C185.61 177.374 185.131 176.707 184.519 176.175C184.454 176.103 184.373 176.046 184.284 176.008C184.194 175.97 184.097 175.952 184 175.955C183.906 175.983 183.821 176.036 183.754 176.108C183.687 176.179 183.64 176.268 183.618 176.364C183.563 176.572 183.549 176.789 183.576 177.003C183.631 177.498 183.716 177.99 183.831 178.475L184.118 179.778C184.154 179.978 184.214 180.174 184.296 180.36C184.419 180.578 184.581 180.772 184.774 180.931C185.035 181.174 185.299 181.407 185.567 181.634C185.714 181.768 185.875 181.886 186.048 181.985C186.33 182.12 186.632 182.208 186.943 182.247C188.111 182.464 189.299 182.777 190.283 183.525C190.283 183.525 190.283 182.653 190.261 182.567C190.249 182.314 190.162 182.071 190.012 181.867C189.643 181.468 189.006 181.35 188.535 181.142Z" fill="black"/>
<path d="M200.509 171.177C201.299 171.177 201.939 170.53 201.939 169.733C201.939 168.936 201.299 168.289 200.509 168.289C199.719 168.289 199.079 168.936 199.079 169.733C199.079 170.53 199.719 171.177 200.509 171.177Z" fill="#2F2E41"/>
<path d="M199.624 168.861C199.24 168.773 198.837 168.831 198.493 169.024C198.328 169.17 198.196 169.351 198.108 169.554C197.786 170.105 197.536 170.696 197.363 171.311C197.235 171.838 197.213 172.387 197.044 172.908C196.751 173.866 196 174.68 195.914 175.68C195.875 176.127 195.949 176.654 195.624 176.958C195.543 177.026 195.457 177.087 195.366 177.14C195.14 177.292 194.948 177.49 194.802 177.721C194.705 177.929 194.57 178.116 194.404 178.274C194.111 178.491 193.63 178.469 193.487 178.804C193.344 179.139 193.713 179.529 193.627 179.893C193.557 180.19 193.226 180.328 192.99 180.532C192.722 180.817 192.534 181.169 192.445 181.551C191.967 181.641 191.475 181.627 191.003 181.508C190.53 181.39 190.089 181.17 189.71 180.864C190.108 181.851 190.118 182.94 190.133 184.004C190.179 184.344 190.089 184.689 189.882 184.962C191.022 184.988 192.13 185.282 193.242 185.547C193.717 185.706 194.231 185.706 194.707 185.547C194.961 185.409 195.188 185.228 195.379 185.01C195.984 184.394 196.617 183.732 196.764 182.873C196.803 182.39 196.811 181.904 196.789 181.42C196.848 180.822 196.971 180.232 197.156 179.66C197.475 178.473 197.689 177.26 197.792 176.035C197.859 175.278 198.509 174.671 198.853 173.994C199.49 172.716 200.159 171.391 200.21 169.96C200.254 169.493 200.095 168.922 199.624 168.861Z" fill="#2F2E41"/>
<path opacity="0.1" d="M199.624 168.861C199.24 168.773 198.837 168.831 198.493 169.024C198.328 169.17 198.196 169.351 198.108 169.554C197.786 170.105 197.536 170.696 197.363 171.311C197.235 171.838 197.213 172.387 197.044 172.908C196.751 173.866 196 174.68 195.914 175.68C195.875 176.127 195.949 176.654 195.624 176.958C195.543 177.026 195.457 177.087 195.366 177.14C195.14 177.292 194.948 177.49 194.802 177.721C194.705 177.929 194.57 178.116 194.404 178.274C194.111 178.491 193.63 178.469 193.487 178.804C193.344 179.139 193.713 179.529 193.627 179.893C193.557 180.19 193.226 180.328 192.99 180.532C192.722 180.817 192.534 181.169 192.445 181.551C191.967 181.641 191.475 181.627 191.003 181.508C190.53 181.39 190.089 181.17 189.71 180.864C190.108 181.851 190.118 182.94 190.133 184.004C190.179 184.344 190.089 184.689 189.882 184.962C191.022 184.988 192.13 185.282 193.242 185.547C193.717 185.706 194.231 185.706 194.707 185.547C194.961 185.409 195.188 185.228 195.379 185.01C195.984 184.394 196.617 183.732 196.764 182.873C196.803 182.39 196.811 181.904 196.789 181.42C196.848 180.822 196.971 180.232 197.156 179.66C197.475 178.473 197.689 177.26 197.792 176.035C197.859 175.278 198.509 174.671 198.853 173.994C199.49 172.716 200.159 171.391 200.21 169.96C200.254 169.493 200.095 168.922 199.624 168.861Z" fill="black"/>
<path d="M198.286 191.845C197.06 191.261 196.165 190.172 195.175 189.239C193.283 187.457 190.971 186.198 188.984 184.528C187.669 183.423 186.49 182.135 185.041 181.209C183.767 180.394 182.322 179.885 180.819 179.724C180.647 179.694 180.471 179.703 180.303 179.749C180.113 179.835 179.947 179.967 179.822 180.133C179.18 180.858 178.609 181.645 178.118 182.48C175.599 186.767 172.023 190.373 169.058 194.362C168.963 194.456 168.906 194.583 168.9 194.716C168.893 194.85 168.937 194.981 169.023 195.084L169.625 196.269C169.962 196.93 170.504 197.703 171.217 197.572C171.544 197.478 171.837 197.29 172.061 197.033L174.768 194.436L177.605 191.714C179.268 190.117 180.959 188.488 182.045 186.451C182.892 187.923 184.395 188.888 185.427 190.239C185.818 190.75 186.137 191.315 186.487 191.858C187.051 192.73 187.688 193.548 188.325 194.362L191.583 198.531C191.994 199.124 192.503 199.643 193.089 200.064C193.859 200.552 194.799 200.683 195.707 200.763C196.929 200.875 198.157 200.92 199.385 200.897C200.321 200.881 201.296 200.821 202.124 200.402C202.952 199.984 203.655 199.125 203.611 198.189C203.56 197.698 203.4 197.226 203.143 196.806C201.993 194.666 200.471 192.877 198.286 191.845Z" fill="#2F2E41"/>
<path d="M201.388 171.841C201.995 171.841 202.487 171.345 202.487 170.733C202.487 170.12 201.995 169.624 201.388 169.624C200.781 169.624 200.289 170.12 200.289 170.733C200.289 171.345 200.781 171.841 201.388 171.841Z" fill="#E8E8F0"/>
<path d="M201.146 169.899C201.394 170.395 201.438 170.968 201.267 171.496C201.097 172.015 200.859 172.509 200.56 172.965C200.302 173.436 199.994 173.878 199.64 174.281C201.337 174.364 202.983 173.697 204.48 172.885C205.687 172.247 206.891 171.432 207.534 170.215C207.343 170.261 207.144 170.266 206.95 170.23C206.757 170.195 206.573 170.119 206.41 170.008C206.086 169.781 205.796 169.51 205.547 169.203L204.697 168.244C204.496 168.034 204.32 167.802 204.171 167.551C203.985 167.211 203.906 166.823 203.945 166.437C203.607 166.792 203.228 167.107 202.818 167.376C202.209 167.775 201.544 168.062 200.929 168.455C200.713 168.596 200.232 168.823 200.356 169.094C200.48 169.366 200.974 169.592 201.146 169.899Z" fill="#FBBEBE"/>
<path opacity="0.1" d="M201.146 169.899C201.394 170.395 201.438 170.968 201.267 171.496C201.097 172.015 200.859 172.509 200.56 172.965C200.302 173.436 199.994 173.878 199.64 174.281C201.337 174.364 202.983 173.697 204.48 172.885C205.687 172.247 206.891 171.432 207.534 170.215C207.343 170.261 207.144 170.266 206.95 170.23C206.757 170.195 206.573 170.119 206.41 170.008C206.086 169.781 205.796 169.51 205.547 169.203L204.697 168.244C204.496 168.034 204.32 167.802 204.171 167.551C203.985 167.211 203.906 166.823 203.945 166.437C203.607 166.792 203.228 167.107 202.818 167.376C202.209 167.775 201.544 168.062 200.929 168.455C200.713 168.596 200.232 168.823 200.356 169.094C200.48 169.366 200.974 169.592 201.146 169.899Z" fill="black"/>
<path d="M201.168 170.065C200.996 170.308 200.904 170.599 200.904 170.897C200.904 171.195 200.996 171.486 201.168 171.729C201.216 171.79 201.397 172.17 201.487 172.173C201.562 172.167 201.631 172.131 201.681 172.074C202.066 171.671 202.425 171.244 202.757 170.796C203.093 170.343 203.578 170.024 204.127 169.896C204.792 169.79 205.432 170.145 206.015 170.483C206.266 170.608 206.484 170.79 206.652 171.014C206.775 171.236 206.848 171.482 206.865 171.736C207.033 173.258 207.096 174.791 207.056 176.322C207.087 177.426 207.015 178.531 206.84 179.622C206.732 180.184 206.569 180.733 206.493 181.302C206.437 181.802 206.415 182.306 206.426 182.809V184.917C206.412 185.304 206.44 185.69 206.509 186.071C206.64 186.524 206.794 186.971 206.97 187.409C207.126 187.93 207.232 188.465 207.289 189.006L207.576 191.187C207.668 191.877 207.735 192.628 207.318 193.181C207.133 193.433 206.884 193.631 206.681 193.88C205.964 194.794 206.203 196.119 205.885 197.253C205.649 198.085 205.167 198.826 204.502 199.377C203.996 199.808 203.34 200.15 202.684 200.016C201.802 199.85 201.27 198.927 201.028 198.055C200.786 197.183 200.71 196.231 200.178 195.499C199.751 194.896 199.092 194.519 198.496 194.088C197.901 193.656 197.315 193.104 197.184 192.376C197.127 192.056 197.162 191.737 197.13 191.417C197.083 191.01 196.927 190.624 196.679 190.298C196.432 189.972 196.101 189.719 195.722 189.565C195.27 189.389 194.71 189.325 194.449 188.926C195.097 188.518 195.57 187.881 195.773 187.141C195.971 186.411 196.078 185.66 196.092 184.905L196.245 182.369C196.312 181.235 196.343 180.11 196.84 179.091C197.063 178.638 197.34 178.21 197.57 177.76C197.877 177.127 198.138 176.474 198.353 175.805C198.713 174.767 199.076 173.725 199.397 172.675C199.526 172.166 199.719 171.675 199.971 171.215C200.267 170.736 200.659 170.161 201.168 170.065Z" fill="#E8E8F0"/>
<path d="M195.554 186.543L196.222 186.566L196.366 185.553C196.385 185.351 196.432 185.152 196.506 184.962C196.617 184.762 196.746 184.573 196.891 184.397C197.55 183.464 197.503 182.225 197.665 181.091C197.882 179.58 198.512 178.162 199.136 176.769L200.436 173.866C200.551 173.627 200.644 173.378 200.713 173.122C200.769 172.839 200.796 172.551 200.792 172.263C200.792 171.815 200.939 170.183 200.948 169.733C200.948 169.567 200.585 169.659 200.509 169.512C200.346 169.193 200.124 170.062 199.818 170.253C199.53 170.474 199.32 170.782 199.219 171.132C198.939 171.863 198.767 172.633 198.506 173.368C198.277 174.12 197.859 174.801 197.292 175.345C197.028 175.581 196.719 175.766 196.468 176.016C195.659 176.817 195.582 178.082 195.554 179.21C195.535 179.909 195.404 186.543 195.554 186.543Z" fill="#2F2E41"/>
<path d="M205.187 168.854C204.55 169.11 204.181 169.813 203.999 170.496C203.818 171.18 203.741 171.902 203.391 172.508C202.576 173.933 200.496 174.348 199.92 175.888C199.773 176.408 199.695 176.945 199.687 177.485C199.585 178.587 199.222 179.654 199.114 180.756C199.058 181.613 199.078 182.473 199.175 183.327L199.904 192.024C200.045 193.305 199.971 194.601 199.684 195.857C200.432 195.965 201.195 195.839 201.869 195.496C202.553 195.177 203.178 194.755 203.834 194.391C204.964 193.752 206.213 193.321 207.2 192.475C207.379 192.335 207.533 192.165 207.655 191.973C207.814 191.608 207.921 191.222 207.974 190.826C208.057 190.519 208.164 190.218 208.292 189.926C208.658 189.049 208.977 188.153 209.247 187.243C209.433 186.639 209.579 186.023 209.684 185.4C209.763 184.905 209.805 184.403 209.849 183.905C209.9 183.121 210.056 182.348 210.311 181.605C210.943 179.834 211.3 177.976 211.372 176.095C211.394 175.824 211.375 175.55 211.317 175.284C211.207 174.961 211.06 174.653 210.878 174.364C210.575 173.793 210.394 173.163 210.107 172.585C209.47 171.276 208.327 170.282 207.133 169.449C206.521 169.043 205.849 168.602 205.187 168.854Z" fill="#2F2E41"/>
<path d="M189.984 183.046C189.467 182.775 188.998 182.418 188.598 181.992C188.417 181.778 188.28 181.538 188.083 181.327C187.615 180.827 187.008 180.48 186.341 180.331C185.678 180.184 185 180.119 184.322 180.136C183.868 180.105 183.413 180.16 182.981 180.299C182.764 180.37 182.568 180.495 182.412 180.663C182.256 180.83 182.145 181.035 182.089 181.257C181.99 181.8 182.344 182.327 182.767 182.672C183.161 182.995 183.625 183.221 184.121 183.333C184.526 183.404 184.934 183.452 185.344 183.477C187.751 183.729 189.901 185.042 192.009 186.24C193.863 187.29 195.752 188.272 197.678 189.188C197.754 188.61 197.786 188.027 197.773 187.444C197.773 187.01 197.741 186.345 197.331 186.09C196.853 185.789 196.057 185.722 195.528 185.544C194.287 185.137 193.075 184.646 191.901 184.074C191.235 183.752 190.598 183.41 189.984 183.046Z" fill="#FBBEBE"/>
<path d="M200.509 169.404C202.878 169.404 204.799 167.466 204.799 165.076C204.799 162.686 202.878 160.748 200.509 160.748C198.14 160.748 196.219 162.686 196.219 165.076C196.219 167.466 198.14 169.404 200.509 169.404Z" fill="#FBBEBE"/>
<path d="M206.413 173.761C206.072 174.242 205.792 174.764 205.582 175.316C205.05 176.412 204.219 177.351 203.805 178.51C203.365 179.714 203.381 181.148 202.531 182.097C202.36 182.241 202.231 182.429 202.159 182.64C202.153 182.772 202.138 182.903 202.114 183.033C201.993 183.378 201.429 183.394 201.324 183.745C201.295 183.847 201.324 183.959 201.273 184.065C201.187 184.291 200.891 184.323 200.69 184.461C200.273 184.745 200.372 185.403 200.054 185.812C199.924 185.964 199.757 186.078 199.569 186.145C199.381 186.211 199.179 186.226 198.983 186.189C198.593 186.106 198.217 185.965 197.869 185.77C197.746 185.701 197.611 185.659 197.471 185.646C197.305 185.649 197.143 185.704 197.009 185.802C196.216 186.307 195.843 187.31 195.85 188.255C195.906 189.201 196.129 190.129 196.509 190.996C196.554 191.146 196.629 191.285 196.729 191.405C196.99 191.683 197.448 191.638 197.799 191.481C198.127 191.286 198.476 191.13 198.84 191.015C199.503 190.894 200.152 191.354 200.824 191.315C201.316 191.24 201.779 191.035 202.165 190.721C202.847 190.306 203.458 189.783 203.974 189.172C204.267 188.786 204.483 188.345 204.741 187.933C205.071 187.426 205.432 186.942 205.824 186.483L208.298 183.445C208.547 183.157 208.769 182.849 208.964 182.522C209.187 182.08 209.361 181.615 209.483 181.136C209.748 180.335 209.92 179.507 209.996 178.667C210.008 177.971 209.948 177.276 209.814 176.594C209.731 175.915 209.552 175.251 209.282 174.623C208.732 173.505 207.423 172.579 206.413 173.761Z" fill="#2F2E41"/>
<path d="M215.031 168.123C215.034 167.356 214.856 166.598 214.51 165.914C214.165 165.229 213.662 164.636 213.043 164.185C213.025 162.822 212.524 161.511 211.631 160.485C210.738 159.458 209.511 158.783 208.168 158.579C207.908 157.289 207.203 156.132 206.176 155.312C205.149 154.492 203.867 154.062 202.555 154.097C201.243 154.133 199.985 154.632 199.004 155.506C198.023 156.38 197.38 157.574 197.191 158.876C195.407 158.474 193.777 158.998 193.48 160.1C193.162 161.253 194.436 162.601 196.321 163.112C196.912 163.279 197.527 163.341 198.14 163.294C198.578 163.939 199.146 164.486 199.807 164.898C200.469 165.311 201.209 165.58 201.98 165.689C202.207 166.731 202.719 167.689 203.459 168.455C204.198 169.22 205.137 169.764 206.168 170.024C206.453 170.715 206.896 171.33 207.461 171.819C207.461 171.953 207.439 172.09 207.439 172.231C207.418 172.722 207.497 173.212 207.67 173.671C207.843 174.131 208.107 174.551 208.446 174.906C208.786 175.26 209.193 175.543 209.643 175.735C210.094 175.928 210.579 176.028 211.069 176.028C211.559 176.028 212.044 175.928 212.495 175.735C212.945 175.543 213.352 175.26 213.692 174.906C214.031 174.551 214.295 174.131 214.468 173.671C214.641 173.212 214.72 172.722 214.699 172.231C214.7 171.679 214.581 171.135 214.352 170.634C214.8 169.873 215.034 169.006 215.031 168.123Z" fill="#F86D70"/>
<path opacity="0.1" d="M194.691 160.32C194.987 159.218 196.601 158.694 198.401 159.097C198.61 157.774 199.279 156.568 200.288 155.691C201.298 154.814 202.584 154.324 203.92 154.306C204.044 154.306 204.168 154.306 204.289 154.306C203.773 154.148 203.236 154.068 202.697 154.069C201.361 154.087 200.075 154.578 199.065 155.455C198.056 156.331 197.387 157.537 197.178 158.86C195.394 158.458 193.764 158.982 193.468 160.084C193.149 161.237 194.423 162.585 196.308 163.096C196.659 163.193 197.019 163.255 197.382 163.281C195.592 162.757 194.388 161.447 194.691 160.32Z" fill="black"/>
<path opacity="0.1" d="M208.649 172.454C208.649 172.314 208.649 172.176 208.671 172.039C208.106 171.551 207.663 170.938 207.378 170.247C206.348 169.985 205.41 169.44 204.671 168.674C203.931 167.908 203.419 166.951 203.19 165.91C202.419 165.801 201.679 165.532 201.017 165.12C200.356 164.707 199.788 164.16 199.35 163.514C198.993 163.542 198.634 163.533 198.28 163.485C198.72 164.08 199.274 164.582 199.909 164.96C200.544 165.339 201.248 165.586 201.98 165.689C202.207 166.731 202.719 167.689 203.459 168.455C204.198 169.22 205.137 169.764 206.168 170.024C206.453 170.715 206.896 171.33 207.461 171.819C207.461 171.953 207.439 172.09 207.439 172.231C207.422 173.21 207.793 174.156 208.47 174.862C209.146 175.568 210.074 175.977 211.05 176C210.337 175.724 209.726 175.237 209.297 174.603C208.868 173.97 208.642 173.22 208.649 172.454Z" fill="black"/>
<path d="M202.471 166.662C202.763 166.44 202.76 165.944 202.465 165.555C202.171 165.166 201.696 165.031 201.404 165.253C201.113 165.475 201.116 165.97 201.41 166.359C201.705 166.748 202.18 166.884 202.471 166.662Z" fill="#FBBEBE"/>
<path d="M99.9328 188.198L104.175 185.697C103.601 184.714 102.868 183.834 102.006 183.094L94.0063 185.588L100.274 181.893C98.7216 181.04 96.9751 180.608 95.206 180.638C93.4368 180.668 91.706 181.16 90.1837 182.064C88.6615 182.969 87.4004 184.256 86.5244 185.798C85.6485 187.34 85.188 189.084 85.1881 190.858C85.1881 196.502 89.7516 196.697 95.3788 196.697C101.006 196.697 105.57 196.502 105.57 190.858C105.573 189.428 105.274 188.013 104.694 186.706L99.9328 188.198Z" fill="#FFC916"/>
<path opacity="0.1" d="M101.012 193.685C100.561 193.231 100.056 192.833 99.5093 192.5C98.7418 191.986 97.9424 191.462 97.0348 191.29C96.2387 191.136 95.4171 191.267 94.605 191.219C93.1949 191.133 91.8676 190.523 90.8822 189.507C90.3026 188.907 89.8472 188.169 89.1498 187.709C88.3703 187.245 87.4505 187.076 86.5575 187.233C86.2987 187.269 86.0424 187.322 85.79 187.39C85.3908 188.502 85.1872 189.676 85.1881 190.858C85.1881 196.502 89.7516 196.697 95.3788 196.697C98.1112 196.697 100.589 196.652 102.42 195.959L102.102 195.388C101.812 194.776 101.446 194.204 101.012 193.685Z" fill="black"/>
</g>
<defs>
<linearGradient id="paint0_linear_169_2322" x1="180.726" y1="204.305" x2="180.726" y2="153.315" gradientUnits="userSpaceOnUse">
<stop stop-color="#808080" stop-opacity="0.25"/>
<stop offset="0.54" stop-color="#808080" stop-opacity="0.12"/>
<stop offset="1" stop-color="#808080" stop-opacity="0.1"/>
</linearGradient>
<clipPath id="clip0_169_2322">
<rect width="364" height="212" fill="white"/>
</clipPath>
</defs>
</svg>
