<svg width="473" height="365" fill="none" xmlns="http://www.w3.org/2000/svg"><path d="M299.241 364.072s-7.25-17.737 14.499-31.039l-14.499 31.039zm-8.917-.323s-2.211-12.642-19.328-12.533l19.328 12.533zm163.52.323s-9.578-23.433 19.156-41.007l-19.156 41.007zm-11.779-.427s-2.922-16.701-25.536-16.558l25.536 16.558z" fill="#E6E6E6"/><path d="M274.703 101.459l-9.459-4.993.708-.374 9.459 4.994-.708.373z" fill="#CBCBCB"/><path d="M266.452 101.459l-.707-.373 9.458-4.994.708.374-9.459 4.993zM196.05 62.752l-.456.885 2.672 1.361.456-.885-2.672-1.361zm55.401 29.333l-5.318-2.708.456-.886 5.319 2.709-.457.885zm-10.637-5.417l-5.318-2.709.456-.885 5.319 2.709-.457.885zm-10.637-5.418l-5.318-2.708.456-.886 5.319 2.709-.457.885zm-10.637-5.417l-5.319-2.709.457-.885 5.318 2.708-.456.886zm-10.637-5.418l-5.319-2.708.457-.886 5.318 2.709-.456.885zm48.323 23.494l-.456.885 2.672 1.36.457-.884-2.673-1.361z" fill="#CBCBCB"/><path d="M55.468 129.344a13.928 13.928 0 01-1.35 6.007l-.019.039a13.712 13.712 0 01-.859 1.536 14.112 14.112 0 01-4.99 4.694 14.223 14.223 0 01-6.628 1.805l.14 8.01 1.828-.956.326.616-2.14 1.12.261 14.878.003.198-1.413.313.003-.2.445-23.978a14.21 14.21 0 01-5.434-1.165 14.122 14.122 0 01-4.826-3.437l-.01-.011a14.1 14.1 0 01-2.58-3.97l.041.046a14.01 14.01 0 01-.27-10.405 14.12 14.12 0 016.991-7.749l.148-.072a14.267 14.267 0 0110.277-.789 14.173 14.173 0 018.351 6.773 13.945 13.945 0 011.705 6.697z" fill="#E5E5E5"/><path d="M53.56 135.398c10.26 0 18.575-8.266 18.575-18.461 0-10.196-8.316-18.462-18.574-18.462-10.26 0-18.575 8.266-18.575 18.462 0 10.195 8.316 18.461 18.575 18.461z" fill="#E5E5E5"/><path d="M39.845 104.606a18.358 18.358 0 00-.663 12.722 18.478 18.478 0 007.785 10.12 18.669 18.669 0 0012.526 2.701 18.61 18.61 0 0011.304-6.004 18.465 18.465 0 01-4.643 6.456 18.62 18.62 0 01-6.94 3.923 18.69 18.69 0 01-7.956.665 18.647 18.647 0 01-7.503-2.716 18.52 18.52 0 01-5.662-5.595 18.392 18.392 0 01-2.776-7.44c-.372-2.651-.16-5.35.622-7.911a18.43 18.43 0 013.906-6.921z" fill="#000"/><path d="M54.565 168.367l-1.897-.529.004-.203.569-30.709.028-1.531v-.044l.244-13.142v-.001l.098-5.271h.052l.1 5.71.224 12.707v.039l.004.217v.001l.574 32.756z" fill="#3F3D56"/><path d="M56.566 144.639l-3.07 1.606.427.808 3.07-1.607-.427-.807z" fill="#3F3D56"/><path d="M294.347 57.189a476.042 476.042 0 00-70.351 1.075c-11.275 1.012-22.728 2.106-33.794 4.55-8.913 1.97-19.257 5.297-24.811 13.047a12.553 12.553 0 00-2.29 5.282 12.513 12.513 0 00.312 5.744c1.324 4.418 4.618 8.095 8.126 10.976 8.074 6.629 18.092 10.487 27.04 15.754 16.339 9.616 31.292 22.578 40.889 39.043 4.224 7.245 8.241 16.879 3.539 24.863-4.608 7.821-14.892 10.516-23.28 11.786-10.513 1.593-21.342 1.161-31.898.269a334.402 334.402 0 01-34.48-5.019c-22.327-4.261-44.451-9.681-67.089-12.146a195.461 195.461 0 00-34.206-.983c-10.303.69-20.695 2.31-30.375 6.003-7.458 2.845-15.41 7.15-19.438 14.33-3.884 6.92-2.369 14.901 1.86 21.287 5.088 7.682 13.023 12.947 21.272 16.795 9.392 4.381 19.438 7.221 29.497 9.636 5.102 1.225 10.23 2.333 15.36 3.434 1.07.23 1.528-1.404.454-1.634-10.345-2.222-20.719-4.451-30.806-7.667-9.335-2.976-18.888-6.788-26.533-13.037-6.184-5.055-12.064-12.44-11.7-20.835.369-8.464 7.514-14.373 14.517-18.011 8.751-4.545 18.694-6.76 28.438-7.917a173.843 173.843 0 0133.592-.454c22.584 1.708 44.664 6.821 66.807 11.281 21.511 4.332 43.694 8.344 65.739 7.233 8.738-.44 18.101-1.685 25.816-6.068 3.532-2.007 6.717-4.838 8.513-8.521a18.985 18.985 0 001.467-11.212c-1.251-8.346-6.239-16.084-11.215-22.731a110.121 110.121 0 00-18.839-19.396 148.755 148.755 0 00-24.928-16.14c-4.684-2.451-9.433-4.807-13.897-7.646-4.279-2.721-8.501-5.996-11.114-10.414-2.26-3.822-2.675-8.183-.32-12.059 2.381-3.92 6.483-6.654 10.529-8.651 9.747-4.814 21.079-6.102 31.744-7.423a472.39 472.39 0 0169.043-3.421c5.607.13 11.21.361 16.81.692 1.096.064 1.093-1.631 0-1.695z" fill="#000"/><path d="M279.474 2.855l3.541-2.816c-2.751-.301-3.881 1.19-4.344 2.37-2.149-.887-4.489.276-4.489.276l7.086 2.556a5.337 5.337 0 00-1.794-2.386zm-17.187 8.912l3.542-2.815c-2.751-.302-3.882 1.19-4.345 2.37-2.149-.888-4.489.275-4.489.275l7.086 2.556a5.33 5.33 0 00-1.794-2.386zm17.187 14.111l3.541-2.816c-2.751-.301-3.881 1.19-4.344 2.37-2.149-.887-4.489.276-4.489.276l7.086 2.556a5.337 5.337 0 00-1.794-2.386z" fill="#3F3D56"/><path d="M226.383 30.048c5.893 0 10.67-4.747 10.67-10.604 0-5.857-4.777-10.605-10.67-10.605-5.892 0-10.669 4.748-10.669 10.605s4.777 10.604 10.669 10.604z" fill="#FF6583"/><path d="M259.842 52.121h-52.343a1.072 1.072 0 01-.196-.015L232.06 9.49a1.727 1.727 0 011.508-.875 1.74 1.74 0 011.508.875l24.766 42.631z" fill="#FFC916"/><path d="M288.983 52.122h-45.271l20.835-30.081a2.322 2.322 0 013.436-.204c.059.064.114.132.164.204l20.836 30.08z" fill="#FFC916"/><path d="M214.306 149.862c4.962 2.464 7.982 5.719 7.982 9.29 0 7.691-14.002 13.925-31.275 13.925-7.51 0-14.4-1.179-19.791-3.143 5.726 2.844 14.039 4.635 23.294 4.635 17.272 0 31.275-6.234 31.275-13.925 0-4.347-4.475-8.228-11.485-10.782z" fill="#F1F1F1"/><path d="M225.342 155.145c5.598 2.781 9.007 6.454 9.007 10.482 0 8.679-15.801 15.714-35.291 15.714-8.474 0-16.248-1.331-22.332-3.548 6.462 3.21 15.842 5.231 26.285 5.231 19.49 0 35.29-7.035 35.29-15.713 0-4.905-5.05-9.285-12.959-12.166z" fill="#F1F1F1"/><path d="M210.083 152.189c3.495 1.736 5.623 4.029 5.623 6.545 0 5.418-9.865 9.811-22.034 9.811a41.61 41.61 0 01-13.943-2.215c4.034 2.004 9.891 3.266 16.411 3.266 12.169 0 22.034-4.393 22.034-9.811 0-3.063-3.153-5.797-8.091-7.596z" fill="#F1F1F1"/><path d="M160.971 151.194s.768 11.158 22.786 11.158 28.591-11.158 28.591-11.158h-51.377zm31.252-29.276a15.524 15.524 0 00-11.133-3.027 15.518 15.518 0 018.839 5.825 15.347 15.347 0 013.006 10.108 15.37 15.37 0 01-4.232 9.665 15.541 15.541 0 01-9.491 4.703c3.464.831 7.11.452 10.326-1.075a15.468 15.468 0 007.331-7.307 15.33 15.33 0 001.052-10.266 15.406 15.406 0 00-5.698-8.626z" fill="#3F3D56"/><path d="M185.008 116.877h-1.501v35.516h1.501v-35.516z" fill="#3F3D56"/><path d="M283.667 90.489l-.008-.014-.02-.867 4.703-6.787-4.697 6.137-.017.184-.161-6.937 4.062-7.036-4.074 5.817.043-14.37v-.049l-.001.047-.27 11.327-3.702-4.601 3.69 5.576-.081 6.205-3.407-6.055 3.394 6.967-.178 13.723c.314.003.624-.002.932-.015l-.214-9.181.006-.071zm-22.518 2.984l-.008-.014-.02-.867 4.703-6.787-4.698 6.137-.017.184-.16-6.937 4.062-7.036-4.074 5.817.043-14.37-.001-.049-.001.047-.27 11.327-3.702-4.6 3.69 5.576-.08 6.204-3.407-6.055 3.394 6.968-.179 13.722c.314.003.625-.002.932-.015l-.213-9.181.006-.071zm11.009-9.45l-.008-.013-.02-.868 4.703-6.787-4.698 6.138-.017.183-.16-6.937 4.062-7.036-4.074 5.818.043-14.371-.001-.048-.001.047-.27 11.326-3.702-4.6 3.69 5.576-.08 6.205-3.407-6.056 3.394 6.968-.179 13.723c.314.002.625-.003.932-.016l-.213-9.18.006-.072z" fill="#CBCBCB"/><path d="M86.177 249.172c3.317 0 6.005-2.672 6.005-5.968s-2.688-5.969-6.005-5.969c-3.316 0-6.005 2.673-6.005 5.969 0 3.296 2.689 5.968 6.005 5.968z" fill="#FFC916"/><path d="M406.697 353.371l-5.559 2.053-10.612-20.335 8.205-3.029 7.966 21.311z" fill="#FFB7B7"/><path d="M410.117 358.203l-17.925 6.62-.084-.226a7.353 7.353 0 01.21-5.657 7.428 7.428 0 014.174-3.854l10.949-4.042 2.676 7.159z" fill="#2F2E41"/><path d="M351.988 359.109h-5.931l-2.821-22.735h8.753l-.001 22.735z" fill="#FFB7B7"/><path d="M353.017 364.823l-19.123-.001v-.24c0-1.962.784-3.844 2.18-5.231a7.468 7.468 0 015.263-2.167l11.68.001v7.638zm26.123-163.392l-1.935-3.847-16.447 8.174.483 3.365-3.144 4.087s-5.321 2.885-4.354 12.5l.968 9.135 1.209 11.779-8.465 29.088-4.354 38.462-3.144 31.011 15.238-.721 14.028-50.482 24.671 54.328 16.931-4.327-23.22-53.848-2.902-22.597s1.935-12.019-7.256-20.193l1.451-4.327v-5.332l4.837-25.438-4.595-10.817z" fill="#2F2E41"/><path d="M379.592 256.404l-10.642 37.501.547.153 10.642-37.501-.547-.153z" fill="#000"/><path d="M378.656 246.624h-23.703v2.404h23.703v-2.404z" fill="#3F3D56"/><path d="M354.953 250.471c.534 0 .967-1.077.967-2.404 0-1.328-.433-2.404-.967-2.404-.535 0-.968 1.076-.968 2.404 0 1.327.433 2.404.968 2.404z" fill="#3F3D56"/><path d="M371.827 195.213c6.249-3.395 8.545-11.182 5.129-17.392-3.416-6.211-11.25-8.493-17.499-5.098-6.249 3.395-8.545 11.181-5.129 17.392 3.416 6.21 11.25 8.493 17.499 5.098z" fill="#FFB7B7"/><path d="M385.373 179.393c6.3 0 11.408-5.076 11.408-11.338 0-6.261-5.108-11.337-11.408-11.337s-11.407 5.076-11.407 11.337c0 6.262 5.107 11.338 11.407 11.338z" fill="#2F2E41"/><path d="M399.849 166.841a11.268 11.268 0 01-1.132 9.036 11.373 11.373 0 01-3.169 3.424 11.462 11.462 0 01-13.254.007 11.309 11.309 0 01-4.697-7.818 11.348 11.348 0 005.097 6.506 11.469 11.469 0 008.183 1.354 11.421 11.421 0 006.943-4.514 11.287 11.287 0 002.029-7.995z" fill="#2F2E41"/><path d="M354.784 180.41a13.334 13.334 0 001.841 8.417 13.473 13.473 0 006.614 5.566 13.574 13.574 0 008.657.416 13.492 13.492 0 007.124-4.905 13.347 13.347 0 002.65-8.201 13.352 13.352 0 00-2.918-8.111 13.49 13.49 0 00-7.282-4.671 13.564 13.564 0 00-8.638.697c-2.253-1.806-5.045-1.246-7.316.66-2.568 2.154-3.33 3.635-5.321 7.178 1.958.273 2.631 2.68 4.589 2.954z" fill="#2F2E41"/><path d="M402.181 218.95c-.144 3.798-.43 11.274-.43 11.655 0 .402-5.702 12.137-8.166 17.187v.003l-.471.963a2.285 2.285 0 01-2.105 1.285l-10.766-.192a2.302 2.302 0 01-1.577-.661 2.275 2.275 0 01-.678-1.562l-1.201-47.074a1.155 1.155 0 01.332-.842 1.184 1.184 0 01.838-.351h13.884a3.124 3.124 0 012.809 1.751l6.663 13.702a8.7 8.7 0 01.868 4.136z" fill="#FFC916"/><path d="M377.801 244.398a30.772 30.772 0 01-7.356-6.179 33.795 33.795 0 01-8.502-19.712c-.547-6.256.701-10.907 3.712-13.822 3.827-3.706 9.036-3.167 9.256-3.143l.233.027 3.529 2.967-.999 1.173-3.157-2.655c-.967-.048-4.913-.059-7.795 2.744-2.654 2.579-3.743 6.81-3.239 12.576a32.284 32.284 0 008.077 18.779 29.9 29.9 0 006.987 5.899l-.746 1.346z" fill="#FFC916"/><path d="M397.834 226.514l-18.811 3.839.104.502 18.811-3.84-.104-.501z" fill="#3F3D56"/><path d="M385.436 199.35l-.515.021 1.222 29.749.515-.021-1.222-29.749zm16.745 19.6c-.144 3.798-.43 11.274-.43 11.655 0 .402-5.702 12.137-8.166 17.187l4.592-26.499a5.832 5.832 0 011.295-2.765 5.883 5.883 0 012.521-1.74c.155.71.218 1.436.188 2.162z" fill="#3F3D56"/><path d="M373.97 274.484a4.488 4.488 0 00.026-5.494 4.528 4.528 0 00-1.502-1.261l.934-10.261-6.136-2.084-1.113 14.508a4.513 4.513 0 001.843 5.735 4.582 4.582 0 005.948-1.143z" fill="#FFB7B7"/><path d="M374.771 264.556l-10.871-.392.46-52.107a7.003 7.003 0 011.311-4.115 7.066 7.066 0 013.483-2.579 6.464 6.464 0 014.044-.004 7.076 7.076 0 013.635 2.784 7.003 7.003 0 011.152 4.416l-3.214 51.997zM470.142 365H253.547a.562.562 0 01-.402-.965.574.574 0 01.402-.165h216.595a.562.562 0 01.402.965.574.574 0 01-.402.165z" fill="#CBCBCB"/></svg>