<svg width="274" height="264" fill="none" xmlns="http://www.w3.org/2000/svg"><g clip-path="url(#clip0_146_696)"><path d="M102.632 249.892l7.173-.001 3.411-27.078h-10.585l.001 27.079z" fill="#FFB7B7"/><path d="M112.191 250.524v-4.76l-1.885.113-7.676.445-1.776.107-1.358 15.94-.073.854h5.093l.163-.848.74-3.858 1.91 3.858.418.848h13.502a3.08 3.08 0 002.14-.877c.568-.556.888-1.31.892-2.096.57-2.605-10.659-8.237-12.09-9.726z" fill="#2F2E41"/><path d="M54.353 243.281l6.597 2.753 13.992-23.597-9.737-4.064-10.852 24.908z" fill="#FFB7B7"/><path d="M62.893 247.533l1.907-4.378-1.78-.62-7.238-2.538-1.677-.584-7.638 14.14-.41.758 4.685 1.956.49-.718 2.227-3.264.21 4.281.046.941 12.42 5.185c.74.304 1.574.31 2.32.016a3.02 3.02 0 001.66-1.587c1.568-2.177-6.503-11.669-7.222-13.588zM95.81 23.354H68.64V54.98h27.17V23.354zm2.204 92.362l-29.007-.359s-13.035 12.039-1.652 32.524l4.039 50.314-19.803 27.039 23.842 16.806 15.054-40.97-.49-24.202 6.915 13.241-4.59 49.775 32.312-.719-8.658-50.185-17.962-53.498v-19.766z" fill="#2F2E41"/><path d="M112.079 86.966l5.211 6.828h16.523l2.57 8.625-27.519-.539-4.425-14.196 7.64-.718zm-63.083 6.289l-6.242 14.735-1.469 20.125 7.344 2.715 8.102-34.905-7.735-2.67z" fill="#FFB7B7"/><path d="M87.182 49.77l-11.015.358-11.04 11.041s-12.276 8.187-8.237 21.124c1.927 6.173 4.123 6.765 6.66 15.469.74 2.537 1.446 4.97 2.085 7.174.479 1.654 2.317 3.537 1.308 4.524-4.377 4.278.381 6.062 1.697 5.897 1.024 6.913 11.346 6.609 29.557.179 3.388-2.281 3.934-4.15 1.47-5.584l1.019-3.876 6.172-23.462s1.662-9.357-6.825-14.157L95.06 61.17l-7.878-11.4z" fill="#E6E6E6"/><path d="M56.392 72.05c-2.065 7.678-5.553 8.674-7.671 16.645a3.77 3.77 0 00-1.398.303 1.7 1.7 0 00-.808.681 1.642 1.642 0 00-.237 1.018c.131.659.809 1.208.672 1.866-.103.495-.618.776-.992 1.124a2.477 2.477 0 00-.44 3c.208.347.504.636.858.84l-.868 3.275 9.179 3.414 14.503-29.51.735-10.92s-9.667-6.11-13.533 8.265zm61.449 20.306s-2.566.261-4.94-7.19c-1.646-5.171-2.643-1.51-3.78-5.927-2.777-10.782-10.098-8.985-10.098-8.985l-3.763 9.703 8.403 13.708c-.4.425-.704.93-.891 1.478a1.635 1.635 0 00-.007 1.043c.111.34.331.636.627.845.593.337 1.461.198 1.877.732.313.402.191.967.213 1.471.036.546.253 1.065.617 1.48.364.414.856.702 1.402.819.322.058.652.05.971-.023l.557.909 8.812-10.063z" fill="#E6E6E6"/><path d="M137.301 102.778c3.042 0 5.508-2.413 5.508-5.39 0-2.978-2.466-5.391-5.508-5.391-3.041 0-5.507 2.413-5.507 5.39 0 2.978 2.466 5.391 5.507 5.391zm-93.629 34.861c3.042 0 5.507-2.414 5.507-5.391s-2.465-5.391-5.507-5.391-5.508 2.414-5.508 5.391 2.466 5.391 5.508 5.391zm37.94-90.237c7.095 0 12.846-5.63 12.846-12.573 0-6.944-5.751-12.573-12.846-12.573-7.094 0-12.845 5.63-12.845 12.573 0 6.944 5.751 12.573 12.845 12.573z" fill="#FFB7B7"/><path d="M72.782 36.15a1.098 1.098 0 00.283-.922 1.092 1.092 0 00-.189-.458 1.12 1.12 0 00-.374-.332 1.646 1.646 0 00-1.013-.1 1.62 1.62 0 00-.873.513 2.813 2.813 0 00-.65 1.89c-.046 2.934 2.536 5.308 3.054 8.199.332 1.85-.211 3.73-.749 5.533l-1.942 6.511-9.36-.064a8.312 8.312 0 012.354-4.506c-1.53-.292-2.913.848-4.095 1.844-1.18.996-2.772 1.979-4.196 1.358a2.945 2.945 0 01-1.145-1.083 2.861 2.861 0 01-.41-1.505c-.041-1.054 1.175-2.146.668-3.077-4.822-8.864 10.537-31.108 18.742-30.622 1.667-2.606 4.825-4.071 7.96-4.265 3.135-.194 6.246.746 9.068 2.098 3.39 1.624 6.511 3.897 8.716 6.895 2.204 2.997 3.433 6.76 2.972 10.426-.314 2.492-1.371 4.826-2.162 7.215-.792 2.388-1.32 4.993-.56 7.391.352 1.109.974 2.152 1.072 3.309.177 2.086-1.454 3.994-3.402 4.861-1.947.867-4.156.919-6.295.956.81-1.925 1.535-4.372.076-5.886-1.04-1.08.797-3.756-.066-4.976-.62-.877 1.09-2.528 1.506-3.514a17.25 17.25 0 011.835-2.875c2.802-4.005.086-8.584-1.101-13.297-4.503 1.395-11.303 3.453-15.46 1.257a11.962 11.962 0 01-3.876 7.878" fill="#2F2E41"/><path d="M166.438 121.305a29.38 29.38 0 01-16.074-4.773c-4.759-3.112-8.467-7.535-10.657-12.71a27.765 27.765 0 01-1.647-16.362 28.14 28.14 0 017.919-14.5 29.123 29.123 0 0114.815-7.751 29.517 29.517 0 0116.717 1.611c5.287 2.144 9.806 5.774 12.985 10.43a27.889 27.889 0 014.876 15.734c-.008 7.509-3.059 14.707-8.484 20.017-5.424 5.309-12.778 8.295-20.45 8.304z" fill="#fff"/><path d="M166.438 121.305a29.38 29.38 0 01-16.074-4.773c-4.759-3.112-8.467-7.535-10.657-12.71a27.765 27.765 0 01-1.647-16.362 28.14 28.14 0 017.919-14.5 29.123 29.123 0 0114.815-7.751 29.517 29.517 0 0116.717 1.611c5.287 2.144 9.806 5.774 12.985 10.43a27.889 27.889 0 014.876 15.734c-.008 7.509-3.059 14.707-8.484 20.017-5.424 5.309-12.778 8.295-20.45 8.304zm0-55.697a28.406 28.406 0 00-15.539 4.614c-4.599 3.008-8.184 7.284-10.301 12.286a26.839 26.839 0 00-1.592 15.817 27.2 27.2 0 007.655 14.017 28.166 28.166 0 0014.321 7.493 28.537 28.537 0 0016.16-1.558c5.111-2.072 9.479-5.581 12.552-10.083a26.96 26.96 0 004.714-15.21c-.008-7.258-2.958-14.216-8.201-19.348-5.244-5.132-12.353-8.02-19.769-8.028z" fill="#E6E6E6"/><path d="M157.185 93.821a15.503 15.503 0 01-9.948-3.596c-.925-.775-1.911-2.122-2.929-4.004a9.016 9.016 0 01-1.066-3.92 8.998 8.998 0 01.769-3.985 10.684 10.684 0 01-1.773 1.424l-.324.21-.019-.38a15.199 15.199 0 01-.018-.733c0-1.407 1.088-2.836.586-4.137-2.114-5.484-8.821-10.934.899-19.422.899-.785-.302-2.355-.302-3.543 0-11.642 12.923-29.105 21.575-21.113 5.05 4.665 15.571 7.98 20.484 14.468l.065.193-.192.076c-.982.403-2.015.673-3.072.8a14.95 14.95 0 003.425.28l.179-.006.043.17a20.81 20.81 0 01.643 5.132l-.001.187a9.18 9.18 0 00.819 3.816 9.355 9.355 0 002.338 3.157 15.032 15.032 0 013.695 5.025 14.74 14.74 0 011.31 6.057c0 2.468-1.714 5.707-3.151 7.99a4.574 4.574 0 01-1.446 1.444 4.68 4.68 0 01-1.943.681 4.6 4.6 0 01-1.95-.179 4.527 4.527 0 01-1.689-.971 14.61 14.61 0 002.629 3.644l.197.197-.244.14a15.553 15.553 0 01-7.711 2.037h-.159a15.22 15.22 0 00-5.797 1.083 14.963 14.963 0 00-4.915 3.197 15.444 15.444 0 01-5.031 3.377 15.716 15.716 0 01-5.976 1.204z" fill="#FFC916"/><path d="M167.296 111.979a5.985 5.985 0 01-3.838-1.387 5.407 5.407 0 01-1.13-1.545 3.474 3.474 0 01-.115-3.05 4.026 4.026 0 01-.684.549l-.125.082-.007-.147a5.425 5.425 0 01-.007-.283c0-.543.42-1.094.226-1.596-.816-2.116-3.403-4.219.347-7.493.347-.303-.117-.909-.117-1.367 0-4.492 4.986-11.23 8.324-8.146 1.949 1.8 6.008 3.079 7.903 5.582l.025.075-.074.029a4.48 4.48 0 01-1.185.308c.435.087.878.123 1.322.109l.068-.003.017.066a8.02 8.02 0 01.248 1.98v.072a3.533 3.533 0 00.316 1.472c.21.464.517.879.902 1.218a5.798 5.798 0 011.425 1.939c.333.736.505 1.532.506 2.337 0 .952-.661 2.202-1.216 3.083a1.798 1.798 0 01-1.307.819 1.762 1.762 0 01-1.404-.443c.262.516.604.99 1.014 1.405l.076.077-.094.053a5.999 5.999 0 01-2.975.787l-.061-.001a5.897 5.897 0 00-2.237.418 5.768 5.768 0 00-1.896 1.234 5.975 5.975 0 01-1.941 1.303 6.074 6.074 0 01-2.306.464z" fill="#FFC916"/><path d="M167.573 120.84c-.096-.562-2.302-13.822 2.038-20.431l.406.255c-4.239 6.455-1.992 19.962-1.968 20.097l-.476.079zm-11.612-2.876c-4.015-5.164-5.124-11.849-4.302-18.178.898-6.908 4.169-13.235 8.07-18.966 2.322-3.41 4.885-6.654 7.451-9.89.282-.355-.226-.86-.512-.5-4.599 5.798-9.262 11.674-12.413 18.38-2.862 6.09-4.318 12.87-3.192 19.55a22.182 22.182 0 004.273 9.961c.278.358.907.006.625-.357zm-7.745-56.239a11.183 11.183 0 015.018 6.733c.863 3.383-.131 6.863-1.063 10.124a.345.345 0 00.04.262.368.368 0 00.485.13.357.357 0 00.172-.204c.985-3.444 1.991-7.113 1.018-10.674a11.93 11.93 0 00-5.305-6.982c-.396-.241-.76.37-.365.611z" fill="#3F3D56"/><path d="M181.193 73.06c-6.162.376-11.979 2.912-16.386 7.144-.332.32.179.821.511.501 4.269-4.104 9.904-6.566 15.875-6.936.462-.028.466-.736 0-.708z" fill="#3F3D56"/><path d="M261.935 150.904c-1.238 6.56-4.841 12.468-10.153 16.648s-11.981 6.355-18.793 6.129c-6.812-.226-13.315-2.837-18.327-7.359-5.011-4.523-8.197-10.655-8.979-17.282a7.4 7.4 0 011.639.184c2.768.627 5.02 2.52 7.383 4.064 2.368 1.543 5.281 2.803 7.991 1.958 2.585-.802 4.181-3.252 5.825-5.357 1.65-2.11 4.022-4.205 6.699-3.79 3.785.585 5.386 5.692 9.133 6.452 4.152.845 7.494-4.144 11.733-4.054 1.726.038 3.298.925 4.784 1.789.356.207.708.415 1.065.618z" fill="#E6E6E6"/><path d="M233.951 174.169c-7.102.007-13.958-2.546-19.26-7.171-5.302-4.625-8.68-10.998-9.488-17.905a27.896 27.896 0 014.69-18.98c3.179-4.659 7.698-8.289 12.986-10.433a29.528 29.528 0 0116.72-1.613 29.14 29.14 0 0114.816 7.752c4.047 3.961 6.803 9.008 7.92 14.502a27.772 27.772 0 01-1.647 16.365c-2.191 5.176-5.9 9.599-10.659 12.711a29.38 29.38 0 01-16.078 4.772zm0-55.696c-7.415.008-14.524 2.895-19.768 8.027-5.243 5.132-8.193 12.091-8.201 19.349 0 1.048.06 2.096.18 3.138a27.087 27.087 0 006.205 14.28 28.002 28.002 0 0013.139 8.685 28.552 28.552 0 0015.852.299 28.068 28.068 0 0013.472-8.183 27.139 27.139 0 006.763-14.035 26.855 26.855 0 00-2.119-15.38c-2.206-4.819-5.79-8.91-10.318-11.781a28.411 28.411 0 00-15.205-4.399z" fill="#E6E6E6"/><path d="M253.441 128.253c5.023 0 9.095-3.985 9.095-8.902s-4.072-8.902-9.095-8.902c-5.024 0-9.096 3.985-9.096 8.902s4.072 8.902 9.096 8.902z" fill="#E6E6E6"/><path d="M273.797 115.136a4.414 4.414 0 00-1.43-2.106 4.563 4.563 0 00-2.375-.992.641.641 0 00-.062 0 .454.454 0 00-.075-.016 11.33 11.33 0 00-4.639.386 11.192 11.192 0 00-4.071 2.214l-.025.023a4.648 4.648 0 01-2.047 1.074 4.706 4.706 0 01-2.322-.039 4.156 4.156 0 00-1.281-.138 4.542 4.542 0 00-2.521.964 4.382 4.382 0 00-1.498 2.207.51.51 0 00.235.564c.274.229.6.391.95.473.753.157 1.513.3 2.272.43 1.485.253 2.979.459 4.48.617a67.532 67.532 0 009.166.34 7.185 7.185 0 002.937-.507 4.325 4.325 0 001.686-1.437 4.75 4.75 0 00.62-4.057zm-18.712 12.969a4.474 4.474 0 00-.19-1.1 4.422 4.422 0 00-1.432-2.105 4.57 4.57 0 00-2.377-.992.281.281 0 00-.058 0 .676.676 0 00-.078-.017 11.547 11.547 0 00-5.004.503 10.394 10.394 0 00-3.729 2.118 4.63 4.63 0 01-2.047 1.075 4.705 4.705 0 01-2.322-.037 4.145 4.145 0 00-1.283-.138 4.544 4.544 0 00-2.522.963 4.402 4.402 0 00-1.498 2.208.514.514 0 00.235.563c.275.229.6.391.951.473.756.157 1.512.301 2.275.431a70.16 70.16 0 004.476.616c3.045.32 6.109.434 9.17.34a7.194 7.194 0 002.936-.506 4.32 4.32 0 001.683-1.437 4.678 4.678 0 00.814-2.958z" fill="#E6E6E6"/><path d="M253.441 128.253c5.023 0 9.095-3.985 9.095-8.902s-4.072-8.902-9.095-8.902c-5.024 0-9.096 3.985-9.096 8.902s4.072 8.902 9.096 8.902z" fill="#E6E6E6"/><path d="M273.797 115.136a4.414 4.414 0 00-1.43-2.106 4.563 4.563 0 00-2.375-.992.641.641 0 00-.062 0 .454.454 0 00-.075-.016 11.33 11.33 0 00-4.639.386 11.192 11.192 0 00-4.071 2.214l-.025.023a4.648 4.648 0 01-2.047 1.074 4.706 4.706 0 01-2.322-.039 4.156 4.156 0 00-1.281-.138 4.542 4.542 0 00-2.521.964 4.382 4.382 0 00-1.498 2.207.51.51 0 00.235.564c.274.229.6.391.95.473.753.157 1.513.3 2.272.43 1.485.253 2.979.459 4.48.617a67.532 67.532 0 009.166.34 7.185 7.185 0 002.937-.507 4.325 4.325 0 001.686-1.437 4.75 4.75 0 00.62-4.057zm-18.712 12.969a4.474 4.474 0 00-.19-1.1 4.422 4.422 0 00-1.432-2.105 4.57 4.57 0 00-2.377-.992.281.281 0 00-.058 0 .676.676 0 00-.078-.017 11.547 11.547 0 00-5.004.503 10.394 10.394 0 00-3.729 2.118 4.63 4.63 0 01-2.047 1.075 4.705 4.705 0 01-2.322-.037 4.145 4.145 0 00-1.283-.138 4.544 4.544 0 00-2.522.963 4.402 4.402 0 00-1.498 2.208.514.514 0 00.235.563c.275.229.6.391.951.473.756.157 1.512.301 2.275.431a70.16 70.16 0 004.476.616c3.045.32 6.109.434 9.17.34a7.194 7.194 0 002.936-.506 4.32 4.32 0 001.683-1.437 4.678 4.678 0 00.814-2.958zm-30.82 8.691c-.738.327-1.599.177-2.346.495-.374.16-.681.441-.867.796l-1.198-1.478a.348.348 0 00-.484 0 .338.338 0 000 .474l1.688 2.083c.215.265.675-.022.572-.326-.21-.623.516-.969 1.017-1.072a9.047 9.047 0 001.964-.393c.401-.178.053-.756-.346-.579zm16.878 4.248c-.738.327-1.599.177-2.346.496-.374.159-.68.44-.867.795l-1.197-1.478a.348.348 0 00-.243-.097.347.347 0 00-.242.097.34.34 0 000 .474l1.688 2.083c.215.265.675-.022.573-.326-.211-.622.515-.969 1.017-1.072a9.05 9.05 0 001.963-.393c.401-.178.053-.756-.346-.579zM229.57 123.58c-.738.327-1.599.177-2.347.495-.374.16-.68.441-.866.796l-1.198-1.478a.348.348 0 00-.484 0 .337.337 0 000 .474l1.687 2.083c.215.265.676-.022.573-.326-.211-.623.516-.969 1.017-1.072a9.06 9.06 0 001.964-.393c.4-.178.053-.756-.346-.579zm3.899-66.94a29.38 29.38 0 01-16.075-4.773c-4.758-3.111-8.467-7.534-10.657-12.71a27.757 27.757 0 01-1.646-16.362c1.116-5.493 3.872-10.54 7.918-14.5a29.139 29.139 0 0114.815-7.75 29.52 29.52 0 0116.718 1.61c5.287 2.144 9.805 5.774 12.985 10.431a27.897 27.897 0 014.876 15.734c-.009 7.508-3.06 14.707-8.484 20.016-5.424 5.31-12.779 8.296-20.45 8.304zm0-55.696a28.4 28.4 0 00-15.539 4.614c-4.6 3.008-8.185 7.283-10.302 12.286a26.838 26.838 0 00-1.591 15.817c1.079 5.31 3.743 10.188 7.654 14.017a28.166 28.166 0 0014.321 7.492 28.532 28.532 0 0016.16-1.558c5.111-2.072 9.479-5.58 12.553-10.082a26.968 26.968 0 004.714-15.21c-.009-7.258-2.958-14.216-8.202-19.349C247.994 3.84 240.884.952 233.469.944z" fill="#E6E6E6"/><path d="M222.576 26.105a5.423 5.423 0 00-.484-1.952 1.882 1.882 0 00-.657-.76 1.944 1.944 0 00-.962-.322c-.998.015-1.655.999-2.083 1.881A31.221 31.221 0 00215.471 35a34.08 34.08 0 004.549-4.282 11.177 11.177 0 002.642-5.533m3.24-7.713c1.363-.856 3.235-.67 4.589.199a6.957 6.957 0 012.713 3.828 20.31 20.31 0 01.707 4.692l.663 9.312a2.748 2.748 0 01-1.044-.611 2.668 2.668 0 01-.67-.995 9.33 9.33 0 01-.544-2.339 30.94 30.94 0 00-5.985-13.95m15.324 2.902c.196-1.341 2.092-1.858 3.316-1.224 1.224.634 1.889 1.946 2.443 3.188.554 1.241 1.136 2.57 2.287 3.322 1.256.82 3.022.83 4.032 1.927 1.176 1.279.688 3.326-.191 4.816a12.615 12.615 0 01-6.626 5.415c.191-2.514-.2-5.038-1.146-7.383-1.374-3.396-3.914-6.452-4.155-10.096" fill="#F2F2F2"/><path d="M220.449 22.038v.094c-1.264-.74-2.682-1.364-3.858-1.364-1.215 0-2.942 3.295-4.538 7.113a27.632 27.632 0 00-1.876 4.447c-.164.457-.323.92-.487 1.378a12.171 12.171 0 01-7.883-1.915 11.79 11.79 0 01-4.413-5.265 11.501 11.501 0 01-.682-6.776 11.651 11.651 0 013.28-6.006 12.062 12.062 0 016.135-3.21 12.226 12.226 0 016.924.667 11.932 11.932 0 015.378 4.32 11.552 11.552 0 012.02 6.517z" fill="#E6E6E6"/><path d="M208.137 39.5l-.462-.138c.02-.062 1.977-6.343 4.155-11.57 2.72-6.507 4.02-7.26 4.761-7.26 1.061 0 2.401.47 3.982 1.398a25.831 25.831 0 013.412 2.438l-.321.352a25.162 25.162 0 00-3.339-2.385c-1.484-.87-2.775-1.33-3.734-1.33-.524 0-1.781.904-4.315 6.966-2.169 5.205-4.12 11.466-4.139 11.529zm39.797 12.187l-13.045-35.034a4.73 4.73 0 00-1.148-1.749 4.842 4.842 0 00-1.803-1.097 4.925 4.925 0 00-4.118.438l-7.245 4.364-.253-.402 7.245-4.364a5.417 5.417 0 014.529-.483 5.322 5.322 0 011.983 1.208 5.183 5.183 0 011.263 1.923l13.045 35.035-.453.161zm12.329-16.049l-12.245-17.163a4.512 4.512 0 00-1.556-1.36 4.611 4.611 0 00-4.058-.13 4.523 4.523 0 00-1.644 1.258l-1.798 2.2-.377-.294 1.799-2.2a4.995 4.995 0 011.818-1.393 5.11 5.11 0 014.49.143 4.99 4.99 0 011.721 1.505l12.245 17.164-.395.27z" fill="#E6E6E6"/><path d="M36.02 260.272a23.933 23.933 0 01-10.265-1.36 23.53 23.53 0 01-8.668-5.552c-3.178-3.28-5.359-7.502-7.468-11.584-.614-1.188-1.249-2.417-1.894-3.594a7.203 7.203 0 01.777-8.181 7.37 7.37 0 013.546-2.408 7.515 7.515 0 014.316-.05l.308.087 2.77 10.579c.413-1.578 1.3-5.133 1.86-8.617l.047-.291.276.12a37.852 37.852 0 018.095 4.774 38.183 38.183 0 0110.483 12.746 37.36 37.36 0 014.038 15.878l.007.329-8.228-2.876z" fill="#F2F2F2"/><path d="M134.997 263.855L.574 264a.578.578 0 01-.406-.165.555.555 0 010-.794.578.578 0 01.406-.165l134.423-.145a.58.58 0 01.406.165.553.553 0 010 .794.58.58 0 01-.406.165z" fill="#CACACA"/></g><defs><clipPath id="clip0_146_696"><path fill="#fff" d="M0 0h274v264H0z"/></clipPath></defs></svg>