<svg width="284" height="216" fill="none" xmlns="http://www.w3.org/2000/svg"><g clip-path="url(#clip0_169_2158)"><path d="M170.353 20.835c3.461 5.974-3.055 16.042 3.512 18.132l-.541-.542c-3.964-4.887 4.321-15.23.357-20.117a11.918 11.918 0 01-1.575-2.347" fill="#2F2E41"/><path d="M137.949 108.488a4.171 4.171 0 012.28-4.529 4.144 4.144 0 011.753-.411l8.553-24.907 4.734 6.048-9.043 23.273a4.176 4.176 0 01-3.905 3.948 4.174 4.174 0 01-4.372-3.422z" fill="#FFB8B8"/><path d="M175.545 48.353s.266-9.015-7.777-3.85c-8.044 5.164-25.557 53.547-25.557 53.547l8.715 4.726 19.785-44.275 4.834-10.148z" fill="#FFC916"/><path d="M151.814 202.881l4.017 1.72 8.532-14.71-5.929-2.539-6.62 15.529z" fill="#FFB6B6"/><path d="M146.721 208.948l2.88 1.234 1.676-2.506.155 3.29 7.64 3.272a1.862 1.862 0 002.155-.507 1.87 1.87 0 00.441-1.08 1.87 1.87 0 00-.283-1.133l-4.3-6.836 1.175-2.756-6.581-2.364-4.958 9.386z" fill="#2F2E41"/><path d="M214.778 207.87l4.363-.213 1.254-16.969-6.44.316.823 16.866z" fill="#FFB6B6"/><path d="M212.845 215.56l3.129-.154.414-2.988 1.574 2.891 8.298-.407a1.861 1.861 0 001.717-1.4 1.874 1.874 0 00-.823-2.06l-6.85-4.262-.146-2.993-6.95.758-.363 10.615z" fill="#2F2E41"/><path d="M86.236 205.167a1.408 1.408 0 01-1.358-.88 1.419 1.419 0 01.359-1.58l.1-.384a3.796 3.796 0 00-3.467-2.44 3.792 3.792 0 00-3.556 2.306c-1.71 3.906-3.91 7.944-2.876 12.274-6.962-15.163-4.368-33.917 6.257-46.726 2.917-1.575 5.297-4.4 5.941-7.7-1.441.474-3.221-.714-2.127-2.221.474-.575.952-1.146 1.426-1.721-5.402-5.877-11.99 3.216-6.059 11.136a45.296 45.296 0 00-5.154 7.913 19.098 19.098 0 00-1.05-8.862c-1.062-2.637-3.077-4.869-4.849-7.157-2.154-2.788-6.653-1.554-6.98 1.955 2.006.682 2.24 3.597-.066 3.974.541 6.538 4.742 12.582 10.579 15.503a45.6 45.6 0 00-2.661 18.994c-.964-7.541-9.012-9.446-14.62-12.492a2.196 2.196 0 00-2.4-.004 2.199 2.199 0 00-.97 2.201 12.6 12.6 0 012.212 1.197 1.92 1.92 0 01.768 2.075 1.921 1.921 0 01-1.692 1.424c2.774 7.075 10.075 11.879 17.62 11.924a46.864 46.864 0 003.048 9.203l11.199.107c.041-.125.079-.253.116-.377a12.714 12.714 0 01-3.097-.215c2.773-3.228 4.91-4.869 3.357-9.427z" fill="#F2F2F2"/><path d="M203.757 97.57s8.872 24.234 9.015 26.946c.144 2.712 2.674 37.006 4.796 38.999 2.122 1.992 8.609 32.885 3.561 35.301-5.047 2.417-20.973-1.586-20.973-1.586l-5.54-36.492-1.882-27.957s-5.73 65.834-16.122 65.641c-10.392-.194-23.055-4.161-23.055-4.161l14.545-39.869s-.205-47.201 3.166-56.721c3.372-9.52 32.489-.101 32.489-.101z" fill="#2F2E41"/><path d="M177.432 35.133l11.881 1.09 1.914 5.89s9.944 5.474 7.742 7.96c-2.202 2.487.492 19.244.492 19.244l-.608 13.602s.653 9.424 2.609 11.596c1.956 2.17 7.074 7.495 3.458 4.948-12.678-8.932-34.839-1.395-34.839-1.395l3.166-19.436s-7.191-31.821-4.353-34.509c2.837-2.687 5.515-3.027 5.515-3.027l3.023-5.963z" fill="#FFC916"/><path d="M239.863 96.783a4.15 4.15 0 01-2.858-2.05 4.167 4.167 0 01-.268-3.511L216.698 74.18l7.343-2.222 18.342 16.904a4.183 4.183 0 012.088 2.113 4.186 4.186 0 01-1.685 5.297 4.168 4.168 0 01-2.923.51z" fill="#FFB8B8"/><path d="M188.971 52.209s-3.949-8.105 5.504-6.72c9.452 1.384 45.296 38.237 45.296 38.237l-5.998 7.906-36.227-32.174-8.575-7.25z" fill="#FFC916"/><path d="M204.363 38.46l37.477 48.124a4.007 4.007 0 01-.689 5.603c-8.703 21.181-34.74 36.887-65.369 51.144a3.978 3.978 0 01-5.59-.691l-37.476-48.124a4.004 4.004 0 01.689-5.603c25.703-14.547 47.795-31.402 65.368-51.143a3.983 3.983 0 015.59.69z" fill="#E6E6E6"/><path d="M135.346 93.421l11.408 14.649a42.678 42.678 0 0028.362 16.046 42.63 42.63 0 0031.401-8.664l31.969-25.011a2.277 2.277 0 00.395-3.189L202.667 40.75a2.264 2.264 0 00-3.181-.39c-16.171 20.931-37.818 37.22-63.748 49.876a2.277 2.277 0 00-.392 3.185z" fill="#fff"/><path d="M205.111 64.731l7.429 9.54a1.206 1.206 0 002.149-.597 1.211 1.211 0 00-.245-.892l-7.429-9.54a1.215 1.215 0 00-.805-.457 1.205 1.205 0 00-1.346 1.054 1.2 1.2 0 00.247.893zm-13.935-7.076l16.315 20.95a1.214 1.214 0 00.804.457 1.206 1.206 0 001.346-1.053 1.207 1.207 0 00-.246-.893l-16.315-20.95a1.217 1.217 0 00-.805-.458 1.205 1.205 0 00-1.347 1.054 1.21 1.21 0 00.248.893z" fill="#CCC"/><path d="M219.002 92.6c-4.392 0-7.953-3.569-7.953-7.971 0-4.403 3.561-7.971 7.953-7.971s7.952 3.569 7.952 7.97c0 4.403-3.56 7.972-7.952 7.972z" fill="#FFC916"/><path d="M190.31 74.213l20.038 25.73a1.216 1.216 0 001.615.108 1.22 1.22 0 00.289-1.596l-20.038-25.731a1.218 1.218 0 00-1.615-.107 1.218 1.218 0 00-.289 1.596zm-12.999-5.875l27.968 35.914a1.212 1.212 0 002.063-.636 1.226 1.226 0 00-.159-.853l-27.968-35.914a1.217 1.217 0 00-1.615-.107 1.214 1.214 0 00-.448.743c-.054.294.003.598.159.853zm.097 15.969l20.038 25.731a1.212 1.212 0 001.615.107 1.22 1.22 0 00.289-1.596l-20.038-25.731a1.215 1.215 0 00-1.904 1.489z" fill="#CCC"/><path d="M150.895 87.48l20.037 25.731a1.212 1.212 0 001.615.107 1.22 1.22 0 00.289-1.596l-20.038-25.731a1.213 1.213 0 00-2.063.636 1.22 1.22 0 00.16.853z" fill="#FFC916"/><path d="M164.409 78.432l27.968 35.915a1.217 1.217 0 001.615.106 1.217 1.217 0 00.289-1.596l-27.968-35.914a1.218 1.218 0 00-1.615-.107 1.218 1.218 0 00-.289 1.596z" fill="#CCC"/><path d="M197.352 19.93a11.83 11.83 0 01-5.198 9.808 11.785 11.785 0 01-11.018 1.166 11.808 11.808 0 01-4.621-3.36 11.837 11.837 0 01-2.312-10.861 11.822 11.822 0 012.85-4.959l.056-.056c.095-.1.189-.2.288-.294h.002l.002-.001.001-.002v-.002c.123-.113.245-.227.373-.335a11.783 11.783 0 0112.65-1.879 11.813 11.813 0 015.046 4.365 11.856 11.856 0 011.881 6.41z" fill="#2F2E41"/><path d="M182.642 32.585c-5.465 0-9.896-4.44-9.896-9.919 0-5.478 4.431-9.92 9.896-9.92 5.466 0 9.896 4.442 9.896 9.92s-4.43 9.92-9.896 9.92z" fill="#FFB8B8"/><path d="M193.192 25.31c.967-4.37-.431-9.265-3.479-12.182a11.135 11.135 0 00-11.653-2.264 14.5 14.5 0 00-.742.326l-.114.053v.017a3.024 3.024 0 00-.066.048.375.375 0 01-.164.09 6.09 6.09 0 00-4.603 1.924c-1.534 1.668-2.256 4.364-2.035 7.59l.007.102.086.053a33.782 33.782 0 003.608 1.994c4.344 2.048 8.311 2.427 12.123 1.159l.069-.024 1.6-2.687c.329 1.853.153 8.002 2.038 8.335l3.284-4.35.041-.184z" fill="#2F2E41"/><path d="M214.024 33.946c-3.367-1.742.964-8.065.094-11.763-.871-3.697-7.138-4.886-7.537-8.663-.4-3.778-1.339-7.674-3.826-10.54-1.589-1.832-3.93-3.184-6.341-2.955a5.696 5.696 0 00-4.111 2.382 5.726 5.726 0 00-.887 4.676c-.686-.975-2.462-.764-2.902.345-.391.986.473 2.18 1.489 2.267 1.33 1.646 2.853 3.393 4.936 3.725a2.244 2.244 0 001.915-.443c.491-.472.529-1.415-.053-1.768 2.618 1.043 4.153 3.88 4.542 6.677.388 2.797-.149 5.627-.503 8.428-.354 2.801-.507 5.748.589 8.35 1.295 3.073 4.276 5.276 7.529 5.982 3.253.707 6.717.016 9.662-1.54 2.945-1.555 5.4-3.93 7.406-6.592-3.455 2.459-8.236 3.38-12.002 1.432zM187.37 22.025c3.46 5.975-3.056 16.041 3.511 18.132l-.541-.542c-3.964-4.887 4.321-15.23.357-20.117a11.965 11.965 0 01-1.575-2.347" fill="#2F2E41"/><path d="M192.73 25.22s-2.932-10.969-15.498-13.5a1.777 1.777 0 01-.123-.052 1.332 1.332 0 00-.132-.071c.142-.08.279-.152.42-.223h.002l.002-.001.001-.002v-.002c.123-.113.245-.227.373-.335l.359.014s12.609-2.002 14.596 14.171z" fill="#FD6584"/><path d="M284 215.528a.49.49 0 01-.035.181.48.48 0 01-.436.291H.471a.472.472 0 010-.944h283.058a.465.465 0 01.333.138.48.48 0 01.103.153.486.486 0 01.035.181z" fill="#CCC"/></g><defs><clipPath id="clip0_169_2158"><path fill="#fff" transform="matrix(-1 0 0 1 284 0)" d="M0 0h284v216H0z"/></clipPath></defs></svg>