<svg width="303" height="216" fill="none" xmlns="http://www.w3.org/2000/svg"><g clip-path="url(#clip0_169_2300)"><path d="M276.672 194.311c2.658 4.697.404 20.559.404 20.559s-14.756-6.245-17.413-10.94a9.766 9.766 0 013.699-13.305 9.766 9.766 0 017.418-.911 9.767 9.767 0 015.892 4.597z" fill="#F1F1F1"/><path d="M277.29 214.85l-.313.066c-3.02-14.343-13.564-24.069-13.67-24.166l.216-.237c.107.097 10.726 9.89 13.767 24.337z" fill="#fff"/><path d="M300.818 199.659c-3.606 6.54-23.937 15.4-23.937 15.4s-3.351-21.919.253-28.457a13.525 13.525 0 0124.833 2.772 13.52 13.52 0 01-1.149 10.285z" fill="#F1F1F1"/><path d="M277.061 215.296l-.306-.321c14.712-13.969 18.521-33.452 18.558-33.647l.435.082c-.037.196-3.868 19.816-18.687 33.886z" fill="#fff"/><path d="M71.236 150.134a27.805 27.805 0 01-6.895-.891l-.444-.123-.412-.206c-14.887-7.463-27.446-17.32-37.328-29.298A110.899 110.899 0 017.309 86.155a128.769 128.769 0 01-7.285-45.37c.007-.323.012-.574.012-.746 0-7.504 4.166-14.089 10.614-16.775C15.585 21.21 60.39 2.81 63.626 1.48c6.097-3.055 12.601-.505 13.642-.06 2.335.955 43.754 17.892 52.704 22.154 9.225 4.392 11.686 12.281 11.686 16.25 0 17.972-3.113 34.767-9.253 49.92a115.563 115.563 0 01-20.776 33.477c-16.96 19.082-33.925 25.847-34.088 25.907a18.518 18.518 0 01-6.305 1.006zm-3.99-9.88c1.472.33 4.858.824 7.065.019 2.804-1.022 17.003-8.384 30.271-23.313 18.333-20.627 27.635-46.557 27.649-77.069-.033-.618-.472-5.027-6.312-7.807-8.777-4.18-51.828-21.78-52.262-21.957l-.12-.05c-.902-.378-3.773-1.175-5.752-.138l-.396.185c-.48.197-48.04 19.728-53.113 21.84-3.549 1.479-4.813 5.14-4.813 8.075 0 .214-.005.526-.013.93-.406 20.877 4.427 72.251 57.797 99.285z" fill="#3F3D56"/><path d="M65.598 5.765s-47.993 19.707-53.135 21.85C7.32 29.757 4.75 34.898 4.75 40.039c0 5.141-3.857 72.226 60.848 104.662 0 0 5.872 1.624 10.328 0 4.455-1.625 61.018-29.044 61.018-104.876 0 0 0-7.712-8.998-11.996C118.947 23.544 75.44 5.765 75.44 5.765s-5.343-2.357-9.842 0z" fill="#FFC916"/><path opacity=".1" d="M70.74 21.188v105.134s-48.422-23.304-47.993-84.57L70.74 21.189z" fill="#000"/><path d="M71.371 96.75L55.947 76.92l8.97-6.975 7.303 9.388 24.673-26.04 8.25 7.815L71.371 96.75z" fill="#fff"/><path d="M302.63 216H161.686a.37.37 0 110-.74H302.63a.37.37 0 010 .74z" fill="#CACACA"/><path d="M202.429 210.17l5.721-.001 2.722-22.063h-8.444l.001 22.064z" fill="#FFB8B8"/><path d="M200.969 208.302h11.268a7.18 7.18 0 017.18 7.179v.233l-18.447.001-.001-7.413z" fill="#2F2E41"/><path d="M221.665 210.17l5.721-.001 2.722-22.063h-8.444l.001 22.064z" fill="#FFB8B8"/><path d="M220.206 208.302h11.267a7.18 7.18 0 017.181 7.179v.233l-18.448.001v-7.413zm-8.785-75.614l1.373 69.997-11.102-.688-7.702-44.584-2.433-30.399 19.864 5.674z" fill="#2F2E41"/><path d="M230.474 120.934l1.556 82.861-12.948-.37-2.796-49.255-4.865-17.834-19.864-9.322 3.243-22.292 29.188-.405 6.486 16.617z" fill="#2F2E41"/><path d="M208.151 46.763c5.484 0 9.929-4.445 9.929-9.927 0-5.482-4.445-9.926-9.929-9.926-5.483 0-9.928 4.444-9.928 9.926s4.445 9.927 9.928 9.927z" fill="#FFB8B8"/><path d="M216.386 50.944l1.521 2.304 4.054 11.348-3.243 44.179-19.053.406-2.432-50.665 5.095-6.367 14.058-1.205z" fill="#CCC"/><path d="M189.53 59.733l-3.243-.406s-.811.406-1.216 3.243c-.405 2.837-5.27 27.966-5.27 27.966l6.486 30.804 7.297-9.728-4.459-17.023 4.459-17.023-4.054-17.834zm41.349-.405h2.433l6.081 32.83-5.676 25.534-5.675-9.322 1.621-10.133-.81-8.917-2.838-5.269 4.864-24.724zm-16.861-22.492l-1.805-.451s-1.354-7.67-4.513-6.768c-3.159.902-11.282 1.805-11.282-1.805s7.672-6.768 12.185-6.317c4.513.451 10.276 1.948 11.733 8.573 2.336 10.62-4.819 13.302-4.819 13.302l.119-.386a6.017 6.017 0 00-1.618-6.148z" fill="#2F2E41"/><path d="M186.692 59.327l12.973-5.269 3.04-2.229 9.121 40.328 4.257-41.544 16.823 8.714-5.675 27.561-.811 10.538 2.433 8.512s8.513 6.08 5.675 12.565c-2.838 6.484-6.081 6.89-6.081 6.89s-13.783-12.97-14.594-16.213c-.81-3.242-2.027-8.916-2.027-8.916s-6.891 25.939-14.999 25.534c-8.108-.405-8.108-8.917-8.108-8.917l2.027-8.917 3.243-9.322-1.621-15.401-5.676-23.914z" fill="#2F2E41"/></g><defs><clipPath id="clip0_169_2300"><path fill="#fff" d="M0 0h303v216H0z"/></clipPath></defs></svg>