<svg width="364" height="212" fill="none" xmlns="http://www.w3.org/2000/svg"><g clip-path="url(#clip0_169_2322)"><g opacity=".1"><path d="M267.624 208.873c3.886 0 7.035-4.134 7.035-9.234s-3.149-9.234-7.035-9.234c-3.885 0-7.034 4.134-7.034 9.234s3.149 9.234 7.034 9.234z" fill="#3F3D56"/><path d="M273.191 160.135a11.147 11.147 0 001.481-5.644c0-5.111-3.15-9.234-7.035-9.234-3.885 0-7.031 4.133-7.031 9.234a11.14 11.14 0 001.468 5.644 11.568 11.568 0 000 11.284 11.578 11.578 0 000 11.288 11.14 11.14 0 00-1.468 5.644c0 5.111 3.149 9.234 7.031 9.234 3.882 0 7.035-4.133 7.035-9.234a11.15 11.15 0 00-1.468-5.644 11.583 11.583 0 000-11.288 11.576 11.576 0 000-11.284h-.013z" fill="#3F3D56"/><path d="M267.624 152.44c3.886 0 7.035-4.134 7.035-9.234s-3.149-9.234-7.035-9.234c-3.885 0-7.034 4.134-7.034 9.234s3.149 9.234 7.034 9.234z" fill="#3F3D56"/><path d="M267.624 141.152c3.886 0 7.035-4.134 7.035-9.234s-3.149-9.234-7.035-9.234c-3.885 0-7.034 4.134-7.034 9.234s3.149 9.234 7.034 9.234z" fill="#3F3D56"/><path d="M293.955 54.68a34.002 34.002 0 002.617-3.869l-18.47-3.044 19.989.15a33.928 33.928 0 003.07-13.32 33.93 33.93 0 00-2.433-13.452l-26.82 13.945 24.738-18.225a33.778 33.778 0 00-9.157-10.257A33.653 33.653 0 00275.013.866a33.596 33.596 0 00-26.418 4.964 33.749 33.749 0 00-9.557 9.882 33.857 33.857 0 00-4.835 12.885 33.898 33.898 0 00.69 13.75 33.842 33.842 0 006.102 12.332 33.86 33.86 0 00-3.841 6.162l23.99 12.501-25.579-8.624a33.891 33.891 0 00-1.302 16.553 33.841 33.841 0 006.716 15.177 33.84 33.84 0 00-7.017 17.276 33.882 33.882 0 003.192 18.377 33.756 33.756 0 0012.428 13.878 33.616 33.616 0 0017.877 5.15 33.615 33.615 0 0017.876-5.15 33.749 33.749 0 0012.428-13.878 33.872 33.872 0 00-3.824-35.653 33.853 33.853 0 007.21-20.89 33.853 33.853 0 00-7.21-20.892l.016.013z" fill="#FFC916"/><path opacity=".1" d="M233.785 75.572a33.699 33.699 0 007.21 20.889 33.841 33.841 0 00-7.017 17.276 33.882 33.882 0 003.192 18.377 33.762 33.762 0 0012.428 13.878 33.615 33.615 0 0035.753 0 33.755 33.755 0 0012.428-13.878 33.872 33.872 0 00-3.824-35.653c4.515-5.75-60.17-24.684-60.17-20.89z" fill="#000"/></g><g opacity=".1"><path d="M70.32 198.997c2.363 0 4.28-2.517 4.28-5.622 0-3.104-1.917-5.621-4.28-5.621-2.365 0-4.28 2.517-4.28 5.621 0 3.105 1.915 5.622 4.28 5.622z" fill="#3F3D56"/><path d="M73.724 169.327a6.796 6.796 0 00.894-3.437c0-3.104-1.91-5.621-4.283-5.621-2.372 0-4.28 2.517-4.28 5.621a6.796 6.796 0 00.892 3.437 7.063 7.063 0 000 6.871 7.06 7.06 0 000 6.87 6.776 6.776 0 00-.892 3.434c0 3.108 1.91 5.625 4.28 5.625s4.283-2.517 4.283-5.625a6.776 6.776 0 00-.894-3.434 7.04 7.04 0 000-6.87 7.047 7.047 0 000-6.871z" fill="#3F3D56"/><path d="M70.32 164.642c2.363 0 4.28-2.517 4.28-5.622s-1.917-5.622-4.28-5.622c-2.365 0-4.28 2.517-4.28 5.622s1.915 5.622 4.28 5.622z" fill="#3F3D56"/><path d="M70.32 157.771c2.363 0 4.28-2.517 4.28-5.621 0-3.105-1.917-5.622-4.28-5.622-2.365 0-4.28 2.517-4.28 5.622 0 3.104 1.915 5.621 4.28 5.621z" fill="#3F3D56"/><path d="M54.297 105.126a20.386 20.386 0 01-1.592-2.354l11.251-1.852-12.168.093a20.678 20.678 0 01-.392-16.29l16.315 8.5-15.054-11.116a20.55 20.55 0 015.575-6.24 20.448 20.448 0 0123.669-.469 20.542 20.542 0 015.816 6.014 20.63 20.63 0 012.525 16.208 20.593 20.593 0 01-3.71 7.506 20.58 20.58 0 012.338 3.747l-14.605 7.615 15.573-5.242a20.641 20.641 0 01-3.306 19.318 20.625 20.625 0 012.327 21.704 20.556 20.556 0 01-7.565 8.448 20.466 20.466 0 01-21.764 0 20.556 20.556 0 01-7.566-8.448 20.625 20.625 0 012.327-21.704 20.615 20.615 0 01-4.389-12.719c0-4.613 1.546-9.092 4.39-12.719h.005z" fill="#FFC916"/><path opacity=".1" d="M90.92 117.845a20.53 20.53 0 01-4.388 12.719 20.625 20.625 0 012.327 21.704 20.555 20.555 0 01-7.566 8.448 20.465 20.465 0 01-21.764 0 20.556 20.556 0 01-7.565-8.448 20.624 20.624 0 012.327-21.704c-2.748-3.485 36.63-15.028 36.63-12.719z" fill="#000"/></g><g opacity=".1"><path d="M166.813 203.89c3.164 0 5.729-3.367 5.729-7.522 0-4.154-2.565-7.522-5.729-7.522s-5.729 3.368-5.729 7.522c0 4.155 2.565 7.522 5.729 7.522z" fill="#3F3D56"/><path d="M171.347 164.185a9.096 9.096 0 001.195-4.6c0-4.152-2.548-7.522-5.733-7.522-3.184 0-5.732 3.37-5.732 7.522a9.066 9.066 0 001.198 4.6 9.425 9.425 0 000 9.196 9.415 9.415 0 000 9.192 9.066 9.066 0 00-1.198 4.6c0 4.152 2.567 7.522 5.732 7.522 3.166 0 5.733-3.37 5.733-7.522a9.096 9.096 0 00-1.195-4.6 9.428 9.428 0 000-9.192 9.441 9.441 0 000-9.196z" fill="#3F3D56"/><path d="M166.813 157.915c3.164 0 5.729-3.368 5.729-7.522 0-4.155-2.565-7.522-5.729-7.522s-5.729 3.367-5.729 7.522c0 4.154 2.565 7.522 5.729 7.522z" fill="#3F3D56"/><path d="M166.813 148.719c3.164 0 5.729-3.368 5.729-7.522s-2.565-7.522-5.729-7.522-5.729 3.368-5.729 7.522 2.565 7.522 5.729 7.522z" fill="#3F3D56"/><path d="M145.377 78.274a27.501 27.501 0 01-2.134-3.15l15.054-2.478-16.28.121a27.643 27.643 0 01-2.504-10.851 27.646 27.646 0 011.979-10.961l21.846 11.364-20.149-14.852a27.52 27.52 0 017.452-8.39 27.413 27.413 0 0110.175-4.706 27.368 27.368 0 0121.563 4.038 27.497 27.497 0 017.796 8.07A27.574 27.574 0 01194.107 57a27.618 27.618 0 01-.588 11.222 27.562 27.562 0 01-5.01 10.05 27.61 27.61 0 013.128 5.022l-19.541 10.183 20.837-7.027a27.618 27.618 0 011.053 13.487 27.575 27.575 0 01-5.477 12.362 27.589 27.589 0 013.114 29.044 27.496 27.496 0 01-10.124 11.305 27.382 27.382 0 01-29.124 0 27.505 27.505 0 01-10.125-11.305 27.607 27.607 0 01-2.601-14.97 27.577 27.577 0 015.715-14.074 27.586 27.586 0 01-5.872-17.02 27.589 27.589 0 015.872-17.019l.013.013z" fill="#FFC916"/><path opacity=".1" d="M194.382 95.295a27.461 27.461 0 01-5.873 17.018 27.592 27.592 0 013.114 29.044 27.496 27.496 0 01-10.124 11.305 27.382 27.382 0 01-29.124 0 27.505 27.505 0 01-10.125-11.305 27.61 27.61 0 01-2.601-14.971 27.57 27.57 0 015.715-14.073c-3.678-4.682 49.018-20.11 49.018-17.018z" fill="#000"/></g><path d="M364 203.213c0 2.194-15.993 4.2-42.435 5.749-4.809.278-9.961.543-15.426.793-4.722.213-9.671.414-14.847.603-5.014.179-10.221.345-15.62.499-17.05.488-35.9.84-55.925 1.015a3178.122 3178.122 0 01-30.543.134c-96.538 0-174.794-3.931-174.794-8.783 0-4.852 78.256-8.784 174.794-8.784 41.562 0 79.729.731 109.728 1.945l3.28.134h.019c37.789 1.607 61.769 4.025 61.769 6.695z" fill="#3F3D56"/><path opacity=".15" d="M364 203.213c0 2.194-15.993 4.2-42.435 5.749-4.809.278-9.961.543-15.426.793-4.722.213-9.671.414-14.847.603-5.014.179-10.221.345-15.62.499-17.05.488-35.9.84-55.925 1.015a3178.122 3178.122 0 01-30.543.134c-96.538 0-174.794-3.931-174.794-8.783 0-4.852 78.256-8.784 174.794-8.784 41.562 0 79.729.731 109.728 1.945l3.28.134h.019c37.789 1.607 61.769 4.025 61.769 6.695z" fill="#000"/><path d="M349.59 201.667c0 1.834-15.993 3.514-42.435 4.791-4.806.233-9.962.454-15.423.661-4.724.179-9.673.348-14.847.505-5.014.149-10.221.289-15.62.419-17.054.408-35.903.702-55.928.849a4093.154 4093.154 0 01-30.541.112C78.258 209.004 0 205.717 0 201.658c0-4.06 78.258-7.347 174.796-7.347 41.559 0 79.727.61 109.726 1.626l3.28.112h.022c37.802 1.364 61.766 3.373 61.766 5.618zM45.145 134.933l-4.389-13.475 105.092-1.153 4.306 13.341-105.01 1.287z" fill="#3F3D56"/><path opacity=".15" d="M45.145 134.933l-4.389-13.475 105.092-1.153 4.306 13.341-105.01 1.287z" fill="#000"/><path d="M38.139 134.933l-4.389-13.475 105.092-1.153 4.306 13.341-105.01 1.287zm179.404-20.707c-10.866 0-19.429-4.326-25.69-12.977-6.261-8.652-9.391-19.133-9.391-31.443 0-12.393 3.027-22.852 9.082-31.378 6.055-8.526 14.596-12.785 25.624-12.776 11.693 0 20.504 4.491 26.432 13.475 5.927 8.984 8.892 19.382 8.894 31.194 0 11.726-3.067 21.977-9.203 30.752-6.136 8.775-14.718 13.16-25.748 13.153zm.319-9.732c7.148 0 12.491-3.125 16.028-9.375 3.537-6.25 5.305-14.128 5.305-23.636 0-10.583-1.809-19.248-5.429-25.996-3.62-6.748-9.172-10.123-16.656-10.126-14.224 0-21.337 11.333-21.337 33.998 0 23.425 7.361 35.137 22.082 35.135h.007zm3.579 93.2h-15.716L308.613 27.386h15.42L221.441 197.694zm91.023 1.747c-11.03 0-19.628-4.365-25.796-13.096-6.167-8.73-9.264-19.212-9.289-31.445 0-12.31 3.006-22.728 9.019-31.254 6.012-8.526 14.574-12.785 25.687-12.777 11.611 0 20.36 4.492 26.247 13.476 5.887 8.984 8.832 19.381 8.834 31.19 0 11.65-3.047 21.882-9.143 30.695-6.095 8.814-14.617 13.217-25.566 13.211h.007zm.184-9.982c7.115 0 12.429-3.071 15.942-9.214 3.514-6.144 5.271-13.99 5.271-23.541 0-10.221-1.778-18.793-5.334-25.715-3.556-6.923-9.097-10.389-16.621-10.4-14.307 0-21.461 11.332-21.461 33.998-.004 23.25 7.395 34.875 22.197 34.872h.006z" fill="#3F3D56"/><path d="M217.543 114.226c-10.866 0-19.429-4.326-25.69-12.977-6.261-8.652-9.391-19.133-9.391-31.443 0-12.393 3.027-22.852 9.082-31.378 6.055-8.526 14.596-12.785 25.624-12.776 11.693 0 20.504 4.491 26.432 13.475 5.927 8.984 8.892 19.382 8.894 31.194 0 11.726-3.067 21.977-9.203 30.752-6.136 8.775-14.718 13.16-25.748 13.153zm.319-9.732c7.148 0 12.491-3.125 16.028-9.375 3.537-6.25 5.305-14.128 5.305-23.636 0-10.583-1.809-19.248-5.429-25.996-3.62-6.748-9.172-10.123-16.656-10.126-14.224 0-21.337 11.333-21.337 33.998 0 23.425 7.361 35.137 22.082 35.135h.007zm3.579 93.2h-15.716L308.613 27.386h15.42L221.441 197.694zm91.023 1.747c-11.03 0-19.628-4.365-25.796-13.096-6.167-8.73-9.264-19.212-9.289-31.445 0-12.31 3.006-22.728 9.019-31.254 6.012-8.526 14.574-12.785 25.687-12.777 11.611 0 20.36 4.492 26.247 13.476 5.887 8.984 8.832 19.381 8.834 31.19 0 11.65-3.047 21.882-9.143 30.695-6.095 8.814-14.617 13.217-25.566 13.211h.007zm.184-9.982c7.115 0 12.429-3.071 15.942-9.214 3.514-6.144 5.271-13.99 5.271-23.541 0-10.221-1.778-18.793-5.334-25.715-3.556-6.923-9.097-10.389-16.621-10.4-14.307 0-21.461 11.332-21.461 33.998-.004 23.25 7.395 34.875 22.197 34.872h.006z" fill="#3F3D56"/><path opacity=".15" d="M217.543 114.226c-10.866 0-19.429-4.326-25.69-12.977-6.261-8.652-9.391-19.133-9.391-31.443 0-12.393 3.027-22.852 9.082-31.378 6.055-8.526 14.596-12.785 25.624-12.776 11.693 0 20.504 4.491 26.432 13.475 5.927 8.984 8.892 19.382 8.894 31.194 0 11.726-3.067 21.977-9.203 30.752-6.136 8.775-14.718 13.16-25.748 13.153zm.319-9.732c7.148 0 12.491-3.125 16.028-9.375 3.537-6.25 5.305-14.128 5.305-23.636 0-10.583-1.809-19.248-5.429-25.996-3.62-6.748-9.172-10.123-16.656-10.126-14.224 0-21.337 11.333-21.337 33.998 0 23.425 7.361 35.137 22.082 35.135h.007zm3.579 93.2h-15.716L308.613 27.386h15.42L221.441 197.694zm91.023 1.747c-11.03 0-19.628-4.365-25.796-13.096-6.167-8.73-9.264-19.212-9.289-31.445 0-12.31 3.006-22.728 9.019-31.254 6.012-8.526 14.574-12.785 25.687-12.777 11.611 0 20.36 4.492 26.247 13.476 5.887 8.984 8.832 19.381 8.834 31.19 0 11.65-3.047 21.882-9.143 30.695-6.095 8.814-14.617 13.217-25.566 13.211h.007zm.184-9.982c7.115 0 12.429-3.071 15.942-9.214 3.514-6.144 5.271-13.99 5.271-23.541 0-10.221-1.778-18.793-5.334-25.715-3.556-6.923-9.097-10.389-16.621-10.4-14.307 0-21.461 11.332-21.461 33.998-.004 23.25 7.395 34.875 22.197 34.872h.006z" fill="#000"/><path d="M207.671 114.226c-10.866 0-19.429-4.326-25.69-12.977-6.261-8.652-9.391-19.133-9.391-31.443 0-12.393 3.027-22.852 9.082-31.378 6.055-8.526 14.596-12.785 25.623-12.776 11.694 0 20.505 4.491 26.432 13.475 5.928 8.984 8.893 19.382 8.895 31.194 0 11.726-3.068 21.977-9.203 30.752-6.136 8.775-14.719 13.16-25.748 13.153zm.319-9.732c7.148 0 12.491-3.125 16.028-9.375 3.537-6.25 5.305-14.128 5.305-23.636 0-10.583-1.81-19.248-5.43-25.996-3.619-6.748-9.171-10.123-16.655-10.126-14.225 0-21.337 11.333-21.337 33.998 0 23.425 7.361 35.137 22.082 35.135h.007zm3.579 93.2h-15.716L298.741 27.386h15.42L211.569 197.694zm91.022 1.747c-11.029 0-19.627-4.365-25.795-13.096-6.167-8.73-9.264-19.212-9.289-31.445 0-12.31 3.006-22.728 9.018-31.254 6.013-8.526 14.575-12.785 25.687-12.777 11.611 0 20.361 4.492 26.248 13.476 5.887 8.984 8.832 19.381 8.834 31.19 0 11.65-3.048 21.882-9.143 30.695-6.095 8.814-14.617 13.217-25.566 13.211h.006zm.185-9.982c7.114 0 12.428-3.071 15.942-9.214 3.514-6.144 5.271-13.99 5.271-23.541 0-10.221-1.778-18.793-5.335-25.715-3.556-6.923-9.098-10.389-16.626-10.4-14.308 0-21.461 11.332-21.461 33.998 0 23.25 7.401 34.875 22.203 34.872h.006z" fill="#3F3D56"/><path d="M242.052 201.967c1.312-2.44-.178-5.429-1.892-7.608-1.713-2.178-3.802-4.44-3.757-7.215.063-3.983 4.28-6.337 7.643-8.452a37.3 37.3 0 006.872-5.538 10.122 10.122 0 002.111-2.837c.698-1.558.675-3.331.637-5.037a361.51 361.51 0 00-.84-17.043" stroke="#3F3D56" stroke-width="4" stroke-miterlimit="10"/><path d="M259.233 147.924a6.216 6.216 0 00-3.092-5.092l-1.389 2.754.042-3.335a6.19 6.19 0 00-5.432.962 6.217 6.217 0 00-2.334 6.497 6.22 6.22 0 001.842 3.1 6.192 6.192 0 006.809 1.029 6.2 6.2 0 002.671-2.417c.633-1.053.94-2.27.883-3.498zm-11.051 42.078a6.196 6.196 0 01-3.016 2.845 6.171 6.171 0 01-4.129.304 6.192 6.192 0 01-3.397-2.374 6.221 6.221 0 01.467-7.813 6.177 6.177 0 017.719-1.153 6.208 6.208 0 012.656 3.186l-3.873 3.159 4.268-.996a6.205 6.205 0 01-.695 2.842zm-3.06-12.076a6.191 6.191 0 01-5.899-3.565 6.238 6.238 0 011.556-7.352 6.214 6.214 0 012.365-1.282l-.035 2.556 1.405-2.785a6.18 6.18 0 014.462 1.613 6.216 6.216 0 012.018 4.305 6.225 6.225 0 01-1.608 4.476 6.19 6.19 0 01-4.293 2.024l.029.01zm15.044-10.039a6.192 6.192 0 01-4.54-1.567 6.208 6.208 0 01-2.064-4.348 6.234 6.234 0 01.37-2.428 6.206 6.206 0 013.268-3.529 6.186 6.186 0 012.386-.55 6.123 6.123 0 013.319.789l-1.096 3.009 2.255-2.169a6.2 6.2 0 011.85 6.002 6.217 6.217 0 01-2.073 3.361 6.192 6.192 0 01-3.675 1.43z" fill="#FFC916"/><path opacity=".1" d="M258.399 149.581c-1.43.157-2.819.604-4.255.694-1.436.089-3.013-.256-3.92-1.377-.491-.601-.733-1.364-1.147-2.022a4.401 4.401 0 00-1.56-1.472 6.224 6.224 0 003.456 8.666 6.182 6.182 0 007.051-2.157 6.222 6.222 0 001.078-2.386c-.235.013-.468.029-.703.054zm1.767 18.306a6.206 6.206 0 01-5.444-2.764 6.235 6.235 0 01-.451-6.103c.491.334.914.759 1.246 1.252.442.668.71 1.441 1.229 2.054.955 1.14 2.614 1.511 4.108 1.444 1.494-.068 2.939-.496 4.43-.639.207-.019.417-.032.637-.039a6.22 6.22 0 01-2.076 3.366 6.191 6.191 0 01-3.679 1.429zm-15.044 10.039a6.191 6.191 0 01-5.899-3.565 6.238 6.238 0 01-.047-5.187c.511.341.955.774 1.309 1.278.481.68.784 1.466 1.347 2.095 1.045 1.166 2.803 1.578 4.386 1.539 1.582-.038 3.012-.408 4.538-.527a6.225 6.225 0 01-2.13 3.075 6.192 6.192 0 01-3.504 1.292zm3.06 12.076a6.2 6.2 0 01-3.458 3.042 6.181 6.181 0 01-4.597-.187 6.211 6.211 0 01-3.201-3.313 6.235 6.235 0 01-.043-4.614c.511.337.969.747 1.36 1.217.589.722.978 1.54 1.659 2.21 1.274 1.246 3.312 1.76 5.134 1.808a26.031 26.031 0 003.146-.163z" fill="#000"/><path d="M337.909 201.648c1.312-2.44-.179-5.43-1.892-7.608-1.713-2.179-3.803-4.44-3.758-7.216.064-3.983 4.28-6.337 7.643-8.451a37.303 37.303 0 006.873-5.539 10.117 10.117 0 002.111-2.836c.697-1.559.675-3.331.637-5.037a362.905 362.905 0 00-.841-17.044" stroke="#3F3D56" stroke-width="4" stroke-miterlimit="10"/><path d="M355.089 147.604a6.215 6.215 0 00-3.092-5.091l-1.388 2.753.041-3.334a6.182 6.182 0 00-5.431.962 6.231 6.231 0 00-.492 9.596 6.183 6.183 0 009.48-1.387 6.223 6.223 0 00.882-3.499zm-11.05 42.079a6.2 6.2 0 01-3.016 2.845 6.188 6.188 0 01-7.527-2.07 6.223 6.223 0 01-1.147-3.99 6.224 6.224 0 011.614-3.824 6.185 6.185 0 017.72-1.152 6.206 6.206 0 012.655 3.186l-3.872 3.159 4.267-.997a6.218 6.218 0 01-.694 2.843zm-3.061-12.077a6.18 6.18 0 01-4.462-1.613 6.196 6.196 0 01-1.436-1.951 6.238 6.238 0 011.556-7.352 6.194 6.194 0 012.365-1.282l-.035 2.555 1.404-2.785h.016a6.191 6.191 0 015.899 3.565 6.229 6.229 0 01-2.972 8.27 6.206 6.206 0 01-2.347.584l.012.009zm15.045-10.039a6.18 6.18 0 01-4.541-1.566 6.227 6.227 0 01-1.693-6.776 6.214 6.214 0 013.267-3.529 6.173 6.173 0 012.387-.55 6.12 6.12 0 013.318.789l-1.095 3.008 2.255-2.168a6.205 6.205 0 011.85 6.001 6.22 6.22 0 01-2.074 3.362 6.186 6.186 0 01-3.674 1.429z" fill="#FFC916"/><path opacity=".1" d="M354.255 149.262c-1.43.157-2.818.604-4.255.693-1.436.09-3.012-.255-3.92-1.376-.49-.601-.732-1.364-1.146-2.022a4.39 4.39 0 00-1.561-1.473 6.247 6.247 0 00-.225 5.117 6.196 6.196 0 006.272 3.885 6.168 6.168 0 002.498-.764 6.22 6.22 0 003.041-4.114c-.236.013-.468.029-.704.054zm1.768 18.305a6.192 6.192 0 01-5.444-2.763 6.239 6.239 0 01-.451-6.103 4.62 4.62 0 011.245 1.252c.443.667.71 1.44 1.229 2.053.956 1.141 2.615 1.511 4.108 1.444 1.494-.067 2.94-.495 4.43-.639.207-.019.417-.032.637-.038a6.222 6.222 0 01-2.075 3.366 6.189 6.189 0 01-3.679 1.428zm-15.045 10.039a6.18 6.18 0 01-4.462-1.613 6.196 6.196 0 01-1.436-1.951 6.238 6.238 0 01-.047-5.188c.511.342.955.775 1.309 1.278.481.68.783 1.466 1.347 2.095 1.044 1.166 2.802 1.578 4.385 1.54 1.535-.032 3.013-.409 4.538-.527a6.218 6.218 0 01-2.13 3.075 6.188 6.188 0 01-3.504 1.291zm3.061 12.077a6.209 6.209 0 01-3.459 3.042 6.184 6.184 0 01-4.596-.187 6.228 6.228 0 01-3.244-7.927c.51.337.968.747 1.36 1.217.589.722.977 1.539 1.659 2.21 1.274 1.246 3.312 1.76 5.134 1.808a26.248 26.248 0 003.146-.163z" fill="#000"/><path d="M35.008 197.496c-1.312-2.441.179-5.43 1.892-7.609 1.713-2.178 3.802-4.439 3.758-7.215-.064-3.983-4.28-6.337-7.643-8.451a37.355 37.355 0 01-6.873-5.539 10.127 10.127 0 01-2.111-2.836c-.697-1.559-.675-3.332-.637-5.037.147-5.69.427-11.371.84-17.044" stroke="#3F3D56" stroke-width="4" stroke-miterlimit="10"/><path d="M17.827 143.452a6.214 6.214 0 013.093-5.091l1.388 2.753-.041-3.335a6.19 6.19 0 015.432.962 6.218 6.218 0 012.15 2.894 6.234 6.234 0 01-1.659 6.703 6.183 6.183 0 01-6.809 1.029 6.203 6.203 0 01-2.671-2.417 6.23 6.23 0 01-.883-3.498zm11.051 42.079a6.206 6.206 0 003.016 2.845 6.18 6.18 0 004.13.303 6.197 6.197 0 003.397-2.373 6.228 6.228 0 00-.468-7.814 6.19 6.19 0 00-3.656-1.949 6.173 6.173 0 00-4.063.797 6.208 6.208 0 00-2.655 3.186l3.872 3.159-4.267-.997c.002.99.24 1.964.694 2.843zm3.06-12.077a6.199 6.199 0 004.463-1.613 6.219 6.219 0 002.018-4.306 6.163 6.163 0 00-.535-2.833 6.22 6.22 0 00-3.968-3.446l.035 2.555-1.404-2.785a6.187 6.187 0 00-4.463 1.613 6.227 6.227 0 00-.41 8.781 6.19 6.19 0 004.293 2.024l-.029.01zm-15.044-10.039a6.178 6.178 0 004.54-1.566 6.217 6.217 0 002.065-4.348 6.234 6.234 0 00-1.65-4.523 6.202 6.202 0 00-4.375-1.985 6.13 6.13 0 00-3.303.789l1.096 3.009-2.27-2.159a6.204 6.204 0 00-2.01 4.28 6.087 6.087 0 00.16 1.712 6.224 6.224 0 002.073 3.362 6.194 6.194 0 003.674 1.429z" fill="#FFC916"/><path opacity=".1" d="M18.662 145.11c1.43.156 2.818.603 4.254.693 1.437.089 3.013-.256 3.92-1.377.491-.6.733-1.364 1.147-2.022a4.4 4.4 0 011.56-1.472 6.233 6.233 0 01-1.233 7.289 6.19 6.19 0 01-4.813 1.713 6.184 6.184 0 01-4.46-2.493 6.218 6.218 0 01-1.079-2.385c.236.012.468.028.704.054zm-1.768 18.305a6.189 6.189 0 005.444-2.764 6.236 6.236 0 00.451-6.103 4.657 4.657 0 00-1.245 1.252c-.443.668-.71 1.441-1.23 2.054-.955 1.14-2.614 1.511-4.108 1.444-1.493-.067-2.939-.495-4.43-.639a9.88 9.88 0 00-.636-.038 6.221 6.221 0 002.075 3.365 6.188 6.188 0 003.68 1.429zm15.044 10.039a6.199 6.199 0 004.463-1.613 6.219 6.219 0 002.018-4.306 6.163 6.163 0 00-.535-2.833 5.004 5.004 0 00-1.309 1.278c-.48.68-.783 1.466-1.347 2.095-1.044 1.166-2.802 1.578-4.385 1.54-1.535-.032-3.013-.409-4.538-.527a6.223 6.223 0 002.13 3.075 6.189 6.189 0 003.503 1.291zm-3.06 12.077a6.207 6.207 0 003.459 3.042 6.18 6.18 0 004.596-.188 6.203 6.203 0 003.201-3.313 6.231 6.231 0 00.043-4.613 6.23 6.23 0 00-1.36 1.216c-.589.722-.978 1.54-1.66 2.211-1.273 1.245-3.311 1.76-5.133 1.808a26.458 26.458 0 01-3.146-.163z" fill="#000"/><path d="M214.483 167.564a4.973 4.973 0 00-1.968-3.999c-.077-2.929-2.159-5.321-4.838-5.692a5.79 5.79 0 00-3.847-4.318 4.745 4.745 0 00-.716-.169h-.07l-.124-.016h-.656c-2.733 0-5.007 2.095-5.475 4.858-1.767-.409-3.388.121-3.678 1.242-.075.297-.058.61.048.898.299.869 1.274 1.699 2.595 2.111l.172.051c.086.026.172.045.258.064h.058a4.484 4.484 0 00-.193 3.314 4.467 4.467 0 002.138 2.534 1.058 1.058 0 00-.114.074 1.57 1.57 0 00-.382.537 7.74 7.74 0 00-.739 1.785c-.128.533-.15 1.092-.319 1.619-.29.959-1.035 1.799-1.121 2.818-.038.453.035.987-.286 1.296-.08.07-.166.132-.255.189a1.979 1.979 0 00-.561.588 1.86 1.86 0 01-.372.517c-.29.22-.768.198-.911.537-.143.338.226.737.14 1.108-.07.3-.398.437-.637.639-.267.29-.454.646-.541 1.031a3.284 3.284 0 01-2.717-.693c.129.329.223.671.281 1.019-.379-.405-1.004-.524-1.465-.734a4.688 4.688 0 01-1.561-1.163l.835-.115-3.695-5.622-1.089-.223.978 1.881a.587.587 0 00-.318.403 1.714 1.714 0 00-.039.638c.052.505.136 1.005.252 1.498l.283 1.323c.024.124.055.246.093.367a3.716 3.716 0 00-1.096.125 9.59 9.59 0 00-2.27-.54 1.17 1.17 0 00-.513.025 1.25 1.25 0 00-.478.39 15.347 15.347 0 00-1.688 2.383c-1.984 3.462-4.633 6.484-7.114 9.614a231.42 231.42 0 01-5.169 2.022l-3.716 1.421c-.742.284-1.513.575-2.303.524-.356-.022-.789-.077-.99.227-.098.15-.174.314-.226.485-.131 0-.261.032-.382.039h-.023c-.235-.588-.439-1.217-.891-1.645a.555.555 0 00-.421.319c-.089.166-.143.348-.245.502-.2.293-.548.437-.796.686-.248.249-.404.639-.672.882a2.656 2.656 0 01-1.274.495 8.014 8.014 0 00-1.977.754c-.23.141-.476.255-.733.338a2.738 2.738 0 01-.857.029l-1.968-.144a1.52 1.52 0 00-.525.023.98.98 0 00-.637 1.012 1.578 1.578 0 00.621 1.086c.342.251.72.448 1.121.585a32.538 32.538 0 005.271 1.549v.399a8.92 8.92 0 004.015.958.597.597 0 00.3-.054.666.666 0 00.251-.396c.418-1.253.682-2.552.787-3.868.246-.016.487-.078.71-.182.678-.185 1.35.281 2.048.358.86.092 1.659-.409 2.471-.719.118-.045.236-.083.353-.121a3.94 3.94 0 01-.812.788c-.337.243-.716.422-1.047.674a7.028 7.028 0 01-.882.687c-.22.103-.447.19-.679.262a4.601 4.601 0 00-.955.482 1.986 1.986 0 00-.663.639.871.871 0 00.593 1.361c.266.047.537.055.805.022 1.064-.08 2.125-.179 3.185-.274a9.083 9.083 0 001.334-.192c.233-.058.462-.134.695-.195a5.583 5.583 0 011.213-.182 1 1 0 01.353.035c.249.08.424.319.676.383.163.016.328-.007.48-.067a11.05 11.05 0 012.363-.252c.348-.019.755-.086.918-.409.197-.399-.134-.846-.265-1.277a3.879 3.879 0 01-.108-.837 5.24 5.24 0 00-.586-1.99 5.442 5.442 0 01-.436-.907 23.003 23.003 0 004.344-2.211c.783-.488 1.592-1.015 2.477-1.194 1.032-.208 2.096.067 3.112.361a69.98 69.98 0 017.13 2.494c1.114.457 2.229.943 3.369 1.278.333.451.737.846 1.194 1.169.765.495 1.698.639 2.596.709 1.213.111 2.431.157 3.649.137.93-.016 1.889-.079 2.72-.504a3.18 3.18 0 00.57-.377c.637.115 1.29-.227 1.79-.665a4.333 4.333 0 001.369-2.156c.293-1.153.067-2.497.774-3.44.188-.252.433-.456.618-.712a1.92 1.92 0 00.318-1.159l.032-.048c.16-.371.267-.762.319-1.163a6.63 6.63 0 01.318-.917c.359-.891.672-1.8.936-2.724.184-.613.329-1.237.433-1.869.077-.504.122-1.012.163-1.52.051-.795.205-1.58.458-2.335a19.138 19.138 0 001.055-5.596v-.112a3.725 3.725 0 002.393-1.245 3.751 3.751 0 00.935-2.536c0-.563-.117-1.119-.344-1.633a5.084 5.084 0 00.662-2.539zm-18.009 21.947c.054.194.118.389.182.584-.293-.291-.583-.591-.879-.878.117.035.235.073.35.115.122.048.239.108.35.179h-.003zm-1.427-.959c-1.738-1.514-3.751-2.689-5.531-4.152.955.482 1.91 1.041 2.866 1.578a79.841 79.841 0 003.376 1.833 2.778 2.778 0 01-.701.729l-.01.012zm.742-3.813l.083-.087v.598c-.156-.051-.318-.103-.468-.16.138-.113.267-.234.389-.364l-.004.013zm-15.308 4.101a14.502 14.502 0 001.857-2.654c.687 1.21 1.808 2.082 2.764 3.095-1.535-.218-3.073-.387-4.618-.454l-.003.013z" fill="url(#paint0_linear_169_2322)"/><path d="M182.965 174.115l1.099.224 3.742 5.545-1.653.223-3.188-5.992z" fill="#2F2E41"/><path d="M156.358 196.621a21.86 21.86 0 001.092 2.874c1.24-.26 2.459-.609 3.649-1.044a9.939 9.939 0 00-.757-1.032 3.583 3.583 0 00-1.032-.795c-.379-.166-.847-.042-1.252-.019-.567.021-1.134.026-1.7.016z" fill="#FBBEBE"/><path d="M159.316 198.103c-.618-.195-.997-.821-1.248-1.425-.252-.604-.456-1.262-.933-1.706a.567.567 0 00-.421.32c-.092.16-.146.342-.251.495-.198.287-.548.428-.8.674-.251.246-.407.619-.678.865a2.684 2.684 0 01-1.274.492 8.068 8.068 0 00-1.993.741 3.386 3.386 0 01-.739.32 2.809 2.809 0 01-.863.029l-1.984-.144a1.542 1.542 0 00-.529.025.955.955 0 00-.637.997 1.555 1.555 0 00.637 1.07 4.24 4.24 0 001.127.575 33.915 33.915 0 005.319 1.523v.393a9.17 9.17 0 004.047.958.637.637 0 00.319-.054.67.67 0 00.255-.389 15.75 15.75 0 00.824-4.325 3.252 3.252 0 00-.082-1.112c-.109-.358.261-.207-.083-.348" fill="#2F2E41"/><path d="M197.353 190.603c-5.882.358-11.691-1.374-17.582-1.559a8.799 8.799 0 00-2.185.141c-.75.201-1.476.484-2.165.843-3.156 1.472-6.424 2.693-9.688 3.913l-3.745 1.399c-.752.278-1.525.562-2.325.514-.356-.022-.793-.077-.997.224-.608.903-.318 2.235.083 3.251.131.32.351.687.701.725.248-.017.49-.078.716-.182.682-.182 1.363.278 2.064.351.869.093 1.675-.402 2.494-.705 1.356-.502 2.84-.486 4.267-.725 2.395-.4 4.611-1.514 6.688-2.786.789-.482 1.592-.999 2.496-1.175 1.042-.205 2.115.064 3.137.354a72.119 72.119 0 017.188 2.457 33.04 33.04 0 003.758 1.373c2.787.736 5.736.564 8.42-.492.955-.373 1.961-1.031 2.016-2.05.031-.582-.418-1.093-.717-1.597-.194-.32-.385-.639-.596-.943-1.012-1.482-2.241-3.44-4.028-3.331z" fill="#2F2E41"/><path opacity=".1" d="M197.353 190.603c-5.882.358-11.691-1.374-17.582-1.559a8.799 8.799 0 00-2.185.141c-.75.201-1.476.484-2.165.843-3.156 1.472-6.424 2.693-9.688 3.913l-3.745 1.399c-.752.278-1.525.562-2.325.514-.356-.022-.793-.077-.997.224-.608.903-.318 2.235.083 3.251.131.32.351.687.701.725.248-.017.49-.078.716-.182.682-.182 1.363.278 2.064.351.869.093 1.675-.402 2.494-.705 1.356-.502 2.84-.486 4.267-.725 2.395-.4 4.611-1.514 6.688-2.786.789-.482 1.592-.999 2.496-1.175 1.042-.205 2.115.064 3.137.354a72.119 72.119 0 017.188 2.457 33.04 33.04 0 003.758 1.373c2.787.736 5.736.564 8.42-.492.955-.373 1.961-1.031 2.016-2.05.031-.582-.418-1.093-.717-1.597-.194-.32-.385-.639-.596-.943-1.012-1.482-2.241-3.44-4.028-3.331z" fill="#000"/><path d="M167.647 196.908c.921.313 1.849.603 2.783.869.526-.866 1.507-1.466 1.73-2.453a.243.243 0 000-.131.238.238 0 00-.105-.096 5.204 5.204 0 00-2.182-.639c-.605-.038-.879.594-1.153 1.038-.095.179-.828 1.495-1.073 1.412z" fill="#FBBEBE"/><path d="M168.943 196.276a1.996 1.996 0 01-1.353-.892c-.131-.226-.268-.533-.529-.517-.261.016-.35.303-.404.543a15.52 15.52 0 01-.762 2.622 4.908 4.908 0 01-1.627 2.144c-.341.236-.72.415-1.054.664a6.978 6.978 0 01-.892.677 5.02 5.02 0 01-.684.256c-.343.12-.672.279-.978.476a1.983 1.983 0 00-.666.638.965.965 0 00-.057.895.972.972 0 00.637.45c.268.045.542.051.812.019 1.073-.08 2.143-.175 3.213-.271a8.98 8.98 0 001.347-.186c.236-.057.465-.134.698-.194a5.834 5.834 0 011.226-.179c.12-.009.241.002.357.035.248.08.423.319.678.377.164.017.33-.005.484-.064.783-.166 1.582-.25 2.382-.249.35-.019.764-.087.924-.403.2-.393-.131-.833-.265-1.255a3.947 3.947 0 01-.111-.824 5.03 5.03 0 00-.589-1.958c-.274-.505-.637-1.06-.456-1.597a1.4 1.4 0 00.182-.546c-.045-.866-2.029-.546-2.513-.661z" fill="#2F2E41"/><path d="M188.535 181.142a4.617 4.617 0 01-2.344-2.335c-.096-.223-.178-.457-.271-.683a5.226 5.226 0 00-1.401-1.949.674.674 0 00-.519-.22.552.552 0 00-.382.409 1.678 1.678 0 00-.042.639c.055.495.14.987.255 1.472l.287 1.303c.036.2.096.396.178.582.123.218.285.412.478.571.261.243.525.476.793.703.147.134.308.252.481.351.282.135.584.223.895.262 1.168.217 2.356.53 3.34 1.278 0 0 0-.872-.022-.958a1.284 1.284 0 00-.249-.7c-.369-.399-1.006-.517-1.477-.725z" fill="#FBBEBE"/><path opacity=".1" d="M188.535 181.142a4.617 4.617 0 01-2.344-2.335c-.096-.223-.178-.457-.271-.683a5.226 5.226 0 00-1.401-1.949.674.674 0 00-.519-.22.552.552 0 00-.382.409 1.678 1.678 0 00-.042.639c.055.495.14.987.255 1.472l.287 1.303c.036.2.096.396.178.582.123.218.285.412.478.571.261.243.525.476.793.703.147.134.308.252.481.351.282.135.584.223.895.262 1.168.217 2.356.53 3.34 1.278 0 0 0-.872-.022-.958a1.284 1.284 0 00-.249-.7c-.369-.399-1.006-.517-1.477-.725z" fill="#000"/><path d="M200.509 171.177c.79 0 1.43-.647 1.43-1.444 0-.797-.64-1.444-1.43-1.444-.79 0-1.43.647-1.43 1.444 0 .797.64 1.444 1.43 1.444z" fill="#2F2E41"/><path d="M199.624 168.861a1.587 1.587 0 00-1.131.163 1.511 1.511 0 00-.385.53 7.517 7.517 0 00-.745 1.757c-.128.527-.15 1.076-.319 1.597-.293.958-1.044 1.772-1.13 2.772-.039.447.035.974-.29 1.278a1.847 1.847 0 01-.258.182c-.226.152-.418.35-.564.581a1.832 1.832 0 01-.398.553c-.293.217-.774.195-.917.53-.143.335.226.725.14 1.089-.07.297-.401.435-.637.639a2.225 2.225 0 00-.545 1.019 3.357 3.357 0 01-2.735-.687c.398.987.408 2.076.423 3.14.046.34-.044.685-.251.958 1.14.026 2.248.32 3.36.585a2.31 2.31 0 001.465 0c.254-.138.481-.319.672-.537.605-.616 1.238-1.278 1.385-2.137.039-.483.047-.969.025-1.453a8.399 8.399 0 01.367-1.76c.319-1.187.533-2.4.636-3.625.067-.757.717-1.364 1.061-2.041.637-1.278 1.306-2.603 1.357-4.034.044-.467-.115-1.038-.586-1.099z" fill="#2F2E41"/><path opacity=".1" d="M199.624 168.861a1.587 1.587 0 00-1.131.163 1.511 1.511 0 00-.385.53 7.517 7.517 0 00-.745 1.757c-.128.527-.15 1.076-.319 1.597-.293.958-1.044 1.772-1.13 2.772-.039.447.035.974-.29 1.278a1.847 1.847 0 01-.258.182c-.226.152-.418.35-.564.581a1.832 1.832 0 01-.398.553c-.293.217-.774.195-.917.53-.143.335.226.725.14 1.089-.07.297-.401.435-.637.639a2.225 2.225 0 00-.545 1.019 3.357 3.357 0 01-2.735-.687c.398.987.408 2.076.423 3.14.046.34-.044.685-.251.958 1.14.026 2.248.32 3.36.585a2.31 2.31 0 001.465 0c.254-.138.481-.319.672-.537.605-.616 1.238-1.278 1.385-2.137.039-.483.047-.969.025-1.453a8.399 8.399 0 01.367-1.76c.319-1.187.533-2.4.636-3.625.067-.757.717-1.364 1.061-2.041.637-1.278 1.306-2.603 1.357-4.034.044-.467-.115-1.038-.586-1.099z" fill="#000"/><path d="M198.286 191.845c-1.226-.584-2.121-1.673-3.111-2.606-1.892-1.782-4.204-3.041-6.191-4.711-1.315-1.105-2.494-2.393-3.943-3.319a9.766 9.766 0 00-4.222-1.485 1.183 1.183 0 00-.516.025c-.19.086-.356.218-.481.384a15.044 15.044 0 00-1.704 2.347c-2.519 4.287-6.095 7.893-9.06 11.882a.534.534 0 00-.035.722l.602 1.185c.337.661.879 1.434 1.592 1.303a1.77 1.77 0 00.844-.539l2.707-2.597 2.837-2.722c1.663-1.597 3.354-3.226 4.44-5.263.847 1.472 2.35 2.437 3.382 3.788.391.511.71 1.076 1.06 1.619.564.872 1.201 1.69 1.838 2.504l3.258 4.169a6.32 6.32 0 001.506 1.533c.77.488 1.71.619 2.618.699a33.44 33.44 0 003.678.134c.936-.016 1.911-.076 2.739-.495.828-.418 1.531-1.277 1.487-2.213a3.302 3.302 0 00-.468-1.383c-1.15-2.14-2.672-3.929-4.857-4.961z" fill="#2F2E41"/><path d="M201.388 171.841c.607 0 1.099-.496 1.099-1.108 0-.613-.492-1.109-1.099-1.109s-1.099.496-1.099 1.109c0 .612.492 1.108 1.099 1.108z" fill="#E8E8F0"/><path d="M201.146 169.899c.248.496.292 1.069.121 1.597a6.198 6.198 0 01-.707 1.469 7.327 7.327 0 01-.92 1.316c1.697.083 3.343-.584 4.84-1.396 1.207-.638 2.411-1.453 3.054-2.67a1.402 1.402 0 01-1.124-.207 4.254 4.254 0 01-.863-.805l-.85-.959a3.823 3.823 0 01-.526-.693 1.918 1.918 0 01-.226-1.114c-.338.355-.717.67-1.127.939-.609.399-1.274.686-1.889 1.079-.216.141-.697.368-.573.639.124.272.618.498.79.805z" fill="#FBBEBE"/><path opacity=".1" d="M201.146 169.899c.248.496.292 1.069.121 1.597a6.198 6.198 0 01-.707 1.469 7.327 7.327 0 01-.92 1.316c1.697.083 3.343-.584 4.84-1.396 1.207-.638 2.411-1.453 3.054-2.67a1.402 1.402 0 01-1.124-.207 4.254 4.254 0 01-.863-.805l-.85-.959a3.823 3.823 0 01-.526-.693 1.918 1.918 0 01-.226-1.114c-.338.355-.717.67-1.127.939-.609.399-1.274.686-1.889 1.079-.216.141-.697.368-.573.639.124.272.618.498.79.805z" fill="#000"/><path d="M201.168 170.065a1.44 1.44 0 000 1.664c.048.061.229.441.319.444a.29.29 0 00.194-.099c.385-.403.744-.83 1.076-1.278a2.378 2.378 0 011.37-.9c.665-.106 1.305.249 1.888.587.251.125.469.307.637.531.123.222.196.468.213.722a33.77 33.77 0 01.191 4.586 17.7 17.7 0 01-.216 3.3c-.108.562-.271 1.111-.347 1.68-.056.5-.078 1.004-.067 1.507v2.108c-.014.387.014.773.083 1.154.131.453.285.9.461 1.338.156.521.262 1.056.319 1.597l.287 2.181c.092.69.159 1.441-.258 1.994-.185.252-.434.45-.637.699-.717.914-.478 2.239-.796 3.373a4.272 4.272 0 01-1.383 2.124c-.506.431-1.162.773-1.818.639-.882-.166-1.414-1.089-1.656-1.961-.242-.872-.318-1.824-.85-2.556-.427-.603-1.086-.98-1.682-1.411-.595-.432-1.181-.984-1.312-1.712-.057-.32-.022-.639-.054-.959a2.28 2.28 0 00-1.408-1.852c-.452-.176-1.012-.24-1.273-.639a3.07 3.07 0 001.324-1.785c.198-.73.305-1.481.319-2.236l.153-2.536c.067-1.134.098-2.259.595-3.278.223-.453.5-.881.73-1.331.307-.633.568-1.286.783-1.955.36-1.038.723-2.08 1.044-3.13.129-.509.322-1 .574-1.46.296-.479.688-1.054 1.197-1.15z" fill="#E8E8F0"/><path d="M195.554 186.543l.668.023.144-1.013c.019-.202.066-.401.14-.591.111-.2.24-.389.385-.565.659-.933.612-2.172.774-3.306.217-1.511.847-2.929 1.471-4.322l1.3-2.903c.115-.239.208-.488.277-.744.056-.283.083-.571.079-.859 0-.448.147-2.08.156-2.53 0-.166-.363-.074-.439-.221-.163-.319-.385.55-.691.741a1.703 1.703 0 00-.599.879c-.28.731-.452 1.501-.713 2.236a4.595 4.595 0 01-1.214 1.977c-.264.236-.573.421-.824.671-.809.801-.886 2.066-.914 3.194-.019.699-.15 7.333 0 7.333zm9.633-17.689c-.637.256-1.006.959-1.188 1.642-.181.684-.258 1.406-.608 2.012-.815 1.425-2.895 1.84-3.471 3.38a6.209 6.209 0 00-.233 1.597c-.102 1.102-.465 2.169-.573 3.271-.056.857-.036 1.717.061 2.571l.729 8.697a11.54 11.54 0 01-.22 3.833 3.663 3.663 0 002.185-.361c.684-.319 1.309-.741 1.965-1.105 1.13-.639 2.379-1.07 3.366-1.916.179-.14.333-.31.455-.502.159-.365.266-.751.319-1.147.083-.307.19-.608.318-.9.366-.877.685-1.773.955-2.683.186-.604.332-1.22.437-1.843.079-.495.121-.997.165-1.495a8.855 8.855 0 01.462-2.3 18.497 18.497 0 001.061-5.51 2.763 2.763 0 00-.055-.811 4.365 4.365 0 00-.439-.92c-.303-.571-.484-1.201-.771-1.779-.637-1.309-1.78-2.303-2.974-3.136-.612-.406-1.284-.847-1.946-.595z" fill="#2F2E41"/><path d="M189.984 183.046a5.24 5.24 0 01-1.386-1.054c-.181-.214-.318-.454-.515-.665a3.402 3.402 0 00-1.742-.996 8.359 8.359 0 00-2.019-.195 3.58 3.58 0 00-1.341.163 1.349 1.349 0 00-.892.958c-.099.543.255 1.07.678 1.415.394.323.858.549 1.354.661.405.071.813.119 1.223.144 2.407.252 4.557 1.565 6.665 2.763a89.503 89.503 0 005.669 2.948c.076-.578.108-1.161.095-1.744 0-.434-.032-1.099-.442-1.354-.478-.301-1.274-.368-1.803-.546a28.702 28.702 0 01-5.544-2.498zm10.525-13.642c2.369 0 4.29-1.938 4.29-4.328 0-2.39-1.921-4.328-4.29-4.328-2.369 0-4.29 1.938-4.29 4.328 0 2.39 1.921 4.328 4.29 4.328z" fill="#FBBEBE"/><path d="M206.413 173.761a6.982 6.982 0 00-.831 1.555c-.532 1.096-1.363 2.035-1.777 3.194-.44 1.204-.424 2.638-1.274 3.587a1.23 1.23 0 00-.372.543 2.883 2.883 0 01-.045.393c-.121.345-.685.361-.79.712-.029.102 0 .214-.051.32-.086.226-.382.258-.583.396-.417.284-.318.942-.636 1.351a1.134 1.134 0 01-1.071.377 3.97 3.97 0 01-1.114-.419 1 1 0 00-.398-.124.81.81 0 00-.462.156c-.793.505-1.166 1.508-1.159 2.453.056.946.279 1.874.659 2.741.045.15.12.289.22.409.261.278.719.233 1.07.076a4.96 4.96 0 011.041-.466c.663-.121 1.312.339 1.984.3.492-.075.955-.28 1.341-.594a7.41 7.41 0 001.809-1.549c.293-.386.509-.827.767-1.239.33-.507.691-.991 1.083-1.45l2.474-3.038c.249-.288.471-.596.666-.923.223-.442.397-.907.519-1.386a11.02 11.02 0 00.513-2.469 9.87 9.87 0 00-.182-2.073 7.204 7.204 0 00-.532-1.971c-.55-1.118-1.859-2.044-2.869-.862z" fill="#2F2E41"/><path d="M215.031 168.123a4.854 4.854 0 00-1.988-3.938 5.751 5.751 0 00-1.412-3.7 5.729 5.729 0 00-3.463-1.906 5.594 5.594 0 00-1.992-3.267 5.564 5.564 0 00-3.621-1.215 5.568 5.568 0 00-3.551 1.409 5.591 5.591 0 00-1.813 3.37c-1.784-.402-3.414.122-3.711 1.224-.318 1.153.956 2.501 2.841 3.012a5.218 5.218 0 001.819.182 5.592 5.592 0 003.84 2.395c.227 1.042.739 2 1.479 2.766a5.71 5.71 0 002.709 1.569 4.79 4.79 0 001.293 1.795c0 .134-.022.271-.022.412a3.643 3.643 0 003.63 3.797 3.625 3.625 0 002.623-1.122 3.647 3.647 0 001.007-2.675 3.823 3.823 0 00-.347-1.597 4.915 4.915 0 00.679-2.511z" fill="#F86D70"/><path opacity=".1" d="M194.691 160.32c.296-1.102 1.91-1.626 3.71-1.223a5.69 5.69 0 011.887-3.406 5.654 5.654 0 013.632-1.385h.369a5.405 5.405 0 00-1.592-.237 5.655 5.655 0 00-3.632 1.386 5.684 5.684 0 00-1.887 3.405c-1.784-.402-3.414.122-3.71 1.224-.319 1.153.955 2.501 2.84 3.012.351.097.711.159 1.074.185-1.79-.524-2.994-1.834-2.691-2.961zm13.958 12.134c0-.14 0-.278.022-.415a4.771 4.771 0 01-1.293-1.792 5.723 5.723 0 01-2.707-1.573 5.757 5.757 0 01-1.481-2.764 5.594 5.594 0 01-2.173-.79 5.598 5.598 0 01-1.667-1.606 5.036 5.036 0 01-1.07-.029 5.572 5.572 0 003.7 2.204c.227 1.042.739 2 1.479 2.766a5.71 5.71 0 002.709 1.569 4.79 4.79 0 001.293 1.795c0 .134-.022.271-.022.412a3.709 3.709 0 001.031 2.631 3.693 3.693 0 002.58 1.138 3.77 3.77 0 01-2.401-3.546z" fill="#000"/><path d="M202.471 166.662c.292-.222.289-.718-.006-1.107-.294-.389-.769-.524-1.061-.302-.291.222-.288.717.006 1.106.295.389.77.525 1.061.303z" fill="#FBBEBE"/><path d="M99.933 188.198l4.242-2.501a10.226 10.226 0 00-2.169-2.603l-8 2.494 6.268-3.695a10.164 10.164 0 00-10.09.171 10.211 10.211 0 00-3.66 3.734 10.245 10.245 0 00-1.336 5.06c0 5.644 4.564 5.839 10.19 5.839 5.628 0 10.192-.195 10.192-5.839a10.185 10.185 0 00-.876-4.152l-4.761 1.492z" fill="#FFC916"/><path opacity=".1" d="M101.012 193.685a7.942 7.942 0 00-1.503-1.185c-.767-.514-1.567-1.038-2.474-1.21-.796-.154-1.618-.023-2.43-.071a5.666 5.666 0 01-3.723-1.712c-.58-.6-1.035-1.338-1.732-1.798a3.786 3.786 0 00-2.593-.476 6.275 6.275 0 00-.767.157 10.244 10.244 0 00-.602 3.468c0 5.644 4.564 5.839 10.19 5.839 2.733 0 5.211-.045 7.042-.738l-.318-.571a7.982 7.982 0 00-1.09-1.703z" fill="#000"/></g><defs><linearGradient id="paint0_linear_169_2322" x1="180.726" y1="204.305" x2="180.726" y2="153.315" gradientUnits="userSpaceOnUse"><stop stop-color="gray" stop-opacity=".25"/><stop offset=".54" stop-color="gray" stop-opacity=".12"/><stop offset="1" stop-color="gray" stop-opacity=".1"/></linearGradient><clipPath id="clip0_169_2322"><path fill="#fff" d="M0 0h364v212H0z"/></clipPath></defs></svg>