<svg width="420" height="90" fill="none" xmlns="http://www.w3.org/2000/svg"><path d="M90.61 39.083c-7.065-.968-13.139-.4-18.256.884-6.647 1.669-11.458 4.51-14.259 6.163l-.317.188c-.905.533-1.725 1.032-2.48 1.493-4.259 2.594-6.509 3.965-10.45 3.14-1.713-.357-2.867-1.108-4.726-3.677-.95-1.312-1.925-2.877-3.207-4.937l-.268-.43c-1.374-2.207-3.005-4.804-5.041-7.701-5.28-7.512-12.762-9.916-20.077-10.163-2.106-.07-4.272.036-6.437.252C12.67 9.86 27.921 0 45.5 0c23.1 0 42.18 17.027 45.11 39.083z" fill="#FCCE07"/><path d="M90.568 51.223C87.504 73.13 68.494 90 45.5 90 20.37 90 0 69.853 0 45c0-2.721.244-5.386.712-7.975 3.765-.653 7.203-1.097 10.404-.989 4.75.16 8.064 1.514 10.526 5.018 1.835 2.61 3.319 4.97 4.675 7.147l.332.533c1.203 1.934 2.398 3.856 3.606 5.525 2.809 3.88 6.27 7.218 12.086 8.434 9.092 1.9 15.771-2.351 19.968-5.022.613-.39 1.172-.745 1.679-1.044l.187-.11c2.713-1.6 6.25-3.685 11.165-4.92 3.97-.996 8.993-1.466 15.228-.374z" fill="#000"/><path d="M90.568 51.223a44.956 44.956 0 00.042-12.14c-7.065-.968-13.139-.4-18.256.884-6.647 1.669-11.458 4.51-14.259 6.163l-.317.188c-.905.533-1.725 1.032-2.48 1.493-4.259 2.594-6.509 3.965-10.45 3.14-1.713-.357-2.867-1.108-4.726-3.677-.95-1.312-1.925-2.877-3.207-4.937l-.268-.43c-1.374-2.207-3.005-4.804-5.041-7.701-5.28-7.512-12.762-9.916-20.077-10.163-2.106-.07-4.272.036-6.437.252a44.347 44.347 0 00-4.38 12.73c3.765-.653 7.203-1.097 10.404-.989 4.75.16 8.064 1.514 10.526 5.018 1.835 2.61 3.319 4.97 4.675 7.147l.332.533c1.203 1.934 2.398 3.856 3.606 5.525 2.809 3.88 6.27 7.218 12.086 8.434 9.092 1.9 15.771-2.351 19.968-5.022.613-.39 1.172-.745 1.679-1.044l.187-.11c2.713-1.6 6.25-3.685 11.165-4.92 3.97-.996 8.993-1.466 15.228-.374zm43.952 6.137c-1.992 0-3.84-.252-5.544-.756-1.704-.528-3.144-1.236-4.32-2.124l1.404-3.636c1.176.84 2.46 1.488 3.852 1.944 1.416.456 2.952.684 4.608.684 1.896 0 3.276-.312 4.14-.936.864-.648 1.296-1.476 1.296-2.484 0-.84-.312-1.5-.936-1.98-.6-.48-1.644-.876-3.132-1.188l-3.96-.828c-4.512-.96-6.768-3.276-6.768-6.948 0-1.584.42-2.964 1.26-4.14.84-1.176 2.004-2.088 3.492-2.736 1.488-.648 3.204-.972 5.148-.972 1.728 0 3.348.264 4.86.792 1.512.504 2.772 1.224 3.78 2.16l-1.404 3.456c-1.992-1.68-4.416-2.52-7.272-2.52-1.656 0-2.952.348-3.888 1.044-.936.696-1.404 1.608-1.404 2.736 0 .864.288 1.56.864 2.088.576.504 1.56.9 2.952 1.188l3.924.828c2.376.504 4.14 1.296 5.292 2.376 1.176 1.08 1.764 2.52 1.764 4.32 0 1.512-.408 2.844-1.224 3.996-.816 1.152-1.98 2.052-3.492 2.7-1.488.624-3.252.936-5.292.936zm13.963-.36V31.62h11.016c2.784 0 4.932.696 6.444 2.088 1.512 1.392 2.268 3.336 2.268 5.832s-.756 4.452-2.268 5.868c-1.512 1.392-3.66 2.088-6.444 2.088h-6.408V57h-4.608zm4.608-13.14h5.688c3.312 0 4.968-1.44 4.968-4.32 0-2.856-1.656-4.284-4.968-4.284h-5.688v8.604zM171.967 57V31.62h11.088c2.664 0 4.728.588 6.192 1.764 1.464 1.152 2.196 2.76 2.196 4.824 0 1.368-.348 2.544-1.044 3.528-.696.984-1.656 1.704-2.88 2.16 1.44.408 2.556 1.128 3.348 2.16.816 1.008 1.224 2.292 1.224 3.852 0 2.256-.768 4.008-2.304 5.256-1.512 1.224-3.624 1.836-6.336 1.836h-11.484zm4.428-14.616h5.868c3.144 0 4.716-1.212 4.716-3.636 0-2.424-1.572-3.636-4.716-3.636h-5.868v7.272zm0 11.124h6.48c3.168 0 4.752-1.272 4.752-3.816 0-2.544-1.584-3.816-4.752-3.816h-6.48v7.632zM212.576 57V35.472h-8.712V31.62h22.032v3.852h-8.712V57h-4.608zm12.994 0V39.396h4.392v3.096c.864-2.088 2.712-3.24 5.544-3.456l1.368-.108.288 3.816-2.592.252c-2.952.288-4.428 1.8-4.428 4.536V57h-4.572zm19.718.36c-1.272 0-2.412-.24-3.42-.72-.984-.504-1.764-1.176-2.34-2.016-.552-.84-.828-1.788-.828-2.844 0-1.296.336-2.316 1.008-3.06.672-.768 1.764-1.32 3.276-1.656 1.512-.336 3.54-.504 6.084-.504h1.26v-.756c0-1.2-.264-2.064-.792-2.592s-1.416-.792-2.664-.792c-.984 0-1.992.156-3.024.468-1.032.288-2.076.744-3.132 1.368l-1.296-3.06c.624-.432 1.356-.804 2.196-1.116a14.496 14.496 0 012.7-.756c.96-.192 1.86-.288 2.7-.288 2.568 0 4.476.6 5.724 1.8 1.248 1.176 1.872 3.012 1.872 5.508V57H250.4v-2.808a5.015 5.015 0 01-1.944 2.34c-.888.552-1.944.828-3.168.828zm.936-3.096c1.176 0 2.148-.408 2.916-1.224.792-.816 1.188-1.848 1.188-3.096v-.792h-1.224c-2.256 0-3.828.18-4.716.54-.864.336-1.296.96-1.296 1.872 0 .792.276 1.44.828 1.944.552.504 1.32.756 2.304.756zM264.188 57l-7.632-17.604h4.788l4.896 12.312 5.076-12.312h4.5L268.076 57h-3.888zm22.125.36c-1.992 0-3.708-.372-5.148-1.116-1.44-.744-2.556-1.8-3.348-3.168-.768-1.368-1.152-2.988-1.152-4.86 0-1.824.372-3.42 1.116-4.788.768-1.368 1.812-2.436 3.132-3.204 1.344-.792 2.868-1.188 4.572-1.188 2.496 0 4.464.792 5.904 2.376 1.464 1.584 2.196 3.744 2.196 6.48v1.332h-12.6c.336 3.144 2.136 4.716 5.4 4.716.984 0 1.968-.144 2.952-.432a8.382 8.382 0 002.7-1.44l1.26 3.024c-.84.696-1.896 1.248-3.168 1.656a12.432 12.432 0 01-3.816.612zm-.648-15.264c-1.32 0-2.388.408-3.204 1.224-.816.816-1.308 1.92-1.476 3.312h8.856c-.096-1.464-.504-2.58-1.224-3.348-.696-.792-1.68-1.188-2.952-1.188zm17.604 15.264c-2.088 0-3.636-.564-4.644-1.692-.984-1.152-1.476-2.832-1.476-5.04V31.62h4.5v18.792c0 2.16.912 3.24 2.736 3.24.264 0 .528-.012.792-.036.264-.024.516-.072.756-.144l-.072 3.564c-.864.216-1.728.324-2.592.324zm27.715 0c-2.808 0-5.184-.528-7.128-1.584a10.593 10.593 0 01-4.392-4.5c-1.008-1.944-1.512-4.248-1.512-6.912 0-2.688.516-5.004 1.548-6.948a10.71 10.71 0 014.464-4.536c1.944-1.08 4.272-1.62 6.984-1.62 1.776 0 3.444.264 5.004.792 1.56.504 2.856 1.212 3.888 2.124l-1.548 3.6c-1.128-.888-2.28-1.524-3.456-1.908-1.176-.384-2.472-.576-3.888-.576-2.688 0-4.728.78-6.12 2.34-1.368 1.56-2.052 3.804-2.052 6.732 0 2.952.708 5.196 2.124 6.732 1.416 1.536 3.516 2.304 6.3 2.304.792 0 1.596-.06 2.412-.18.84-.144 1.668-.348 2.484-.612v-5.904h-5.832v-3.42h9.684v12.204c-1.176.576-2.568 1.032-4.176 1.368a23.357 23.357 0 01-4.788.504zm13.872-.36V39.396h4.392v3.096c.864-2.088 2.712-3.24 5.544-3.456l1.368-.108.288 3.816-2.592.252c-2.952.288-4.428 1.8-4.428 4.536V57h-4.572zm21.844.36c-1.824 0-3.408-.372-4.752-1.116a7.806 7.806 0 01-3.132-3.168c-.744-1.392-1.116-3.024-1.116-4.896 0-1.872.372-3.492 1.116-4.86a7.806 7.806 0 013.132-3.168c1.344-.744 2.928-1.116 4.752-1.116 1.824 0 3.408.372 4.752 1.116a7.806 7.806 0 013.132 3.168c.744 1.368 1.116 2.988 1.116 4.86 0 1.872-.372 3.504-1.116 4.896a7.806 7.806 0 01-3.132 3.168c-1.344.744-2.928 1.116-4.752 1.116zm0-3.42c1.344 0 2.424-.48 3.24-1.44.816-.984 1.224-2.424 1.224-4.32 0-1.92-.408-3.348-1.224-4.284-.816-.96-1.896-1.44-3.24-1.44-1.344 0-2.424.48-3.24 1.44-.816.936-1.224 2.364-1.224 4.284 0 1.896.408 3.336 1.224 4.32.816.96 1.896 1.44 3.24 1.44zm19.086 3.42c-4.32 0-6.48-2.424-6.48-7.272V39.396h4.5V50.16c0 1.248.252 2.172.756 2.772.504.6 1.308.9 2.412.9 1.2 0 2.184-.408 2.952-1.224.768-.84 1.152-1.944 1.152-3.312v-9.9h4.5V57h-4.392v-2.628c-1.176 1.992-2.976 2.988-5.4 2.988zm14.476 6.12V39.396h4.392v2.808c.504-.96 1.26-1.728 2.268-2.304 1.032-.576 2.196-.864 3.492-.864 1.536 0 2.88.372 4.032 1.116 1.176.744 2.088 1.8 2.736 3.168.648 1.344.972 2.964.972 4.86 0 1.872-.324 3.504-.972 4.896-.648 1.368-1.548 2.424-2.7 3.168-1.152.744-2.508 1.116-4.068 1.116-1.248 0-2.376-.264-3.384-.792-.984-.552-1.74-1.284-2.268-2.196v9.108h-4.5zm8.892-9.54c1.344 0 2.424-.48 3.24-1.44.816-.984 1.224-2.424 1.224-4.32 0-1.92-.408-3.348-1.224-4.284-.816-.96-1.896-1.44-3.24-1.44-1.344 0-2.424.48-3.24 1.44-.816.936-1.224 2.364-1.224 4.284 0 1.896.408 3.336 1.224 4.32.816.96 1.896 1.44 3.24 1.44z" fill="#fff"/></svg>