<svg width="18" height="18" viewBox="0 0 18 18" fill="white" xmlns="http://www.w3.org/2000/svg">
<path d="M4.60001 0.596191C2.39547 0.596191 0.600006 2.39166 0.600006 4.59619V13.3962C0.600006 15.6007 2.39547 17.3962 4.60001 17.3962H13.4C15.6045 17.3962 17.4 15.6007 17.4 13.3962V4.59619C17.4 2.39166 15.6045 0.596191 13.4 0.596191H4.60001ZM4.60001 1.39619H13.4C15.1723 1.39619 16.6 2.82393 16.6 4.59619V13.3962C16.6 15.1685 15.1723 16.5962 13.4 16.5962H4.60001C2.82774 16.5962 1.40001 15.1685 1.40001 13.3962V4.59619C1.40001 2.82393 2.82774 1.39619 4.60001 1.39619ZM6.21954 3.41416C5.40141 3.37881 4.78046 3.68967 4.38985 4.06338C4.19455 4.25023 4.05354 4.45017 3.95704 4.63682C3.86054 4.82346 3.79922 4.97734 3.79922 5.17744C3.79922 5.15962 3.79483 5.25317 3.79219 5.36182C3.78955 5.47046 3.79003 5.61692 3.80001 5.79385C3.81999 6.14771 3.87996 6.62637 4.03907 7.19385C4.35728 8.32881 5.07378 9.81763 6.62813 11.372C8.18248 12.9263 9.67121 13.6427 10.8063 13.961C11.3738 14.1202 11.8524 14.1801 12.2063 14.2001C12.3832 14.2101 12.5288 14.2105 12.6375 14.2079C12.7462 14.2053 12.8404 14.2009 12.8227 14.2009C13.0228 14.2009 13.1766 14.1396 13.3633 14.0431C13.5499 13.9466 13.7499 13.8056 13.9367 13.6103C14.3104 13.2196 14.6213 12.5987 14.5859 11.7806C14.5692 11.3904 14.3525 11.0448 14.0328 10.8399C13.7857 10.6816 13.4022 10.4359 12.9016 10.1157C12.3207 9.74462 11.5778 9.71811 10.9719 10.0501L11.0063 10.0329L10.5352 10.2353L10.5008 10.2595C10.3863 10.3399 10.2445 10.3548 10.1156 10.3009C9.75473 10.15 9.1924 9.85343 8.66954 9.33057C8.14667 8.8077 7.85015 8.24537 7.69922 7.88447C7.64534 7.75564 7.66023 7.61382 7.74063 7.49932L7.76485 7.46494L7.96719 6.99385L7.95001 7.02822C8.28191 6.42244 8.2561 5.67954 7.88438 5.09854C7.56424 4.59791 7.31848 4.21436 7.16016 3.96728C6.95526 3.64757 6.60973 3.43094 6.21954 3.41416ZM6.18516 4.21338C6.29737 4.2182 6.41322 4.28385 6.48672 4.39854C6.64521 4.64586 6.89108 5.02961 7.21094 5.52978C7.42322 5.86157 7.43814 6.29763 7.24844 6.64385L7.23907 6.66103L7.0461 7.11182L7.08594 7.03916C6.84954 7.37586 6.80203 7.8131 6.96094 8.19307C7.14122 8.62417 7.48597 9.27825 8.10391 9.89619C8.72185 10.5141 9.37594 10.8589 9.80704 11.0392C10.187 11.1981 10.6242 11.1506 10.9609 10.9142L10.8883 10.954L11.3391 10.761L11.3563 10.7517C11.7023 10.562 12.1384 10.5778 12.4703 10.7899V10.7892C12.9705 11.109 13.3542 11.3549 13.6016 11.5134C13.7163 11.5869 13.7819 11.7027 13.7867 11.8149C13.813 12.4224 13.602 12.8027 13.3586 13.0571C13.2369 13.1843 13.1049 13.2766 12.9961 13.3329C12.8873 13.3892 12.7832 13.4009 12.8227 13.4009C12.7493 13.4009 12.7107 13.4057 12.6188 13.4079C12.5269 13.4101 12.4037 13.4103 12.2516 13.4017C11.9474 13.3844 11.5275 13.3325 11.0219 13.1907C10.0106 12.9071 8.65501 12.2676 7.19376 10.8063C5.7325 9.34509 5.09287 7.98936 4.80938 6.97822C4.66763 6.47265 4.61562 6.05268 4.59844 5.74853C4.58986 5.59646 4.58997 5.47324 4.59219 5.38135C4.59443 5.28945 4.59922 5.25086 4.59922 5.17744C4.59922 5.21694 4.61092 5.11284 4.66719 5.004C4.72347 4.89516 4.81578 4.7632 4.94297 4.6415C5.19737 4.39812 5.57769 4.18713 6.18516 4.21338Z"/>
</svg>
