<svg width="20" height="20" viewBox="0 0 20 20" fill="white" xmlns="http://www.w3.org/2000/svg">
<path d="M10 0.800049C4.92372 0.800049 0.800003 4.92377 0.800003 10C0.800003 15.0763 4.92372 19.2 10 19.2C15.0763 19.2 19.2 15.0763 19.2 10C19.2 4.92377 15.0763 0.800049 10 0.800049ZM10 1.60005C14.6439 1.60005 18.4 5.35612 18.4 10C18.4 14.644 14.6439 18.4 10 18.4C5.35607 18.4 1.6 14.644 1.6 10C1.6 5.35612 5.35607 1.60005 10 1.60005ZM13.6352 5.61411C13.3616 5.61411 13.0541 5.67748 12.6945 5.80708C12.1361 6.00828 5.5683 8.79691 4.8211 9.11411C4.3939 9.29571 3.59844 9.63351 3.59844 10.4391C3.59844 10.9731 3.91135 11.355 4.52735 11.575C4.85855 11.693 5.64517 11.9315 6.10157 12.0571C6.29517 12.1103 6.5009 12.1375 6.7125 12.1375C7.1265 12.1375 7.54313 12.0344 7.86953 11.8524C7.86673 11.9196 7.86857 11.9875 7.87657 12.0555C7.92577 12.4755 8.18475 12.8705 8.56875 13.1125C8.81995 13.2709 10.8717 14.6457 11.1781 14.8641C11.6085 15.1717 12.0843 15.3344 12.5531 15.3344C13.4491 15.3344 13.7497 14.4093 13.8945 13.9649C14.1045 13.3197 14.8909 8.07291 14.9797 7.14771C15.0401 6.51371 14.7759 5.99163 14.2727 5.75083C14.0843 5.66003 13.8692 5.61411 13.6352 5.61411ZM13.6352 6.41411C13.7452 6.41411 13.8434 6.43231 13.9266 6.47271C14.1158 6.56351 14.212 6.76592 14.1828 7.07192C14.086 8.08112 13.3016 13.2036 13.1344 13.7172C12.9912 14.1564 12.8403 14.5344 12.5531 14.5344C12.2659 14.5344 11.9522 14.4337 11.643 14.2125C11.3338 13.9917 9.28052 12.6148 8.99532 12.4352C8.74532 12.2776 8.48073 11.8847 8.85313 11.5047C9.15993 11.1919 11.4871 8.93322 11.6859 8.73442C11.8339 8.58602 11.7647 8.40708 11.6195 8.40708C11.5695 8.40708 11.5097 8.42816 11.4477 8.47896C11.2045 8.67776 7.81392 10.9466 7.52032 11.129C7.32592 11.2498 7.0249 11.3368 6.7125 11.3368C6.5793 11.3368 6.44445 11.3208 6.31485 11.2852C5.86365 11.1608 5.10008 10.9291 4.79688 10.8211C4.50528 10.7171 4.39922 10.6175 4.39922 10.4391C4.39922 10.1855 4.75718 10.0104 5.13438 9.85005C5.53278 9.68085 12.4264 6.75342 12.9656 6.55942C13.2152 6.46902 13.4436 6.41411 13.6352 6.41411Z"/>
</svg>
