<svg width="20" height="20" viewBox="0 0 20 20" fill="white" xmlns="http://www.w3.org/2000/svg">
<path d="M9.99999 0.800049C4.92371 0.800049 0.799988 4.92377 0.799988 10C0.799988 15.0763 4.92371 19.2 9.99999 19.2C15.0763 19.2 19.2 15.0763 19.2 10C19.2 4.92377 15.0763 0.800049 9.99999 0.800049ZM9.99999 1.60005C14.6439 1.60005 18.4 5.35612 18.4 10C18.4 14.644 14.6439 18.4 9.99999 18.4C5.35606 18.4 1.59999 14.644 1.59999 10C1.59999 5.35612 5.35606 1.60005 9.99999 1.60005ZM6.00077 7.20005L4.38671 7.20083C4.38671 7.20083 4.29435 7.19563 4.1828 7.21021C4.07125 7.22479 3.90647 7.23155 3.73749 7.42271L3.73671 7.42349L3.73593 7.42427C3.58562 7.59616 3.59135 7.79621 3.61014 7.9063C3.62886 8.01598 3.67108 8.09849 3.67108 8.09849V8.09927C3.6866 8.13734 4.85854 11.0088 6.33593 12.5516C7.37803 13.6406 8.49255 14 9.48514 14H9.99999C10.1694 14 10.3206 13.9923 10.4883 13.9055C10.6559 13.8187 10.8 13.5791 10.8 13.393C10.8 13.1925 10.8049 12.9982 10.8305 12.8899C10.8543 12.7887 10.8451 12.8136 10.8547 12.8133C10.8643 12.8154 10.8817 12.8195 10.9148 12.8344C10.9862 12.8667 11.0964 12.9387 11.2187 13.0336C11.4629 13.2232 11.7522 13.4983 12.0766 13.711C12.5411 14.0189 13.0453 14 13.0453 14H14.7078L14.7258 13.9985C14.7258 13.9985 14.9809 13.9927 15.243 13.8321C15.374 13.7518 15.5297 13.6045 15.582 13.3836C15.6343 13.1628 15.5675 12.9311 15.4391 12.7274C15.3921 12.6527 15.1642 12.3224 14.2547 11.5149C14.0197 11.3065 13.8594 11.159 13.7961 11.0805C13.7736 11.0527 13.7717 11.0554 13.7672 11.054C13.7725 11.0403 13.825 10.9296 13.9656 10.7469C14.1121 10.5565 14.3348 10.2912 14.6211 9.92661C14.986 9.46173 15.242 9.01473 15.4031 8.63755C15.4837 8.44896 15.5408 8.27783 15.575 8.1227C15.6092 7.96758 15.6365 7.83864 15.5859 7.65474C15.5482 7.51784 15.4457 7.39524 15.3453 7.33052C15.2449 7.2658 15.1512 7.24142 15.0672 7.22583C14.8991 7.19465 14.7508 7.20005 14.6125 7.20005C14.323 7.20005 13.0359 7.21021 12.9297 7.21021C12.805 7.21021 12.6061 7.26213 12.5141 7.31489C12.2855 7.44576 12.2141 7.62505 12.2141 7.62505L12.1922 7.66333L12.1797 7.7063C12.1797 7.7063 11.8866 8.65438 11.5851 9.14302H11.5844C11.2299 9.71866 10.9655 9.947 10.8492 10.0118C10.8369 10.0186 10.8437 10.015 10.8351 10.0196C10.826 9.9931 10.8146 9.95663 10.807 9.88911C10.79 9.73702 10.8 9.52284 10.8 9.31567C10.8 8.74191 10.8431 8.38412 10.7953 8.04536C10.7714 7.87598 10.7106 7.68735 10.5719 7.54224C10.4331 7.39712 10.2539 7.32569 10.075 7.28442H10.0742C9.88771 7.24148 9.68674 7.20459 9.20389 7.20005C8.58869 7.19431 8.18803 7.21338 7.83202 7.37192L7.82811 7.37427L7.82499 7.37583C7.68432 7.44191 7.57343 7.51765 7.47577 7.6188C7.42694 7.66938 7.36901 7.70621 7.32889 7.86724C7.30883 7.94775 7.30663 8.10009 7.39764 8.22349C7.48865 8.34689 7.61619 8.38411 7.69139 8.3938C7.67752 8.392 7.75056 8.40807 7.80702 8.43599C7.86348 8.4639 7.91251 8.5041 7.92499 8.52036V8.52114C7.91977 8.51436 7.97399 8.64911 7.98827 8.77192C8.00255 8.89474 7.99999 8.9938 7.99999 8.9938L7.99921 9.01802L8.00155 9.04224C8.00155 9.04224 8.0261 9.31402 8.01327 9.59458C8.00685 9.73486 7.98912 9.87605 7.96561 9.96255C7.96437 9.96712 7.9638 9.96552 7.96249 9.96958C7.86234 9.89964 7.63141 9.65592 7.31327 9.13052C7.01918 8.64449 6.74374 7.77036 6.74374 7.77036L6.73749 7.75083L6.73046 7.73208C6.73046 7.73208 6.6791 7.53681 6.45233 7.37739C6.23978 7.22776 6.03749 7.20708 6.03749 7.20708L6.00077 7.20005ZM5.9078 8.00005C5.93068 8.00841 5.97851 8.02565 5.98749 8.02974L5.97811 8.00161L5.99061 8.03052L5.99218 8.0313V8.03208H5.99296C5.97285 8.01802 5.9899 8.03198 5.99218 8.03521C6.00322 8.0729 6.24747 8.91422 6.62889 9.54458C6.97637 10.1184 7.23308 10.4399 7.51327 10.6321C7.79319 10.8241 8.1696 10.8043 8.36093 10.7047C8.61662 10.5719 8.68809 10.3537 8.73749 10.1719C8.78688 9.99014 8.80451 9.80572 8.81249 9.6313C8.82772 9.2985 8.80167 9.02626 8.79921 8.99927C8.79961 8.98423 8.80317 8.85421 8.7828 8.67896C8.76227 8.50236 8.72547 8.28291 8.56874 8.06255C8.74429 8.03647 8.84176 7.99675 9.19608 8.00005C9.64794 8.0043 9.71667 8.02315 9.89452 8.06411C9.99137 8.08645 10.0021 8.10495 9.99296 8.09536C9.98379 8.08577 9.99216 8.07936 10.0031 8.15708C10.025 8.31248 9.99999 8.71104 9.99999 9.31567C9.99999 9.48611 9.98353 9.72647 10.0117 9.97817C10.0399 10.2297 10.1185 10.5516 10.4226 10.7399C10.5959 10.8471 10.927 10.884 11.2391 10.7102C11.5511 10.5364 11.8713 10.2029 12.2656 9.56255C12.6551 8.93117 12.8881 8.10107 12.9133 8.01333C12.9133 8.01333 12.9177 8.01044 12.9203 8.00864C12.9274 8.00898 12.9184 8.01021 12.9297 8.01021C13.0778 8.01021 14.342 8.00005 14.6125 8.00005C14.6869 8.00005 14.7196 8.00406 14.775 8.0063C14.7526 8.09266 14.7225 8.19323 14.6672 8.32271C14.5372 8.62702 14.3141 9.02174 13.9914 9.43286C13.7133 9.78705 13.4972 10.0439 13.332 10.2586C13.1668 10.4733 13.037 10.6427 12.9828 10.8875C12.9286 11.1324 13.032 11.4086 13.1734 11.5836C13.3148 11.7587 13.4898 11.9061 13.7234 12.1133C14.6035 12.8946 14.7478 13.1311 14.7617 13.1532V13.154C14.7766 13.1775 14.7669 13.1538 14.7726 13.1657C14.7227 13.1812 14.6634 13.1988 14.6578 13.2H13.0391H13.0367C13.0367 13.2 12.739 13.1903 12.518 13.0438L12.5172 13.043H12.5164C12.2826 12.8899 12 12.6272 11.7094 12.4016C11.5641 12.2888 11.4161 12.1831 11.2445 12.1055C11.0729 12.0279 10.8554 11.9729 10.6266 12.0415C10.2952 12.1406 10.1114 12.4559 10.0523 12.7063C10.0099 12.886 10.0162 13.0423 10.0148 13.1993C10.0034 13.1999 10.0133 13.2 9.99999 13.2H9.48514C8.67214 13.2 7.82635 12.9519 6.91405 11.9985C5.72798 10.7599 4.66977 8.36469 4.51093 8.00083L5.9078 8.00005ZM12.8851 8.00317C12.8779 8.00479 12.8987 8.00636 12.9156 8.00786C12.9133 8.00911 12.9158 8.00676 12.9125 8.00864C12.9122 8.00196 12.8949 8.001 12.8851 8.00317Z"/>
</svg>
