<svg width="20" height="20" viewBox="0 0 20 20" fill="white" xmlns="http://www.w3.org/2000/svg">
<path d="M10 0.800049C4.92382 0.800049 0.800003 4.92386 0.800003 10C0.800003 11.6317 1.24748 13.1544 1.99375 14.4836L0.814847 18.6922C0.796013 18.7596 0.795162 18.8307 0.812379 18.8985C0.829596 18.9662 0.864279 19.0283 0.912971 19.0785C0.961663 19.1287 1.02266 19.1653 1.08989 19.1845C1.15711 19.2038 1.22821 19.2051 1.2961 19.1883L5.68438 18.1008C6.97386 18.7892 8.43704 19.2 10 19.2C15.0762 19.2 19.2 15.0762 19.2 10C19.2 4.92386 15.0762 0.800049 10 0.800049ZM10 1.60005C14.6438 1.60005 18.4 5.35624 18.4 10C18.4 14.6439 14.6438 18.4 10 18.4C8.51121 18.4 7.11685 18.0119 5.90469 17.3336C5.81603 17.2841 5.71186 17.2701 5.61328 17.2946L1.77032 18.2469L2.80078 14.5704C2.81553 14.5184 2.8196 14.464 2.81275 14.4104C2.80591 14.3569 2.78828 14.3052 2.76094 14.2586C2.02428 13.0095 1.6 11.5561 1.6 10C1.6 5.35624 5.35619 1.60005 10 1.60005ZM6.65703 5.20005C6.40062 5.20005 6.03442 5.29544 5.7336 5.61958C5.55291 5.81427 4.8 6.54785 4.8 7.83755C4.8 9.18216 5.73256 10.3424 5.84532 10.4915H5.8461V10.4922C5.8354 10.4782 5.98922 10.7009 6.19453 10.968C6.39985 11.2351 6.68696 11.5859 7.04766 11.9657C7.76905 12.7252 8.78332 13.603 10.0422 14.1399C10.6219 14.3868 11.0793 14.5358 11.4258 14.6446C12.0679 14.8462 12.6528 14.8156 13.0922 14.7508C13.4211 14.7024 13.7828 14.5445 14.1406 14.318C14.4985 14.0915 14.8492 13.8099 15.0039 13.3821C15.1147 13.0753 15.171 12.7919 15.1914 12.5586C15.2016 12.442 15.2029 12.3391 15.1953 12.2438C15.1877 12.1485 15.1958 12.0755 15.107 11.9297C14.9208 11.624 14.7099 11.616 14.4898 11.5071C14.3676 11.4466 14.0195 11.2766 13.6703 11.1102C13.3216 10.944 13.0196 10.7968 12.8336 10.7305C12.7161 10.6882 12.5726 10.6274 12.3656 10.6508C12.1586 10.6743 11.9542 10.8236 11.8352 11C11.7223 11.1673 11.2682 11.7034 11.1297 11.861C11.1279 11.8599 11.1399 11.8654 11.0852 11.8383C10.9139 11.7536 10.7045 11.6815 10.3945 11.518C10.0846 11.3545 9.69691 11.1131 9.27266 10.7391V10.7383C8.64121 10.1824 8.19891 9.48449 8.05938 9.25005C8.06878 9.23886 8.05826 9.25241 8.07813 9.23286L8.07891 9.23208C8.22152 9.09162 8.3479 8.92386 8.45469 8.80083C8.60611 8.6264 8.67293 8.47262 8.74532 8.32896C8.88958 8.04262 8.80926 7.72755 8.72578 7.56177V7.56099C8.73155 7.57245 8.68063 7.46011 8.62578 7.33052C8.57078 7.20055 8.50067 7.03206 8.42578 6.85239C8.27602 6.49305 8.10881 6.09001 8.00938 5.85396V5.85317C7.89224 5.57512 7.73376 5.37481 7.52657 5.27817C7.31937 5.18154 7.13631 5.20901 7.12891 5.20864H7.12813C6.98027 5.20182 6.81802 5.20005 6.65703 5.20005ZM6.65703 6.00005C6.81125 6.00005 6.96329 6.00193 7.09063 6.00786C7.22163 6.01439 7.21348 6.01493 7.18828 6.00317C7.16269 5.99124 7.19742 5.98736 7.27188 6.16411C7.36924 6.39525 7.53727 6.79975 7.6875 7.16021C7.76262 7.34043 7.83292 7.50958 7.88907 7.64224C7.94521 7.7749 7.97563 7.84897 8.01094 7.91958V7.92036L8.01172 7.92114C8.04634 7.98944 8.04328 7.94571 8.03125 7.96958C7.94684 8.13711 7.93539 8.17825 7.85 8.27661C7.72 8.42638 7.58738 8.59341 7.51719 8.66255C7.45578 8.72288 7.34497 8.81686 7.27578 9.00083C7.20649 9.18508 7.23883 9.43788 7.35 9.62661C7.49802 9.87789 7.98577 10.6718 8.74375 11.3391C9.22111 11.7599 9.66583 12.0384 10.0211 12.2258C10.3764 12.4132 10.6657 12.5227 10.7305 12.5547C10.8842 12.6308 11.0523 12.6899 11.2477 12.6665C11.4431 12.643 11.6115 12.5244 11.7188 12.4032L11.7195 12.4024C11.8623 12.2406 12.2863 11.7563 12.4898 11.4579C12.4985 11.4609 12.4956 11.4585 12.5633 11.4829V11.4836H12.5641C12.5949 11.4946 12.9817 11.6678 13.3266 11.8321C13.6714 11.9964 14.0214 12.1672 14.1352 12.2235C14.2993 12.3047 14.3768 12.3576 14.3969 12.3579C14.3982 12.3931 14.3996 12.4312 14.3945 12.4891C14.3805 12.6498 14.3376 12.8721 14.2516 13.1102C14.2094 13.2267 13.99 13.4671 13.7133 13.6422C13.4366 13.8174 13.0997 13.9411 12.975 13.9594C12.6 14.0147 12.1547 14.0349 11.6656 13.8813C11.3265 13.7749 10.9037 13.6371 10.3563 13.404C9.24593 12.9304 8.30224 12.1247 7.62813 11.4149C7.29107 11.06 7.02103 10.7297 6.82891 10.4797C6.63715 10.2303 6.55341 10.1005 6.4836 10.0086L6.48282 10.0079C6.35888 9.84397 5.6 8.78839 5.6 7.83755C5.6 6.83124 6.0674 6.43662 6.32032 6.16411C6.45309 6.02105 6.59825 6.00005 6.65703 6.00005Z" />
</svg>
