<svg width="18" height="18" fill="#fff" xmlns="http://www.w3.org/2000/svg"><path d="M4.6.596c-2.205 0-4 1.796-4 4v8.8c0 2.205 1.795 4 4 4h8.8c2.204 0 4-1.795 4-4v-8.8c0-2.204-1.795-4-4-4H4.6zm0 .8h8.8c1.772 0 3.2 1.428 3.2 3.2v8.8c0 1.772-1.428 3.2-3.2 3.2H4.6a3.194 3.194 0 01-3.2-3.2v-8.8c0-1.772 1.428-3.2 3.2-3.2zm1.62 2.018c-.819-.035-1.44.276-1.83.65a2.191 2.191 0 00-.433.573c-.096.186-.158.34-.158.54a5.393 5.393 0 000 .616c.021.355.081.833.24 1.4.318 1.136 1.035 2.625 2.59 4.179 1.553 1.554 3.042 2.27 4.177 2.589.568.16 1.046.22 1.4.24a5.38 5.38 0 00.617 0c.2 0 .354-.061.54-.158.187-.096.387-.237.574-.433.373-.39.684-1.011.649-1.83a1.184 1.184 0 00-.553-.94l-1.131-.724a1.898 1.898 0 00-1.93-.066l.034-.017-.47.202-.035.024a.396.396 0 01-.385.042 4.567 4.567 0 01-1.446-.97 4.567 4.567 0 01-.97-1.447.396.396 0 01.04-.385l.025-.034.202-.471-.017.034a1.897 1.897 0 00-.066-1.93l-.724-1.13a1.184 1.184 0 00-.94-.554zm-.035.8c.112.004.228.07.302.185l.724 1.13c.212.333.227.769.037 1.115l-.009.017-.193.45.04-.072a1.204 1.204 0 00-.125 1.154 5.34 5.34 0 001.143 1.703 5.345 5.345 0 001.703 1.143 1.2 1.2 0 001.154-.125l-.073.04.451-.193.017-.01a1.107 1.107 0 011.114.039l1.132.723a.39.39 0 01.185.302c.026.607-.185.988-.428 1.242a1.42 1.42 0 01-.363.276c-.109.056-.213.068-.173.068-.074 0-.112.005-.204.007a4.528 4.528 0 01-.367-.006 5.769 5.769 0 01-1.23-.211c-1.011-.284-2.367-.923-3.828-2.385-1.462-1.46-2.101-2.817-2.385-3.828a5.764 5.764 0 01-.21-1.23 4.531 4.531 0 01-.007-.367c.002-.092.007-.13.007-.204 0 .04.012-.064.068-.173a1.42 1.42 0 01.276-.362c.254-.244.635-.455 1.242-.429z"/></svg>