<svg width="20" height="20" fill="#fff" xmlns="http://www.w3.org/2000/svg"><path d="M10 .8C4.924.8.8 4.924.8 10s4.124 9.2 9.2 9.2 9.2-4.124 9.2-9.2S15.076.8 10 .8zm0 .8c4.644 0 8.4 3.756 8.4 8.4s-3.756 8.4-8.4 8.4A8.394 8.394 0 011.6 10c0-4.644 3.756-8.4 8.4-8.4zM6 7.2H4.388s-.093-.004-.204.01c-.112.015-.277.022-.446.213l-.001.001a.575.575 0 00-.126.482.74.74 0 00.061.192V8.1c.016.038 1.188 2.91 2.665 4.453C7.378 13.64 8.493 14 9.486 14H10c.17 0 .32-.008.488-.095a.652.652 0 00.312-.512c0-.2.005-.395.03-.503.024-.101.015-.076.025-.077.01.002.027.006.06.021.071.033.181.105.304.2.244.19.533.464.858.677.464.308.968.289.968.289h1.663l.018-.002s.255-.005.517-.166a.737.737 0 00.339-.448c.052-.221-.014-.453-.143-.657-.047-.074-.275-.405-1.184-1.212a5.24 5.24 0 01-.459-.434c-.022-.028-.024-.026-.029-.027a1.64 1.64 0 01.199-.307c.146-.19.369-.456.655-.82.365-.465.621-.912.782-1.29.08-.188.138-.36.172-.514.034-.155.062-.284.01-.468a.599.599 0 00-.24-.324.735.735 0 00-.278-.105c-.168-.031-.316-.026-.454-.026-.29 0-1.577.01-1.683.01-.125 0-.324.052-.416.105-.228.13-.3.31-.3.31l-.022.038-.012.043s-.293.948-.595 1.437c-.355.576-.62.804-.736.869l-.014.008a.56.56 0 01-.028-.13c-.017-.153-.007-.367-.007-.574 0-.574.043-.932-.005-1.27a.9.9 0 00-.223-.504.965.965 0 00-.497-.258c-.187-.043-.388-.08-.871-.084-.615-.006-1.016.013-1.372.172l-.004.002-.003.002a1.14 1.14 0 00-.35.243c-.048.05-.106.087-.146.248a.447.447 0 00.069.356c.09.124.218.161.293.17-.013-.001.06.015.116.043a.418.418 0 01.118.084v.001c-.005-.007.049.128.063.25.015.124.012.223.012.223v.024l.002.024s.024.272.011.553a1.93 1.93 0 01-.047.368l-.004.007c-.1-.07-.33-.314-.649-.84-.294-.486-.57-1.36-.57-1.36l-.006-.02-.007-.018s-.05-.195-.278-.355c-.212-.15-.415-.17-.415-.17L6.001 7.2zm-.092.8l.08.03-.01-.028.013.029h.001v.001h.001c-.02-.014-.003 0 0 .003.01.038.254.88.636 1.51.347.573.604.895.884 1.087.28.192.657.172.848.073.256-.133.327-.351.376-.533.05-.182.068-.366.075-.54a4.6 4.6 0 00-.013-.633c0-.015.004-.145-.016-.32a1.251 1.251 0 00-.214-.616c.175-.027.273-.066.627-.063.452.004.52.023.699.064.096.022.107.041.098.031-.01-.01 0-.016.01.062.022.155-.003.554-.003 1.159 0 .17-.016.41.012.662.028.252.106.574.41.762.174.107.505.144.817-.03.312-.174.632-.507 1.027-1.147.39-.632.622-1.462.647-1.55l.007-.004c.007 0-.002.001.01.001.148 0 1.412-.01 1.683-.01.074 0 .107.004.162.006a2.135 2.135 0 01-.108.317 5.12 5.12 0 01-.676 1.11c-.278.354-.494.61-.659.826-.165.214-.295.384-.35.628-.053.245.05.522.191.697.142.175.317.322.55.53.88.78 1.025 1.017 1.039 1.04.015.024.005 0 .01.012l-.114.034h-1.621s-.298-.01-.519-.156v-.001h-.002c-.233-.153-.516-.416-.807-.641a2.32 2.32 0 00-.464-.296.876.876 0 00-.618-.065c-.332.1-.516.415-.575.665-.042.18-.036.336-.037.493L10 13.2h-.515c-.813 0-1.659-.248-2.571-1.201C5.728 10.758 4.67 8.364 4.511 8h1.397zm6.977.003c-.007.002.014.003.03.005h-.002c0-.006-.018-.007-.028-.005z"/></svg>