<svg width="20" height="20" fill="#fff" xmlns="http://www.w3.org/2000/svg"><path d="M10 .8C4.924.8.8 4.924.8 10c0 1.632.447 3.154 1.194 4.484l-1.18 4.208a.4.4 0 00.482.496l4.388-1.087A9.135 9.135 0 0010 19.2c5.076 0 9.2-4.124 9.2-9.2S15.076.8 10 .8zm0 .8c4.644 0 8.4 3.756 8.4 8.4s-3.756 8.4-8.4 8.4a8.355 8.355 0 01-4.095-1.066.4.4 0 00-.292-.04l-3.843.953L2.8 14.57a.4.4 0 00-.04-.311A8.352 8.352 0 011.6 10c0-4.644 3.756-8.4 8.4-8.4zM6.657 5.2c-.256 0-.623.095-.923.42-.181.194-.934.928-.934 2.218 0 1.344.933 2.504 1.045 2.654h.001c-.01-.014.143.209.349.476.205.267.492.618.853.998.721.76 1.735 1.637 2.994 2.174.58.247 1.037.396 1.384.505a3.687 3.687 0 001.666.106c.33-.049.69-.207 1.049-.433.357-.226.708-.508.863-.936.11-.307.167-.59.187-.823.01-.117.012-.22.004-.315-.007-.095 0-.168-.088-.314-.186-.306-.397-.314-.617-.423-.122-.06-.47-.23-.82-.397-.348-.166-.65-.313-.836-.38-.118-.042-.261-.103-.468-.08-.207.024-.412.174-.53.35-.114.167-.568.703-.706.861l-.045-.023c-.171-.084-.38-.156-.69-.32a5.714 5.714 0 01-1.122-.779c-.632-.557-1.074-1.255-1.214-1.489.01-.011 0 .002.02-.017.143-.141.269-.31.376-.432.151-.175.218-.328.29-.472.145-.286.064-.601-.02-.767V7.56c.007.011-.044-.1-.1-.23l-.2-.479c-.149-.359-.316-.762-.416-.998-.117-.279-.275-.48-.482-.576-.208-.096-.39-.069-.398-.07a11.973 11.973 0 00-.472-.008zm0 .8c.154 0 .306.002.434.008.13.006.122.007.097-.005-.025-.012.01-.016.084.161l.415.996.202.482c.056.133.087.207.122.278v.001c.035.068.032.025.02.049-.084.167-.096.208-.181.307-.13.15-.263.316-.333.386-.061.06-.172.154-.241.338-.07.184-.037.437.074.626.148.25.636 1.045 1.394 1.712.477.42.922.7 1.277.887.355.187.645.297.71.329a.9.9 0 00.517.111.78.78 0 00.47-.263h.002c.142-.162.566-.647.77-.945.008.003.006 0 .073.025h.001c.03.012.418.185.763.35.344.163.694.334.808.39.164.082.242.135.262.135a.944.944 0 01-.002.131 2.55 2.55 0 01-.143.621c-.043.117-.262.357-.539.532-.276.175-.613.3-.738.317-.375.056-.82.076-1.31-.078a13.423 13.423 0 01-1.309-.477c-1.11-.474-2.054-1.28-2.728-1.99a11.874 11.874 0 01-.8-.934c-.19-.25-.275-.38-.344-.471l-.001-.001c-.124-.164-.883-1.22-.883-2.17 0-1.007.467-1.401.72-1.674A.474.474 0 016.657 6z"/></svg>